<?xml version="1.0" standalone="no"?>
<!DOCTYPE svg PUBLIC "-//W3C//DTD SVG 1.1//EN" "http://www.w3.org/Graphics/SVG/1.1/DTD/svg11.dtd" >
<svg xmlns="http://www.w3.org/2000/svg" xmlns:xlink="http://www.w3.org/1999/xlink" version="1.1">
<metadata></metadata>
<defs>
<font id="intro_boldregular" horiz-adv-x="1128" >
<font-face units-per-em="2048" ascent="1536" descent="-512" />
<missing-glyph horiz-adv-x="501" />
<glyph unicode=" "  horiz-adv-x="501" />
<glyph unicode="&#x09;" horiz-adv-x="501" />
<glyph unicode="&#xa0;" horiz-adv-x="501" />
<glyph unicode="!" horiz-adv-x="612" d="M137 1436h334l-18 -1053h-291zM139 127q0 70 48.5 113t119.5 43q73 0 120.5 -42.5t47.5 -113.5q0 -69 -47.5 -112.5t-120.5 -43.5q-70 0 -119 44t-49 112z" />
<glyph unicode="&#x22;" horiz-adv-x="860" d="M139 983v451h248l-37 -451h-211zM496 983v451h245l-34 -451h-211z" />
<glyph unicode="#" horiz-adv-x="1456" d="M84 367v200h231l39 252h-207v203h238l61 410h254l-59 -410h295l61 410h254l-59 -410h172v-203h-201l-37 -252h172v-200h-202l-52 -367h-264l56 367h-289l-51 -367h-267l56 367h-201zM565 561h307l41 266h-309z" />
<glyph unicode="$" horiz-adv-x="1318" d="M82 424h295q4 -77 64.5 -122.5t146.5 -53.5v362q-486 53 -486 402q0 103 40 185.5t108.5 136.5t154 85.5t183.5 40.5v139h151v-143q92 -10 171.5 -40.5t144 -81t102 -128.5t37.5 -174h-287q-4 68 -53.5 108.5t-114.5 45.5v-342q89 -11 157.5 -27t136.5 -47.5t112 -76.5 t71 -114.5t27 -160.5q0 -78 -28 -146.5t-76 -119.5t-112.5 -89.5t-137.5 -60.5t-150 -29v-141h-151v139q-101 10 -189.5 43t-160.5 87t-114 137.5t-42 185.5zM406 1018q0 -30 10 -53.5t25.5 -39t40.5 -28t49 -20t57 -15.5v324q-78 -6 -130 -49.5t-52 -118.5zM739 248 q88 6 142.5 52t54.5 118q0 79 -51 117.5t-146 58.5v-346z" />
<glyph unicode="%" horiz-adv-x="1886" d="M72 1098q0 88 31.5 160t83.5 116t118 67.5t134.5 23.5t134.5 -23.5t118 -67.5t83.5 -116t31.5 -160t-31.5 -160t-83.5 -116t-118 -67.5t-134.5 -23.5t-134.5 23.5t-118 67.5t-83.5 116t-31.5 160zM301 1098q0 -45 15.5 -80.5t40 -53.5t54 -26.5t59.5 0t54.5 26.5t40 53.5 t15.5 80.5q0 46 -15.5 82t-40 54.5t-54 27.5t-59.5 0t-54.5 -27.5t-40 -54.5t-15.5 -82zM453 0l702 1432h279l-705 -1432h-276zM1081 330q0 88 31.5 159.5t83.5 115t118 67.5t135 24t135 -24t118 -67.5t83.5 -115t31.5 -159.5t-31.5 -160t-83.5 -116t-118 -67.5t-135 -23.5 t-135 23.5t-118 67.5t-83.5 116t-31.5 160zM1309 330q0 -46 15.5 -82t40 -54.5t54 -27.5t59 0t54 27.5t40 54.5t15.5 82q0 52 -20.5 90.5t-51.5 56t-67 17.5t-67 -17.5t-51.5 -56t-20.5 -90.5z" />
<glyph unicode="&#x26;" horiz-adv-x="1331" d="M98 440q0 124 60.5 221.5t169.5 151.5q-64 40 -100.5 106.5t-41.5 143.5q-6 93 31 169t102.5 124t149 74t174.5 26q126 0 224 -40.5t158 -126t60 -204.5h-251q0 55 -52 88t-131 33q-75 0 -128.5 -37t-53.5 -106q0 -83 58 -119.5t171 -36.5v-233h-67q-105 -4 -169.5 -66.5 t-64.5 -156.5q0 -93 66 -156.5t174 -63.5q105 0 169 61.5t68 170.5v455h388v-232h-140v-221q0 -227 -128.5 -357.5t-356.5 -130.5q-133 0 -239 38.5t-171 104t-98 147.5t-31 173z" />
<glyph unicode="'" horiz-adv-x="505" d="M137 987v447h252l-35 -447h-217z" />
<glyph unicode="(" horiz-adv-x="724" d="M74.5 577.5q-0.5 164.5 32.5 328t96 301.5t163.5 246.5t227.5 164.5l90 -172q-103 -59 -176.5 -197t-106.5 -308t-32.5 -363.5t34.5 -363.5t107 -308t174 -197l-90 -172q-125 56 -225.5 164.5t-163.5 246.5t-96.5 301.5t-34 328z" />
<glyph unicode=")" horiz-adv-x="724" d="M41 -291q100 58 173 195.5t107 308.5t35 364.5t-32.5 364.5t-106.5 308.5t-176 195.5l90 172q125 -56 225.5 -164.5t163 -246t96 -301t34 -328.5t-32.5 -328.5t-96 -301t-163 -246.5t-227 -165z" />
<glyph unicode="*" horiz-adv-x="897" d="M94 1151l62 197l202 -76l-18 203h217l-18 -203l196 78l66 -195l-205 -55l149 -168l-176 -129l-120 178l-119 -178l-174 131l149 164z" />
<glyph unicode="+" horiz-adv-x="989" d="M109 633v235h266v262h237v-262h269v-235h-269v-264h-237v264h-266z" />
<glyph unicode="," horiz-adv-x="565" d="M115 123q0 71 47.5 114.5t120.5 43.5q57 0 99.5 -28.5t59.5 -78.5q9 -21 9 -53q0 -36 -15 -66l-84 -260h-168l49 176q-118 40 -118 152z" />
<glyph unicode="-" horiz-adv-x="964" d="M125 559v246h715v-246h-715z" />
<glyph unicode="." horiz-adv-x="569" d="M115 125q0 72 48.5 116t121.5 44t121.5 -44t48.5 -116q0 -68 -48.5 -112t-121.5 -44t-121.5 44t-48.5 112z" />
<glyph unicode="/" horiz-adv-x="1101" d="M57 2l693 1432h294l-692 -1432h-295z" />
<glyph unicode="0" horiz-adv-x="1335" d="M133 465v500q0 150 72.5 263.5t193.5 171.5t271 58q148 0 267.5 -58t192 -171.5t72.5 -263.5v-500q0 -151 -72.5 -265t-192 -171.5t-267.5 -57.5q-112 0 -209.5 34t-170.5 96t-115 156t-42 208zM422 547q0 -63 6 -115q10 -92 75.5 -142t166.5 -50q97 0 163 50.5t76 141.5 q6 53 6 115v334q0 61 -6 116q-10 94 -75.5 143.5t-163.5 49.5q-101 0 -166.5 -49.5t-75.5 -143.5q-6 -55 -6 -116v-334z" />
<glyph unicode="1" horiz-adv-x="935" d="M98 0v236h242v958h-213v240h506v-1198h248v-236h-783z" />
<glyph unicode="2" horiz-adv-x="1114" d="M88 0v66l508 712q102 144 109 238q4 84 -43 131t-115 47q-73 0 -125.5 -43t-52.5 -139h-263q0 210 119 327t330 117q99 0 180.5 -32.5t134.5 -87.5t80.5 -132t24.5 -163t-39.5 -183t-106.5 -190q-11 -15 -48.5 -71.5t-98 -141.5t-141.5 -189h467v-266h-920z" />
<glyph unicode="3" horiz-adv-x="1183" d="M88 420h268q6 -89 62.5 -135.5t150.5 -46.5q99 0 158 62t61 161q-2 66 -27 114.5t-64.5 75t-92.5 39t-107 11.5t-112 -11v43l264 455h-506v244h912v-43l-312 -500q163 -28 248.5 -147t85.5 -279q0 -96 -34 -184t-96 -156.5t-159 -109t-215 -40.5q-205 0 -341.5 122 t-143.5 325z" />
<glyph unicode="4" horiz-adv-x="1230" d="M49 285v133l629 1016h317v-902h133v-247h-133v-285h-276v285h-670zM395 522h342v273l15 297h-2z" />
<glyph unicode="5" horiz-adv-x="1191" d="M109 416h268q7 -86 63.5 -130t149.5 -44q107 0 160 61t53 158q0 65 -22.5 113.5t-54 77t-87 44.5t-100 22t-116 3t-110.5 -7t-108 -13q-40 -5 -58 -7v740h879v-254h-627v-246q73 12 156 12q543 -11 543 -483q0 -95 -34 -183t-96 -156.5t-158.5 -109.5t-213.5 -41 q-204 0 -339.5 121t-147.5 322z" />
<glyph unicode="6" horiz-adv-x="1243" d="M92 461q0 76 25 158t67 149l416 676h336l-328 -539q36 19 74 19q219 8 355.5 -118t136.5 -345q0 -159 -73 -270t-193.5 -162.5t-276.5 -51.5t-275.5 51.5t-191.5 162.5t-72 270zM391 461q0 -107 64 -165t176 -58t174.5 57.5t62.5 165.5q0 109 -63 169t-174 60 q-112 0 -176 -60t-64 -169z" />
<glyph unicode="7" horiz-adv-x="1097" d="M70 1167v267h1015v-43l-610 -1391h-309l508 1167h-604z" />
<glyph unicode="8" horiz-adv-x="1273" d="M96 440q0 116 58 213.5t163 159.5q-126 105 -129 254q-5 161 118 275t333 114q208 0 329.5 -111.5t121.5 -271.5q0 -153 -132 -262q103 -62 161 -157t59 -210q2 -93 -34 -177.5t-103.5 -149t-172 -102.5t-229.5 -38q-126 0 -230 37.5t-171.5 101.5t-104.5 147.5 t-37 176.5zM397 449q0 -94 67.5 -156t174.5 -62t174.5 64.5t67.5 159.5q0 98 -67 161.5t-175 63.5t-175 -66t-67 -165zM455 1059q0 -68 51.5 -113t132.5 -45t131.5 45.5t50.5 114.5q0 67 -51.5 111.5t-130.5 44.5q-83 0 -133.5 -45t-50.5 -113z" />
<glyph unicode="9" horiz-adv-x="1241" d="M68 985q0 120 41.5 213.5t115.5 151.5t171.5 88t213.5 30q115 0 212.5 -30t171.5 -88t115.5 -151.5t41.5 -213.5q-1 -89 -25 -163t-73 -152l-414 -670h-334l342 541q-44 -19 -80 -19q-225 -8 -362 116t-137 347zM371 985q0 -109 64 -169t175 -60t174.5 60t63.5 169 q0 107 -63 165t-175 58t-175.5 -58t-63.5 -165z" />
<glyph unicode=":" horiz-adv-x="589" d="M125 125q0 72 48.5 116t121.5 44t121.5 -44t48.5 -116q0 -68 -48.5 -112t-121.5 -44t-121.5 44t-48.5 112zM125 762q0 72 48.5 116t121.5 44t121.5 -44t48.5 -116q0 -68 -48.5 -112t-121.5 -44t-121.5 44t-48.5 112z" />
<glyph unicode=";" horiz-adv-x="591" d="M125 762q0 70 49.5 114t120.5 44q73 0 120.5 -43.5t47.5 -114.5q0 -68 -47.5 -111t-120.5 -43q-71 0 -120.5 43t-49.5 111zM127 123q0 71 47.5 114.5t120.5 43.5q57 0 100 -28.5t60 -78.5q8 -19 8 -53q0 -26 -14 -66q-27 -76 -82 -256h-170l49 172q-54 18 -86.5 56.5 t-32.5 95.5z" />
<glyph unicode="&#x3c;" d="M88 600v211l879 373v-252l-549 -227l549 -230v-252z" />
<glyph unicode="=" horiz-adv-x="1124" d="M139 387v238h846v-238h-846zM139 776v238h846v-238h-846z" />
<glyph unicode="&#x3e;" d="M162 223v252l549 230l-549 227v252l878 -373v-211z" />
<glyph unicode="?" horiz-adv-x="1058" d="M70 1026q0 106 35 189t97 135t141.5 80t172.5 30t175.5 -24t146 -77.5t100.5 -134t37 -186.5q0 -52 -18 -101.5t-46 -90.5t-62.5 -82t-69 -83t-62.5 -85.5t-46 -98.5t-18 -114h-270q0 91 20.5 163t54 122t68.5 90t73.5 88.5t59.5 95.5q19 41 19.5 84t-15.5 79t-55 58.5 t-94 22.5q-73 0 -129 -42.5t-63 -117.5h-252zM352 127q0 71 48.5 114.5t121.5 43.5t119.5 -43.5t46.5 -114.5q0 -69 -47 -112.5t-119 -43.5q-73 0 -121.5 44t-48.5 112z" />
<glyph unicode="@" horiz-adv-x="1906" d="M98 496q16 187 96 348t205.5 273.5t294 176.5t355.5 64q400 0 606.5 -231t169.5 -625q-24 -246 -161.5 -395.5t-311.5 -149.5q-90 0 -138.5 50.5t-42.5 137.5l3 23q-46 -89 -130.5 -138.5t-185.5 -54.5q-109 0 -193.5 42t-134 114t-70.5 165.5t-11 199.5q16 169 103 290 t218.5 178t292.5 54q95 0 213.5 -45t193.5 -107l-53 -577q-12 -125 45 -125q71 0 124.5 102t66.5 236q36 203 -29.5 358t-219 239.5t-372.5 84.5q-203 0 -369.5 -85.5t-270 -242.5t-122.5 -360q-14 -158 22 -288.5t115 -215.5t188 -130t246.5 -38t284.5 67l-16 -165 q-144 -50 -281 -57t-253 24.5t-212 102t-159.5 171t-92 236.5t-14.5 293zM735 496q-5 -73 10.5 -131t62.5 -96.5t120 -35.5q197 0 229 271l21 229q-75 46 -170 49q-108 -5 -184.5 -81t-88.5 -205z" />
<glyph unicode="A" horiz-adv-x="1433" d="M-12 0v41l659 1405h141l656 -1405v-41h-318l-112 238h-596l-111 -238h-319zM518 496h397l-198 473z" />
<glyph unicode="B" horiz-adv-x="1376" d="M168 0v1432h608q201 0 326 -113.5t125 -310.5q0 -79 -38.5 -151.5t-105.5 -113.5q99 -41 152 -124.5t53 -194.5q0 -192 -121 -308t-333 -116h-666zM473 266h340q77 0 122 42.5t50 115.5v8q0 87 -63 133q-41 29 -123 29h-326v-328zM473 844h281q78 0 124.5 40.5 t47.5 112.5v6q0 74 -45 119q-47 47 -127 47h-281v-325z" />
<glyph unicode="C" horiz-adv-x="1558" d="M86 715q0 173 61.5 315.5t164 233t233.5 138.5q126 46 263 46h11q112 0 217 -30.5t197 -91t158 -160.5t90 -228h-297q-91 233 -365 233q-190 0 -307 -126t-117 -330q0 -123 51.5 -225.5t148.5 -164t222 -61.5q138 0 237.5 65.5t135.5 192.5h295q-22 -137 -87 -242.5 t-157.5 -168t-199 -94t-222.5 -31.5q-114 0 -221 29.5t-200 90.5t-162.5 146.5t-109.5 204.5t-40 258z" />
<glyph unicode="D" horiz-adv-x="1490" d="M168 0v1432h532q133 0 248 -39t197.5 -106.5t141 -157.5t87.5 -194t29 -214v-15q0 -103 -26 -201q-28 -105 -86.5 -196.5t-141 -160.5t-198.5 -108.5t-251 -39.5h-532zM473 276h223q96 0 174 37t127 99t75 141t26 166q0 117 -45 214.5t-138.5 159.5t-218.5 62h-223v-879z " />
<glyph unicode="E" horiz-adv-x="1171" d="M166 0v1434h878v-269h-569v-291h533v-268h-533v-327h586v-279h-895z" />
<glyph unicode="F" horiz-adv-x="1116" d="M166 0v1434h878v-269h-573v-387h514v-268h-514v-510h-305z" />
<glyph unicode="G" horiz-adv-x="1576" d="M86 717q0 172 61 314t163.5 232.5t233 139.5t273.5 49q110 0 211 -27.5t190 -82.5t154.5 -147.5t95.5 -213.5h-301q-53 102 -138.5 148.5t-211.5 46.5q-195 0 -307.5 -130t-112.5 -329q0 -205 114.5 -331t305.5 -126q78 0 138.5 13t113 43.5t90.5 85t60 133.5h-392v258 h672q3 -48 3 -93q0 -181 -46 -309q-53 -140 -153.5 -233.5t-222 -134.5t-263.5 -41q-114 0 -221.5 30.5t-200 92t-161.5 148t-108.5 206t-39.5 258.5z" />
<glyph unicode="H" horiz-adv-x="1492" d="M166 0v1434h305v-547h549v547h307v-1434h-307v606h-549v-606h-305z" />
<glyph unicode="I" horiz-adv-x="897" d="M92 0v244h203v952h-186v238h679v-238h-186v-952h203v-244h-713z" />
<glyph unicode="J" horiz-adv-x="1290" d="M53 475v174h285v-168q0 -112 68.5 -170.5t181.5 -58.5q111 0 176 59.5t65 169.5v688h-256v265h564v-959q0 -151 -76 -265t-199.5 -172t-273.5 -58t-270.5 58t-192.5 172t-72 265z" />
<glyph unicode="K" horiz-adv-x="1439" d="M166 0v1434h305v-592h29h32t29.5 0.5t31 1t28 1.5t29 3t24.5 5t25 6.5t20 8.5q52 28 80 97t63 215q74 268 344 269q67 0 146 -17v-209q-19 2 -35 2q-63 0 -101 -24q-48 -30 -71 -111q-35 -135 -76.5 -227t-103.5 -154l438 -664v-45h-346l-361 590q-59 -15 -225 -15v-575 h-305z" />
<glyph unicode="L" horiz-adv-x="1103" d="M166 0v1434h307v-1160h598v-274h-905z" />
<glyph unicode="M" horiz-adv-x="1705" d="M166 0v1438h113l575 -682l576 682h110v-1438h-307v776l-361 -450h-38l-361 450v-776h-307z" />
<glyph unicode="N" horiz-adv-x="1540" d="M166 0v1440h96l805 -819v813h307v-1438h-92l-811 823v-819h-305z" />
<glyph unicode="O" horiz-adv-x="1636" d="M86 717q0 175 61 318t164 233.5t234 139t276 48.5q113 0 219.5 -30t199 -92t161.5 -148.5t109 -207.5t40 -261q0 -161 -54 -299.5t-150 -235.5t-233 -152t-298 -55q-145 0 -275.5 49t-232 140t-161.5 234t-60 319zM395 717q0 -114 34 -203.5t92.5 -145t134.5 -84 t163 -28.5q85 0 160.5 28.5t135.5 84t95 145t35 203.5q0 111 -34.5 199.5t-94 144t-135 84.5t-160.5 29q-86 0 -162 -29.5t-135.5 -85t-94 -144t-34.5 -198.5z" />
<glyph unicode="P" horiz-adv-x="1341" d="M168 2v1434h612q121 0 220 -43.5t161 -117t95.5 -166.5t33.5 -196q0 -101 -34 -191.5t-97 -160.5t-161.5 -111.5t-217.5 -41.5h-305v-406h-307zM469 670h311q96 0 156.5 73.5t60.5 178.5q0 103 -59.5 174t-157.5 71h-311v-497z" />
<glyph unicode="Q" horiz-adv-x="1638" d="M86 717q0 164 54 302.5t149.5 236t232 152t297.5 54.5q143 0 273.5 -49.5t233 -141.5t163.5 -235.5t61 -318.5q0 -262 -129 -443l148 -243v-45h-279l-67 110q-187 -116 -416 -116q-145 2 -275 54.5t-229.5 145t-158 232t-58.5 305.5zM395 717q0 -105 35 -192t93.5 -142.5 t135 -86t160.5 -30.5t160.5 30.5t135 86t93.5 142.5t35 192q0 106 -35 193t-94 143t-135.5 86t-161.5 30q-112 0 -207 -52t-155 -157t-60 -243z" />
<glyph unicode="R" horiz-adv-x="1415" d="M168 2v1434h612q119 0 216.5 -41t160 -110t96 -157t33.5 -184q0 -138 -67 -250.5t-189 -171.5l324 -477v-43h-328l-295 473h-256v-473h-307zM471 727h307q95 1 154 65q57 62 57 152v6q0 93 -57.5 155t-153.5 62h-307v-440z" />
<glyph unicode="S" horiz-adv-x="1327" d="M86 424h293q3 -62 47 -105.5t106.5 -62t135.5 -18.5q274 0 274 180q0 34 -11 61.5t-26.5 46t-43.5 32.5t-50.5 21.5t-60.5 13.5t-60 8t-61 5q-523 46 -523 408q0 92 29.5 168t80 127.5t120.5 87t149 51.5t166 16q84 0 160 -14t148 -46.5t124 -81.5t83.5 -124t31.5 -168 h-287q-8 56 -47.5 94.5t-93.5 55t-119 16.5q-98 0 -170.5 -48t-72.5 -128q0 -37 14.5 -65t38 -45.5t61 -30.5t73.5 -19.5t87 -11.5q102 -9 176.5 -22.5t151.5 -44t125.5 -75t79 -117.5t30.5 -171t-33 -175.5t-87.5 -127t-130.5 -82.5t-155 -47.5t-169 -16.5q-111 0 -213 28 t-186 81.5t-134.5 143t-50.5 202.5z" />
<glyph unicode="T" horiz-adv-x="1134" d="M37 1167v267h1061v-267h-381v-1167h-297v1167h-383z" />
<glyph unicode="U" horiz-adv-x="1447" d="M154 477v957h307v-951q0 -110 76.5 -170.5t189.5 -60.5q112 0 188 60.5t76 170.5v951h303v-957q0 -117 -46 -212.5t-124.5 -156.5t-180 -93.5t-216.5 -32.5t-217.5 32.5t-182.5 93.5t-126.5 156.5t-46.5 212.5z" />
<glyph unicode="V" horiz-adv-x="1376" d="M10 1389v45h326l192 -461l160 -461h6l152 459l192 463h326v-45l-610 -1401h-127z" />
<glyph unicode="W" horiz-adv-x="1986" d="M29 1389v45h321l146 -439l129 -475h6l299 889h125l309 -889h6l121 477l143 437h322v-45l-494 -1401h-182l-285 774h-6l-276 -774h-189z" />
<glyph unicode="X" horiz-adv-x="1374" d="M20 0v43l484 715l-434 631v45h333l150 -236l131 -258h8l139 270l142 224h332v-45l-433 -631l482 -715v-43h-322l-186 276l-154 269h-10l-158 -277l-178 -268h-326z" />
<glyph unicode="Y" horiz-adv-x="1300" d="M4 1389v45h330l178 -306l135 -274h10l142 285l172 295h325v-45l-491 -816v-573h-307v573z" />
<glyph unicode="Z" horiz-adv-x="1239" d="M45 0v43l657 1122h-600v269h1057v-45l-649 -1115h655v-274h-1120z" />
<glyph unicode="[" horiz-adv-x="684" d="M147 -391v1968h455v-231h-188v-1481h188v-256h-455z" />
<glyph unicode="\" horiz-adv-x="1101" d="M57 1434h295l692 -1432h-294z" />
<glyph unicode="]" horiz-adv-x="684" d="M82 -135h188v1481h-188v231h455v-1968h-455v256z" />
<glyph unicode="^" horiz-adv-x="1148" d="M96 823l375 625h205l379 -625h-250l-234 381l-225 -381h-250z" />
<glyph unicode="_" horiz-adv-x="1261" d="M123 -25h1016v-245h-1016v245z" />
<glyph unicode="`" horiz-adv-x="688" d="M133 1358v24l262 97l154 -320v-26h-234z" />
<glyph unicode="a" horiz-adv-x="1134" d="M66 291v20q0 104 46 179q52 82 138 119.5t199 37.5q163 0 262 -63v67q0 35 -16.5 61t-41.5 41t-59.5 24.5t-65 12.5t-63.5 3q-178 0 -285 -60l-37 205q157 74 371 74q101 0 182 -18t148 -59t104 -115t37 -177v-356q0 -34 0.5 -47t5 -34.5t13.5 -28.5t27 -13t46 -4l2 -160 q-49 -11 -91 -14q-14 -1 -28 -1q-28 0 -56 4q-42 6 -71.5 23.5t-48 53t-18.5 86.5q-41 -86 -138 -128t-204 -42q-143 0 -248.5 85.5t-109.5 223.5zM346 309q4 -51 43 -78.5t92 -27.5q80 0 148.5 39.5t75.5 111.5v52q-83 57 -205 57q-72 -5 -116 -45q-38 -35 -39 -91 q0 -9 1 -18z" />
<glyph unicode="b" horiz-adv-x="1193" d="M129 45v1450h285v-545q114 47 229 47h6q203 0 334 -142q133 -144 133 -376q0 -112 -30.5 -201t-82.5 -146.5t-126 -95.5t-155 -54q-76 -15 -164 -15h-11q-209 3 -418 78zM408 223q92 -24 158 -24h14q116 2 182.5 69t66.5 211q0 130 -66 206t-169 81h-9q-85 0 -177 -51 v-492z" />
<glyph unicode="c" horiz-adv-x="1155" d="M74 498q0 125 45.5 226.5t121.5 164t168.5 96t192.5 33.5q115 0 215 -42t174 -131.5t96 -213.5h-272q-25 67 -81 102q-53 33 -119 33h-7q-100 -2 -175 -73t-75 -195q0 -126 75 -199.5t175 -73.5q71 0 128.5 39.5t82.5 114.5h273q-15 -96 -62 -173t-114.5 -125.5t-148 -74 t-167.5 -26.5h-6q-96 0 -186 32q-92 33 -167.5 95t-121 163.5t-45.5 227.5z" />
<glyph unicode="d" horiz-adv-x="1236" d="M76 494q0 114 39 213t108 165t156 102q76 32 164 32h27q104 -6 204 -56v547h287v-1169q0 -9 -0.5 -30t0 -28t1.5 -23t3.5 -21t6.5 -15.5t11 -13.5t16.5 -7.5t23 -5.5t30.5 0l2 -186q-59 -14 -111 -16h-16q-44 0 -86 10q-50 12 -80.5 49t-32.5 98v27q-40 -91 -119 -140 t-178 -51h-10q-103 -1 -187 39q-88 42 -143.5 115t-85.5 166.5t-30 198.5zM360 494q0 -115 54.5 -190t163.5 -75q91 0 147.5 66t56.5 160v254q-76 44 -152 51q-16 1 -31 1q-58 0 -105 -21q-59 -27 -96.5 -91.5t-37.5 -154.5z" />
<glyph unicode="e" horiz-adv-x="1126" d="M74 506q2 125 46 223.5t117 159t163.5 92t191.5 31.5q133 0 231 -43t151.5 -120t69.5 -183q6 -37 6 -76q0 -74 -20 -156h-670q7 -108 78.5 -161.5t184.5 -61.5q34 -2 62 -1q42 0 69 3q141 16 235 59l33 -209q-187 -88 -383 -88h-17q-240 0 -392 139q-156 144 -156 392z M362 618h435v11q1 81 -55 121q-60 42 -150 43q-85 0 -149 -46t-81 -129z" />
<glyph unicode="f" horiz-adv-x="841" d="M43 782v203h186l2 125q0 98 24.5 172.5t68.5 120t102.5 72t131.5 31.5q21 1 43 1q52 0 105 -7q77 -11 160 -36l-28 -213q-60 22 -115 29q-23 4 -45 4q-31 0 -62 -6q-51 -11 -81.5 -55t-30.5 -119v-119h311v-203h-311v-782h-279v782h-182z" />
<glyph unicode="g" horiz-adv-x="1187" d="M78 479q0 110 29.5 198t80.5 147.5t122.5 99t153.5 56.5q73 15 156 15h19q206 0 420 -90v-954q0 -112 -29.5 -202t-81.5 -149t-122 -97t-152 -50q-50 -7 -104 -7q-33 0 -67 2q-89 8 -179.5 36t-176.5 74l37 221q51 -28 105.5 -50t113.5 -36.5t113 -18.5h23q41 0 80 10 q49 13 85 42t57 84t21 131v82q-112 -53 -219 -63q-24 -2 -46 -2q-80 0 -148 26q-87 34 -153 100t-102 168.5t-36 226.5zM362 481v-10q0 -90 34 -152q35 -66 94 -93q46 -20 102 -20q16 0 33 2q76 7 153 50v481q-83 21 -168 21q-239 0 -248 -279z" />
<glyph unicode="h" horiz-adv-x="1224" d="M133 0v1495h289v-614q92 129 293 129q202 0 295.5 -118t93.5 -321v-571h-289v571v14q1 89 -47 141q-52 56 -135 56h-6q-85 0 -144 -58q-61 -60 -61 -159v-565h-289z" />
<glyph unicode="i" horiz-adv-x="557" d="M111 1272q0 80 51 123q49 41 115 41h6q66 -2 114.5 -45.5t48.5 -118.5q0 -77 -47.5 -120.5t-113.5 -45.5h-6q-66 0 -116 42q-52 44 -52 124zM135 0v975h287v-975h-287z" />
<glyph unicode="j" horiz-adv-x="552" d="M-74 -516l8 213q34 -5 62 -5q69 0 98 30q41 43 41 165v1096h283l-2 -1100q0 -133 -34 -222t-97.5 -133t-154.5 -56q-30 -3 -62 -3q-66 0 -142 15zM106 1272q0 79 51 122q49 42 113 42h6q69 -2 117.5 -44.5t48.5 -119.5q0 -75 -46 -119t-111 -47h-9q-66 0 -116 41 q-54 44 -54 125z" />
<glyph unicode="k" horiz-adv-x="1146" d="M133 2v1495h285v-872h69q82 0 139.5 27.5t88.5 79.5t44 114t13 143h270v-30q0 -153 -46 -264q-52 -121 -189 -193l283 -471v-29h-289l-236 410q-41 -13 -82 -13h-65v-397h-285z" />
<glyph unicode="l" horiz-adv-x="632" d="M125 375v1124h283v-1124q0 -111 45 -145q29 -22 84 -21q30 0 67 6l10 -215q-83 -17 -154 -17q-26 1 -51 3q-91 8 -154 48t-96.5 125.5t-33.5 215.5z" />
<glyph unicode="m" horiz-adv-x="1851" d="M72 815v174q43 12 87 19q34 5 72 5h22q50 -2 87.5 -16.5t62.5 -51.5t25 -93q37 79 126 118.5t191 39.5q126 0 196 -44t106 -137q42 87 137.5 134t204.5 47q82 0 143.5 -23t99.5 -62t60.5 -96.5t30.5 -119.5q6 -50 6 -108v-30v-571h-289v571v16q0 86 -40 138 q-43 55 -115 55h-5q-77 -2 -129 -58.5t-53 -152.5v-569h-283v569q1 99 -45 156q-44 55 -120 55h-5q-81 -2 -137.5 -61t-56.5 -156v-563h-285v686q0 79 -15 104t-79 25z" />
<glyph unicode="n" horiz-adv-x="1257" d="M72 811v178q88 15 154 15q206 0 206 -148q38 79 127.5 116.5t188.5 37.5q102 0 178 -33.5t121.5 -94t67.5 -138.5t22 -173v-571h-289v571v13q0 88 -50 141q-54 57 -136 57q-86 0 -147.5 -58.5t-61.5 -158.5v-565h-287v682q0 37 -1 52t-5 34.5t-14.5 26t-28 11.5t-45.5 5z " />
<glyph unicode="o" horiz-adv-x="1193" d="M74 498q0 124 44 224.5t118 163t165.5 96t190.5 34.5h6q98 0 188 -32q93 -33 168.5 -95t120.5 -163.5t45 -227.5q0 -125 -44.5 -226t-118.5 -163.5t-165.5 -95.5t-191.5 -33t-193 33t-168 95.5t-120 163.5t-45 226zM358 498q0 -126 70 -197.5t166 -71.5h5q95 -1 165 69 q72 72 72 200q0 125 -69.5 195.5t-166.5 70.5q-98 0 -170 -70t-72 -196z" />
<glyph unicode="p" horiz-adv-x="1230" d="M74 993q56 12 108 13q5 1 11 1q46 0 92 -11q52 -12 83 -52.5t31 -107.5q39 88 125 134t187 46q139 0 242 -73.5t152.5 -188.5t49.5 -252q0 -115 -39.5 -214.5t-108.5 -166.5t-157 -104q-75 -32 -162 -32q-14 0 -28 1q-104 6 -205 57v-549h-287v1159q0 9 0.5 30t0 28 t-1.5 23.5t-3.5 22t-6.5 16.5t-11 15t-16.5 9t-23 6t-30.5 0zM446 281q75 -45 151 -51q14 -2 28 -2q59 0 107 24q59 28 96.5 93.5t37.5 156.5q0 68 -22.5 126t-73 97t-119.5 39q-93 -1 -148 -67t-57 -158v-258z" />
<glyph unicode="q" horiz-adv-x="1191" d="M76 500q0 112 30 202t81.5 149t124 98.5t152.5 56.5q77 16 163 16h10q183 0 426 -86v-1452h-287v549q-115 -53 -231 -53q-200 0 -334.5 146.5t-134.5 373.5zM365 500q0 -128 69 -201.5t174 -75.5q86 0 174 49v492q-56 18 -141 22h-10q-119 0 -191 -68q-75 -70 -75 -218z " />
<glyph unicode="r" horiz-adv-x="948" d="M72 817v176q59 14 117 17q9 0 18 -1q49 0 97 -9q57 -11 94.5 -49t43.5 -101q30 81 106 124.5t171 43.5h10q115 0 201 -64l-64 -239q-81 53 -174 53h-10q-99 0 -165 -61.5t-66 -171.5v-535h-281v696q0 71 -18 101q-14 23 -52 23q-12 0 -28 -3z" />
<glyph unicode="s" horiz-adv-x="1046" d="M72 301h286q0 -59 48 -89q45 -29 106 -28h8q72 0 120.5 26t49.5 87q0 23 -9 40t-19.5 26t-34 16t-36 9.5t-42.5 6.5q-177 24 -247 46q-181 56 -206 196q-4 24 -4 51q0 160 117 243t307 83q121 0 218 -34.5t156 -107.5q54 -67 54 -158v-16h-270q-1 51 -44 76t-110 25 q-64 0 -107.5 -27.5t-43.5 -75.5q0 -26 12 -44t36 -27t43 -12.5t50 -6.5q179 -22 242 -39q169 -45 210 -164q15 -44 15 -99v-7q-2 -85 -40 -149.5t-101.5 -101.5t-140 -55t-163.5 -18q-91 0 -166 15t-142.5 50t-107.5 102t-44 161z" />
<glyph unicode="t" horiz-adv-x="921" d="M43 788v197h207l31 307h229v-307h321v-215h-321v-383q0 -74 28 -119q29 -44 78 -58q34 -9 72 -10q17 0 34 2q57 6 122 29l26 -217q-106 -29 -198 -37q-29 -3 -56 -3q-61 0 -118 12q-83 18 -141.5 63t-93 129.5t-34.5 202.5v389z" />
<glyph unicode="u" horiz-adv-x="1239" d="M123 422v565h289v-565v-15q0 -90 44 -141q48 -55 126 -55h6q82 1 138 59q58 60 58 158v559h287v-690q0 -75 15 -99q13 -20 60 -20h17l2 -178q-60 -14 -116 -18q-17 -1 -33 -1q-40 1 -82 7q-58 10 -93.5 49t-35.5 106q-38 -80 -125.5 -118.5t-190.5 -38.5q-83 0 -147 22 t-105 60t-67 94.5t-36.5 119.5t-10.5 140z" />
<glyph unicode="v" horiz-adv-x="1122" d="M16 954v33h308l116 -268l119 -316h4l121 316l117 268h305v-33l-485 -968h-119z" />
<glyph unicode="w" horiz-adv-x="1574" d="M25 954v33h305l104 -289l76 -225h4l221 492h109l223 -492h6l74 225l96 289h309v-33l-409 -968h-109l-123 241l-123 260l-118 -268l-113 -233h-127z" />
<glyph unicode="x" horiz-adv-x="1077" d="M29 0v33l342 491l-293 432v31h274l88 -129l95 -166h6l92 168l86 127h293v-33l-303 -440l333 -481v-33h-276l-111 160l-110 188h-6l-117 -196l-107 -152h-286z" />
<glyph unicode="y" horiz-adv-x="1144" d="M14 954v33h301l134 -334l129 -364h6l112 362l119 336h291v-33l-418 -1050q-41 -105 -77.5 -175t-88.5 -128t-112 -81q-52 -21 -121 -21q-11 0 -23 1q-84 4 -190 43l30 199q63 -30 114 -30q12 0 24 2q59 9 98 53t68 129l36 102z" />
<glyph unicode="z" horiz-adv-x="980" d="M59 0v33l437 717h-406v237h813v-33l-430 -706h430v-248h-844z" />
<glyph unicode="{" horiz-adv-x="675" d="M68 526v211q35 2 58.5 17t34.5 40.5t15 52t4 62.5l2 385q0 63 11.5 111t28.5 80t49.5 54.5t60.5 34t78 17.5t84.5 7t95.5 1v-204q-69 2 -105 -22t-36 -89v-399q0 -89 -40 -157.5t-116 -96.5q156 -53 156 -262v-428q0 -67 36.5 -88t104.5 -13v-229q-65 0 -100.5 1t-86 7.5 t-77.5 18.5t-59 34.5t-47.5 56.5t-26.5 83.5t-11 115.5l-2 416q0 43 -8.5 81t-35 69.5t-68.5 31.5z" />
<glyph unicode="|" horiz-adv-x="567" d="M154 -178v1630h260v-1630h-260z" />
<glyph unicode="}" horiz-adv-x="675" d="M86 -160q68 -8 104.5 13t36.5 88v428q0 212 148 262q-75 28 -111.5 95.5t-36.5 158.5v399q0 65 -36 89t-105 22v204q61 0 95.5 -1t84.5 -7t78 -17.5t60.5 -34t49.5 -54.5t28.5 -80t11.5 -111l2 -385q0 -36 4 -62.5t15 -52t34.5 -40.5t58.5 -17v-211q-42 0 -68.5 -31.5 t-35 -69.5t-8.5 -81l-2 -416q0 -66 -11 -115.5t-26.5 -83.5t-47.5 -56.5t-59 -34.5t-77.5 -18.5t-86 -7.5t-100.5 -1v229z" />
<glyph unicode="~" horiz-adv-x="1273" d="M92 633q28 94 86.5 158.5t133 91t162 17.5t173.5 -56q111 -58 153 -70q126 -38 186 72q7 12 13 26q36 -16 94.5 -44.5t94.5 -45.5q-40 -106 -96 -169.5t-125.5 -84.5t-146.5 -10t-169 51q-16 7 -47 20.5t-48.5 21t-47 18t-48 13.5t-44 5.5t-44 -4t-39 -18t-37.5 -33 t-32 -51.5z" />
<glyph unicode="&#xa1;" horiz-adv-x="575" d="M119 846q0 68 47.5 111.5t120.5 43.5q70 0 119 -43.5t49 -111.5q0 -70 -48.5 -113t-119.5 -43q-73 0 -120.5 42.5t-47.5 113.5zM123 -463l18 1036h291l25 -1036h-334z" />
<glyph unicode="&#xa2;" horiz-adv-x="1224" d="M113 496q0 83 20 156t55.5 127.5t83.5 100t105 73t119.5 45.5t126.5 18t127 -10l53 151h121l-64 -186q104 -46 172.5 -132.5t91.5 -211.5l-266 -2q-25 61 -82 96l-170 -492q83 -13 155.5 27t100.5 127l271 -2q-14 -92 -57 -166.5t-103 -122t-135.5 -78t-154.5 -34.5 t-159 8l-51 -152h-129l64 187q-133 58 -214 178.5t-81 294.5zM395 496q0 -133 105 -217l164 483q-104 5 -186.5 -66.5t-82.5 -199.5z" />
<glyph unicode="&#xa3;" horiz-adv-x="1374" d="M98 623v192h144q-17 114 -9 204.5t43 160.5t85.5 120t119 82.5t143 48t158.5 17.5q215 3 430 -96l-92 -219q-175 79 -327 71q-142 -8 -216 -102.5t-40 -286.5h444v-192h-418q17 -134 -4 -228q-26 -93 -70 -149q45 25 107 28t113 -8t115 -23t102 -12q67 0 97.5 39 t23.5 148h237q29 -201 -42.5 -317.5t-256.5 -116.5q-47 0 -138.5 17t-166 32t-153.5 9t-121 -44h-295v27q95 88 135.5 178.5t42.5 204.5q3 87 -21 215h-170z" />
<glyph unicode="&#xa4;" horiz-adv-x="1163" d="M145 401l99 101q-43 76 -43 188q0 110 43 189l-99 98l144 141l98 -96q86 47 195 47q105 0 194 -47l96 96l146 -141l-100 -98q47 -77 47 -189q0 -107 -47 -190l100 -99l-146 -139l-96 96q-86 -47 -194 -47q-109 0 -195 47l-98 -96zM424 690q0 -81 46.5 -124.5t111.5 -43.5 t111 43.5t46 124.5t-46 125.5t-111 44.5t-111.5 -44.5t-46.5 -125.5z" />
<glyph unicode="&#xa5;" horiz-adv-x="1275" d="M70 1391v43h327l244 -570l240 570h325v-43l-362 -709h217v-168h-275v-102h275v-168h-275v-244h-299v244h-272v168h272v102h-272v168h215z" />
<glyph unicode="&#xa6;" horiz-adv-x="571" d="M156 -43v668h260v-668h-260zM156 793v659h260v-659h-260z" />
<glyph unicode="&#xa7;" horiz-adv-x="1325" d="M104 76q49 0 141 1t140 1q4 -78 89.5 -120.5t189.5 -37.5q63 0 121 15.5t99.5 51t41.5 83.5q0 22 -6.5 41t-15.5 33t-26 26t-31.5 20t-39 14.5t-40 10.5t-44.5 7.5t-43 4.5t-43.5 3t-38.5 3q-96 6 -174.5 26t-147.5 58t-109 103.5t-42 154.5q0 165 162 261 q-160 85 -160 251q0 93 44 167.5t117.5 120.5t165 70.5t191.5 24.5q98 0 189.5 -23.5t167.5 -68t121.5 -118.5t45.5 -166h-276q-4 75 -74 110t-168 35q-41 0 -79 -7t-74.5 -22.5t-59 -45.5t-22.5 -72q0 -36 17.5 -60.5t56 -39t78.5 -22t106 -14.5q61 -6 107 -12t99.5 -16 t93.5 -24t80.5 -33t68.5 -46t51 -60.5t34 -78t11 -98.5q-3 -156 -142 -256q142 -86 142 -262q0 -91 -48 -164.5t-128 -118.5t-176 -69.5t-199 -26.5q-85 0 -165 14t-153 44.5t-127 75t-86.5 109t-32.5 142.5zM397 604q4 -77 66.5 -115t185.5 -51q18 -2 58.5 -4.5t70.5 -6 t56 -9.5q52 24 84 66t32 94q0 149 -325 170q-55 3 -105 12q-58 -26 -91 -66.5t-32 -89.5z" />
<glyph unicode="&#xa8;" horiz-adv-x="1220" d="M152 1311q0 66 46.5 106.5t114.5 40.5q69 0 116.5 -40.5t47.5 -106.5t-47.5 -107t-116.5 -41q-68 0 -114.5 41t-46.5 107zM696 1311q0 66 46.5 106.5t115.5 40.5t115.5 -40.5t46.5 -106.5t-46.5 -107t-115.5 -41t-115.5 41t-46.5 107z" />
<glyph unicode="&#xa9;" horiz-adv-x="1611" d="M102 711q0 171 60.5 309t159.5 223t225.5 131t258 46t258 -46t225.5 -131t159.5 -223t60.5 -309q0 -137 -39.5 -254t-107 -199t-157.5 -141t-191.5 -86.5t-208 -28t-208 27t-191.5 86t-157.5 140.5t-107 199.5t-39.5 255.5zM309 711q0 -128 42.5 -231t112.5 -166.5 t159.5 -97.5t182.5 -34t182.5 34.5t159.5 98t112.5 166.5t42.5 230q0 168 -73.5 292t-184 179.5t-239.5 55.5t-239.5 -55.5t-184 -179.5t-73.5 -292zM485 709q0 76 25 139t66 103.5t94.5 65t110.5 30t113 -8t102.5 -44t80 -82.5t43.5 -119l-166 -2q-14 42 -48.5 67t-74.5 25 t-77.5 -16.5t-62.5 -58.5t-25 -99q0 -51 22.5 -92t58 -60.5t74.5 -21.5t76 24.5t59 77.5l168 -2q-10 -67 -43.5 -120t-80.5 -84.5t-103.5 -46t-113.5 -10t-111 28.5t-95.5 64t-66.5 103t-25 139z" />
<glyph unicode="&#xaa;" horiz-adv-x="1026" d="M125 926q-8 83 33 144.5t108.5 90.5t149.5 29q111 -4 182 -47v31q0 42 -29.5 68.5t-65.5 35t-79 8.5q-121 0 -199 -41l-28 146q116 55 262 55q73 0 134.5 -14.5t113 -45.5t81 -87t29.5 -132v-260q0 -22 1.5 -33.5t7.5 -23t20 -16t37 -3.5v-116q-39 -9 -76 -11.5t-76.5 3 t-64.5 29.5t-27 65v20q-32 -59 -99 -86.5t-147 -27.5q-111 0 -184 53t-84 166zM178 395v180h682v-180h-682zM340 946q1 -40 27.5 -61t70.5 -21q57 0 105 27.5t55 79.5v39q-62 39 -147 39q-54 -4 -85 -33t-26 -70z" />
<glyph unicode="&#xab;" horiz-adv-x="1079" d="M90 709l309 499l162 -65l-201 -434l201 -428l-162 -68zM496 709l309 499l162 -65l-201 -434l201 -428l-162 -68z" />
<glyph unicode="&#xac;" horiz-adv-x="1179" d="M131 565v246h899v-559h-229v313h-670z" />
<glyph unicode="&#xad;" horiz-adv-x="964" d="M125 559v246h715v-246h-715z" />
<glyph unicode="&#xae;" horiz-adv-x="1611" d="M102 717q0 171 60.5 309t159.5 223t225.5 131t258 46t258 -46t225.5 -131t159.5 -223t60.5 -309q0 -137 -39.5 -254t-107 -199t-157.5 -141t-191.5 -86.5t-208 -28t-208 27t-191.5 86t-157.5 140.5t-107 199.5t-39.5 255.5zM311 717q0 -128 42.5 -231t112.5 -166.5 t159 -97.5t182 -34t182 34.5t159 98t112.5 166.5t42.5 230t-42.5 230.5t-112.5 167t-159 97.5t-182 34t-182 -34t-159 -97.5t-112.5 -167t-42.5 -230.5zM561 387v666h295q110 0 180 -61.5t70 -170.5q0 -66 -32.5 -119.5t-92.5 -72.5l141 -211v-31h-174l-133 217h-84v-217 h-170zM731 741h109q42 0 69 23t27 59q0 37 -25 59.5t-71 22.5h-109v-164z" />
<glyph unicode="&#xaf;" horiz-adv-x="1021" d="M178 1210v220h656v-220h-656z" />
<glyph unicode="&#xb0;" horiz-adv-x="915" d="M90 1114q0 83 31.5 150t83.5 108.5t118 64t134.5 22.5t134.5 -22.5t118 -64t83.5 -108.5t31.5 -150t-31.5 -150t-83.5 -108.5t-118 -64t-134.5 -22.5t-134.5 22.5t-118 64t-83.5 108.5t-31.5 150zM299 1114q0 -43 17.5 -77.5t45 -52t60.5 -25.5t66.5 0t61 25.5t45 52 t17.5 77.5q0 50 -23 87t-58 54t-75.5 17t-75.5 -17t-58 -54t-23 -87z" />
<glyph unicode="&#xb1;" horiz-adv-x="1052" d="M139 33v231h774v-231h-774zM141 631v233h271v266h227v-266h274v-233h-274v-262h-227v262h-271z" />
<glyph unicode="&#xb2;" horiz-adv-x="854" d="M121 655v47l338 445q43 52 50.5 101t-20 79.5t-81.5 30.5q-43 0 -69 -25.5t-28 -68.5h-180q-2 134 72.5 208t210.5 74q85 0 150 -29.5t99 -78t45.5 -107.5t-4.5 -122t-57 -117l-196 -246h272v-191h-602z" />
<glyph unicode="&#xb3;" horiz-adv-x="821" d="M92 922h193q1 -42 35.5 -68.5t85.5 -26.5q52 0 84 33.5t32 79.5q0 48 -20 77t-52.5 37.5t-73 10.5t-81.5 -4v29l149 266h-315v176h586v-31l-172 -297q102 -23 146 -94.5t44 -167.5q0 -56 -21 -109.5t-60.5 -97t-102.5 -70t-141 -26.5q-133 0 -222.5 77.5t-93.5 205.5z " />
<glyph unicode="&#xb4;" horiz-adv-x="620" d="M102 1133v26l154 320l262 -97v-24l-182 -225h-234z" />
<glyph unicode="&#xb5;" horiz-adv-x="1198" d="M145 -512v1501h273v-581q1 -96 52.5 -148.5t135.5 -54.5q86 0 147.5 59.5t61.5 157.5v567h275v-989h-275v139q-19 -69 -72.5 -109t-128.5 -40q-73 0 -118 25.5t-78 82.5v-610h-273z" />
<glyph unicode="&#xb6;" horiz-adv-x="1587" d="M72.5 992.5q8.5 87.5 49 166.5t99.5 140t152 97t205 36h831v-1874h-285v1613h-297v-1613h-276v807q-102 3 -188.5 41t-143 100.5t-96.5 142.5t-49.5 168t-1 175.5z" />
<glyph unicode="&#xb7;" horiz-adv-x="569" d="M115 735q0 71 48.5 114.5t121.5 43.5t121.5 -43.5t48.5 -114.5t-48.5 -114t-121.5 -43t-121.5 43t-48.5 114z" />
<glyph unicode="&#xb8;" horiz-adv-x="802" d="M164 -424l16 158q29 -23 81.5 -36t101 -4.5t59.5 42.5q15 49 -39 76.5t-111 27.5l52 189h211l-31 -125q96 -11 133 -86.5t10 -157.5q-31 -85 -119.5 -121.5t-187.5 -23.5t-176 61z" />
<glyph unicode="&#xb9;" horiz-adv-x="733" d="M119 655v174h149v531h-131v172h346v-703h152v-174h-516z" />
<glyph unicode="&#xba;" horiz-adv-x="1105" d="M119 1092q0 96 37 174t97.5 126t137.5 74t158 26t158 -26t137.5 -74t97.5 -126t37 -174q0 -97 -37 -175t-97.5 -126.5t-137.5 -74.5t-158 -26t-158 26t-137.5 74.5t-97.5 126.5t-37 175zM131 328v225h850v-225h-850zM358 1094q0 -54 21 -97t55 -65t74.5 -32t81.5 0t75 32 t55 65t21 97t-21 96.5t-55 64t-74.5 32t-81.5 0t-75 -32t-55 -64t-21 -96.5z" />
<glyph unicode="&#xbb;" horiz-adv-x="1079" d="M113 281l200 428l-200 434l161 65l310 -499l-310 -496zM518 281l201 428l-201 434l162 65l309 -499l-309 -496z" />
<glyph unicode="&#xbc;" horiz-adv-x="1966" d="M94 580v170h150v528h-129v170h342v-698h149v-170h-512zM514 2l692 1432h254l-692 -1432h-254zM1190 164v96l385 617h233v-533h82v-180h-82v-164h-202v164h-416zM1436 336h184v143q3 25 6 90.5t6 89.5h-2z" />
<glyph unicode="&#xbd;" horiz-adv-x="1994" d="M94 571v172h150v533h-129v172h344v-705h151v-172h-516zM518 2l692 1432h254l-692 -1432h-254zM1307 0v47l338 445q43 52 50 101t-20.5 79t-81.5 30q-43 0 -68.5 -25.5t-27.5 -68.5h-180q-2 134 72 208.5t210 74.5q71 0 129 -21t93.5 -56.5t56 -82t21.5 -96.5t-15.5 -102 t-50.5 -97l-197 -246h273v-190h-602z" />
<glyph unicode="&#xbe;" horiz-adv-x="2009" d="M76 834h192q1 -42 35.5 -68.5t85.5 -26.5q52 0 84.5 33.5t32.5 79.5q0 48 -20 77t-52.5 37.5t-73 10.5t-81.5 -4v28l149 267h-315v176h585v-31l-172 -297q102 -23 146.5 -94.5t44.5 -167.5q0 -56 -21 -109.5t-60.5 -97t-103 -70t-141.5 -26.5q-133 0 -222 77.5t-93 205.5 zM557 2l692 1432h254l-692 -1432h-254zM1233 164v96l385 617h233v-533h82v-180h-82v-164h-202v164h-416zM1479 336h184v143q3 25 6 76t6 76h-2z" />
<glyph unicode="&#xbf;" horiz-adv-x="1038" d="M72 -49q0 52 17.5 101.5t46 90.5t62.5 82t68.5 83t63 85.5t46 98.5t17.5 114h271q0 -91 -20.5 -163t-54 -122t-69 -90t-74 -88.5t-59.5 -95.5q-19 -41 -19.5 -84t15.5 -79t55 -58.5t94 -22.5q73 0 129.5 42.5t63.5 117.5h252q0 -106 -35 -189t-97 -135t-142 -80t-173 -30 t-175.5 24t-145.5 77.5t-100 134t-37 186.5zM358 862q0 69 47 112.5t119 43.5q73 0 121.5 -44t48.5 -112q0 -71 -48.5 -114t-121.5 -43t-119.5 43t-46.5 114z" />
<glyph unicode="&#xc0;" horiz-adv-x="1433" d="M-12 0v41l659 1405h141l656 -1405v-41h-318l-112 238h-596l-111 -238h-319zM410 1786v24l262 97l153 -320v-26h-233zM518 496h397l-198 473z" />
<glyph unicode="&#xc1;" horiz-adv-x="1433" d="M-12 0v41l659 1405h141l656 -1405v-41h-318l-112 238h-596l-111 -238h-319zM518 496h397l-198 473zM596 1565v26l154 320l262 -96v-25l-183 -225h-233z" />
<glyph unicode="&#xc2;" horiz-adv-x="1433" d="M-12 0v41l659 1405h141l656 -1405v-41h-318l-112 238h-596l-111 -238h-319zM285 1522v28l293 303h286l291 -305v-26h-272l-162 159l-160 -159h-276zM518 496h397l-198 473z" />
<glyph unicode="&#xc3;" horiz-adv-x="1433" d="M-12 0v41l659 1405h141l656 -1405v-41h-318l-112 238h-596l-111 -238h-319zM334 1616q61 153 161 199t244 -23q25 -14 45.5 -23t47 -15.5t47.5 -3t41 20.5t32 48q28 -13 75 -35t75 -35q-42 -142 -149.5 -196t-235.5 10q-33 17 -51.5 25.5t-49 17.5t-50.5 5.5t-42 -20 t-37 -49.5zM518 496h397l-198 473z" />
<glyph unicode="&#xc4;" horiz-adv-x="1433" d="M-12 0v41l659 1405h141l656 -1405v-41h-318l-112 238h-596l-111 -238h-319zM283 1665q0 66 46.5 106.5t114.5 40.5q69 0 116.5 -40.5t47.5 -106.5t-47.5 -106.5t-116.5 -40.5q-68 0 -114.5 40.5t-46.5 106.5zM518 496h397l-198 473zM827 1665q0 66 46.5 106.5t115.5 40.5 t115.5 -40.5t46.5 -106.5t-46.5 -106.5t-115.5 -40.5t-115.5 40.5t-46.5 106.5z" />
<glyph unicode="&#xc5;" horiz-adv-x="1439" d="M-8 0v41l643 1370q-86 22 -140.5 83.5t-54.5 160.5q0 61 23.5 110.5t62 80t88 47t101 16.5t101 -16.5t88 -47t62 -80t23.5 -110.5q0 -94 -50.5 -154.5t-131.5 -85.5l641 -1374v-41h-318l-112 238h-596l-111 -238h-319zM522 496h398l-199 448zM606 1655q0 -47 34 -74 t74.5 -27t74.5 27t34 74q0 37 -22.5 62.5t-54.5 31.5t-63.5 0t-54 -31.5t-22.5 -62.5z" />
<glyph unicode="&#xc6;" horiz-adv-x="1687" d="M-10 0v45l667 1385h902v-263h-498v-297h465v-254h-465v-354h520v-262h-782v346h-359l-155 -346h-295zM535 596h264l12 571h-4z" />
<glyph unicode="&#xc7;" horiz-adv-x="1560" d="M88 715q0 173 61.5 315.5t164 233t233.5 138.5t274 46q112 0 217 -30.5t197 -91t158 -160.5t90 -228h-297q-91 233 -365 233q-190 0 -307 -126t-117 -330q0 -123 51.5 -225.5t148.5 -164t222 -61.5q138 0 237.5 65.5t135.5 192.5h295q-20 -117 -71.5 -212t-125 -158 t-160 -102t-184.5 -54l-26 -109q98 -11 134.5 -77t10.5 -156q-21 -66 -79 -103.5t-128.5 -43t-144.5 10.5t-131 52l16 158q45 -37 126.5 -38t102.5 48q8 27 -3.5 47t-35.5 30t-49 14.5t-49 4.5l41 158q-130 13 -245.5 67t-204.5 144t-141 222.5t-52 289.5z" />
<glyph unicode="&#xc8;" horiz-adv-x="1171" d="M166 0v1434h878v-269h-569v-291h533v-268h-533v-327h586v-279h-895zM340 1786v24l262 97l154 -320v-26h-234z" />
<glyph unicode="&#xc9;" horiz-adv-x="1171" d="M166 0v1434h878v-269h-569v-291h533v-268h-533v-327h586v-279h-895zM477 1573v26l154 320l262 -96v-25l-182 -225h-234z" />
<glyph unicode="&#xca;" horiz-adv-x="1171" d="M166 0v1434h878v-269h-569v-291h533v-268h-533v-327h586v-279h-895zM203 1563v26l278 299h275l278 -301v-24h-260l-156 155l-151 -155h-264z" />
<glyph unicode="&#xcb;" horiz-adv-x="1171" d="M166 0v1434h878v-269h-569v-291h533v-268h-533v-327h586v-279h-895zM172 1706q0 66 47 106.5t115 40.5q69 0 116.5 -40.5t47.5 -106.5t-47.5 -106.5t-116.5 -40.5q-68 0 -115 40.5t-47 106.5zM717 1706q0 66 46.5 106.5t115.5 40.5t115 -40.5t46 -106.5t-46 -106.5 t-115 -40.5t-115.5 40.5t-46.5 106.5z" />
<glyph unicode="&#xcc;" horiz-adv-x="897" d="M92 0v244h203v952h-186v238h679v-238h-186v-952h203v-244h-713zM150 1796v25l262 96l153 -320v-26h-233z" />
<glyph unicode="&#xcd;" horiz-adv-x="897" d="M92 0v244h203v952h-186v238h679v-238h-186v-952h203v-244h-713zM307 1567v26l154 320l262 -96v-25l-182 -225h-234z" />
<glyph unicode="&#xce;" horiz-adv-x="897" d="M41 1573v29l281 294h274l278 -297v-26h-262l-153 156l-154 -156h-264zM92 0v244h203v952h-186v238h679v-238h-186v-952h203v-244h-713z" />
<glyph unicode="&#xcf;" horiz-adv-x="897" d="M25 1712q0 66 46.5 107t114.5 41q69 0 116.5 -41t47.5 -107t-47.5 -106.5t-116.5 -40.5q-68 0 -114.5 40.5t-46.5 106.5zM92 0v244h203v952h-186v238h679v-238h-186v-952h203v-244h-713zM569 1712q0 66 46.5 107t115.5 41t115.5 -41t46.5 -107t-46.5 -106.5t-115.5 -40.5 t-115.5 40.5t-46.5 106.5z" />
<glyph unicode="&#xd0;" horiz-adv-x="1509" d="M31 586v239h155v607h533q166 0 301.5 -59.5t221.5 -159.5t132.5 -226.5t46.5 -265.5q2 -111 -25.5 -216t-86 -196.5t-141 -160.5t-198.5 -108.5t-251 -39.5h-533v586h-155zM492 276h223q127 0 220 64t137 162.5t44 216.5q0 117 -45 214.5t-138 159.5t-218 62h-223v-330 h229v-239h-229v-310z" />
<glyph unicode="&#xd1;" horiz-adv-x="1540" d="M166 0v1440h96l805 -819v813h307v-1438h-92l-811 823v-819h-305zM326 1610q61 153 161 199t244 -23q25 -14 45 -23t47 -15.5t48 -3.5t41 20t32 48q28 -12 75.5 -34t74.5 -35q-42 -142 -149.5 -196.5t-235.5 9.5q-28 15 -42.5 22t-41 17t-43.5 10t-37.5 -4t-36.5 -21 t-29 -44z" />
<glyph unicode="&#xd2;" horiz-adv-x="1636" d="M86 717q0 175 61 318t164 233.5t234 139t276 48.5q113 0 219.5 -30t199 -92t161.5 -148.5t109 -207.5t40 -261q0 -161 -54 -299.5t-150 -235.5t-233 -152t-298 -55q-145 0 -275.5 49t-232 140t-161.5 234t-60 319zM395 717q0 -114 34 -203.5t92.5 -145t134.5 -84 t163 -28.5q85 0 160.5 28.5t135.5 84t95 145t35 203.5q0 111 -34.5 199.5t-94 144t-135 84.5t-160.5 29q-86 0 -162 -29.5t-135.5 -85t-94 -144t-34.5 -198.5zM516 1804v25l285 94l168 -311v-25h-254z" />
<glyph unicode="&#xd3;" horiz-adv-x="1636" d="M86 717q0 175 61 318t164 233.5t234 139t276 48.5q113 0 219.5 -30t199 -92t161.5 -148.5t109 -207.5t40 -261q0 -161 -54 -299.5t-150 -235.5t-233 -152t-298 -55q-145 0 -275.5 49t-232 140t-161.5 234t-60 319zM395 717q0 -114 34 -203.5t92.5 -145t134.5 -84 t163 -28.5q85 0 160.5 28.5t135.5 84t95 145t35 203.5q0 111 -34.5 199.5t-94 144t-135 84.5t-160.5 29q-86 0 -162 -29.5t-135.5 -85t-94 -144t-34.5 -198.5zM666 1604v26l168 316l284 -95v-24l-196 -223h-256z" />
<glyph unicode="&#xd4;" horiz-adv-x="1636" d="M86 717q0 175 61 318t164 233.5t234 139t276 48.5q113 0 219.5 -30t199 -92t161.5 -148.5t109 -207.5t40 -261q0 -161 -54 -299.5t-150 -235.5t-233 -152t-298 -55q-145 0 -275.5 49t-232 140t-161.5 234t-60 319zM371 1563v28l293 303h286l291 -305v-26h-272l-162 159 l-160 -159h-276zM395 717q0 -114 34 -203.5t92.5 -145t134.5 -84t163 -28.5q85 0 160.5 28.5t135.5 84t95 145t35 203.5q0 111 -34.5 199.5t-94 144t-135 84.5t-160.5 29q-86 0 -162 -29.5t-135.5 -85t-94 -144t-34.5 -198.5z" />
<glyph unicode="&#xd5;" horiz-adv-x="1636" d="M86 717q0 175 61 318t164 233.5t234 139t276 48.5q113 0 219.5 -30t199 -92t161.5 -148.5t109 -207.5t40 -261q0 -161 -54 -299.5t-150 -235.5t-233 -152t-298 -55q-145 0 -275.5 49t-232 140t-161.5 234t-60 319zM395 717q0 -114 34 -203.5t92.5 -145t134.5 -84 t163 -28.5q85 0 160.5 28.5t135.5 84t95 145t35 203.5q0 111 -34.5 199.5t-94 144t-135 84.5t-160.5 29q-86 0 -162 -29.5t-135.5 -85t-94 -144t-34.5 -198.5zM434 1655q61 152 161.5 198.5t244.5 -22.5q25 -14 45.5 -23t47 -15.5t47.5 -3t41 20.5t32 48q28 -12 74.5 -35 t74.5 -35q-42 -142 -149.5 -196t-235.5 10q-33 17 -51 25.5t-48.5 17.5t-50.5 5.5t-42 -20t-37 -49.5z" />
<glyph unicode="&#xd6;" horiz-adv-x="1636" d="M86 717q0 175 61 318t164 233.5t234 139t276 48.5q113 0 219.5 -30t199 -92t161.5 -148.5t109 -207.5t40 -261q0 -161 -54 -299.5t-150 -235.5t-233 -152t-298 -55q-145 0 -275.5 49t-232 140t-161.5 234t-60 319zM395 717q0 -114 34 -203.5t92.5 -145t134.5 -84 t163 -28.5q85 0 160.5 28.5t135.5 84t95 145t35 203.5q0 111 -34.5 199.5t-94 144t-135 84.5t-160.5 29q-86 0 -162 -29.5t-135.5 -85t-94 -144t-34.5 -198.5zM401 1716q0 66 47 107t115 41q69 0 116.5 -41t47.5 -107t-47.5 -106.5t-116.5 -40.5q-68 0 -115 40.5t-47 106.5z M946 1716q0 66 46.5 107t115.5 41t115.5 -41t46.5 -107t-46.5 -106.5t-115.5 -40.5t-115.5 40.5t-46.5 106.5z" />
<glyph unicode="&#xd7;" horiz-adv-x="976" d="M115 911l172 174l202 -200l201 196l170 -170l-198 -200l200 -201l-174 -172l-199 199l-198 -197l-174 172l198 199z" />
<glyph unicode="&#xd8;" horiz-adv-x="1630" d="M86 717q0 175 61 318t163.5 233.5t233 139t273.5 48.5q147 0 270 -49l82 141h289v-28l-147 -246q233 -206 233 -557q0 -175 -61 -318.5t-163.5 -234.5t-233 -140t-273.5 -49q-134 0 -250 45l-86 -143l-143 -1q-144 0 -144 1v31l144 239q-116 97 -182 241t-66 329z M393 717q0 -192 115 -307l436 733q-64 22 -127 22q-84 0 -160.5 -30t-135 -85.5t-93.5 -142t-35 -190.5zM707 287q52 -21 112 -21q83 0 159 31t134 87t92.5 142.5t34.5 190.5q0 179 -104 291z" />
<glyph unicode="&#xd9;" horiz-adv-x="1447" d="M154 477v957h307v-951q0 -110 76.5 -170.5t189.5 -60.5q112 0 188 60.5t76 170.5v951h303v-957q0 -117 -46 -212.5t-124.5 -156.5t-180 -93.5t-216.5 -32.5t-217.5 32.5t-182.5 93.5t-126.5 156.5t-46.5 212.5zM449 1792v25l262 96l153 -320v-26h-233z" />
<glyph unicode="&#xda;" horiz-adv-x="1447" d="M154 477v957h307v-951q0 -110 76.5 -170.5t189.5 -60.5q112 0 188 60.5t76 170.5v951h303v-957q0 -117 -46 -212.5t-124.5 -156.5t-180 -93.5t-216.5 -32.5t-217.5 32.5t-182.5 93.5t-126.5 156.5t-46.5 212.5zM584 1565v26l153 320l262 -96v-25l-182 -225h-233z" />
<glyph unicode="&#xdb;" horiz-adv-x="1447" d="M154 477v957h307v-951q0 -110 76.5 -170.5t189.5 -60.5q112 0 188 60.5t76 170.5v951h303v-957q0 -117 -46 -212.5t-124.5 -156.5t-180 -93.5t-216.5 -32.5t-217.5 32.5t-182.5 93.5t-126.5 156.5t-46.5 212.5zM293 1583v29l293 303h286l291 -305v-27h-272l-162 160 l-160 -160h-276z" />
<glyph unicode="&#xdc;" horiz-adv-x="1447" d="M154 477v957h307v-951q0 -110 76.5 -170.5t189.5 -60.5q112 0 188 60.5t76 170.5v951h303v-957q0 -117 -46 -212.5t-124.5 -156.5t-180 -93.5t-216.5 -32.5t-217.5 32.5t-182.5 93.5t-126.5 156.5t-46.5 212.5zM283 1702q0 66 46.5 106.5t114.5 40.5q69 0 116.5 -40.5 t47.5 -106.5t-47.5 -107t-116.5 -41q-68 0 -114.5 41t-46.5 107zM827 1702q0 66 46.5 106.5t115.5 40.5t115.5 -40.5t46.5 -106.5t-46.5 -107t-115.5 -41t-115.5 41t-46.5 107z" />
<glyph unicode="&#xdd;" horiz-adv-x="1300" d="M4 1389v45h330l178 -306l135 -274h10l142 285l172 295h325v-45l-491 -816v-573h-307v573zM514 1581v27l154 319l262 -96v-25l-182 -225h-234z" />
<glyph unicode="&#xde;" horiz-adv-x="1355" d="M166 0v1434h307v-187h307q121 0 220 -43.5t161 -117.5t95.5 -167t33.5 -196q-2 -101 -36 -192.5t-96 -163t-160 -114t-218 -42.5h-307v-211h-307zM469 473h311q94 0 154.5 76.5t60.5 181.5t-58 179.5t-157 74.5h-311v-512z" />
<glyph unicode="&#xdf;" horiz-adv-x="1255" d="M133 0v1012q0 98 27 173.5t70 123.5t109 78t129.5 42.5t147.5 12t147.5 -7t145 -22.5t124.5 -26.5t100 -25.5v-51l-240 -465q77 -12 134 -49.5t89 -91.5t47 -115t15 -129q0 -137 -45.5 -241t-126 -160t-191 -70t-240.5 30v226q138 -38 226 30t88 185q0 86 -47 138.5 t-117 67.5t-156 3v53l217 459q-71 26 -136.5 28t-117 -20t-82 -72.5t-30.5 -122.5v-24.5t-0.5 -74.5t-1 -150.5t-0.5 -289.5v-454h-285z" />
<glyph unicode="&#xe0;" d="M66 291q-5 117 46.5 199t137.5 119.5t199 37.5q163 0 262 -63v67q0 35 -16.5 61t-41.5 41t-59.5 24.5t-65 12.5t-63.5 3q-178 0 -285 -60l-37 205q157 74 371 74q101 0 182 -18t148 -59t104 -115t37 -177v-356q0 -34 0.5 -47t5 -34.5t13.5 -28.5t27 -13t46 -4l2 -160 q-48 -11 -90.5 -14t-84.5 3t-71.5 23.5t-48 53t-18.5 86.5q-41 -86 -138 -128t-204 -42q-143 0 -248.5 85.5t-109.5 223.5zM305 1374v23l240 88l141 -293v-25h-215zM346 309q4 -51 43 -78.5t92 -27.5q80 0 148.5 39.5t75.5 111.5v52q-83 57 -205 57q-72 -5 -116.5 -45 t-37.5 -109z" />
<glyph unicode="&#xe1;" d="M66 291q-5 117 46.5 199t137.5 119.5t199 37.5q163 0 262 -63v67q0 35 -16.5 61t-41.5 41t-59.5 24.5t-65 12.5t-63.5 3q-178 0 -285 -60l-37 205q157 74 371 74q101 0 182 -18t148 -59t104 -115t37 -177v-356q0 -34 0.5 -47t5 -34.5t13.5 -28.5t27 -13t46 -4l2 -160 q-48 -11 -90.5 -14t-84.5 3t-71.5 23.5t-48 53t-18.5 86.5q-41 -86 -138 -128t-204 -42q-143 0 -248.5 85.5t-109.5 223.5zM346 309q4 -51 43 -78.5t92 -27.5q80 0 148.5 39.5t75.5 111.5v52q-83 57 -205 57q-72 -5 -116.5 -45t-37.5 -109zM418 1157v27l145 299l246 -90v-23 l-172 -213h-219z" />
<glyph unicode="&#xe2;" d="M66 291q-5 117 46.5 199t137.5 119.5t199 37.5q163 0 262 -63v67q0 35 -16.5 61t-41.5 41t-59.5 24.5t-65 12.5t-63.5 3q-178 0 -285 -60l-37 205q157 74 371 74q101 0 182 -18t148 -59t104 -115t37 -177v-356q0 -34 0.5 -47t5 -34.5t13.5 -28.5t27 -13t46 -4l2 -160 q-48 -11 -90.5 -14t-84.5 3t-71.5 23.5t-48 53t-18.5 86.5q-41 -86 -138 -128t-204 -42q-143 0 -248.5 85.5t-109.5 223.5zM158 1157v27l252 280h245l248 -282v-25h-233l-138 148l-137 -148h-237zM346 309q4 -51 43 -78.5t92 -27.5q80 0 148.5 39.5t75.5 111.5v52 q-83 57 -205 57q-72 -5 -116.5 -45t-37.5 -109z" />
<glyph unicode="&#xe3;" d="M66 291q-5 117 46.5 199t137.5 119.5t199 37.5q163 0 262 -63v67q0 35 -16.5 61t-41.5 41t-59.5 24.5t-65 12.5t-63.5 3q-178 0 -285 -60l-37 205q157 74 371 74q101 0 182 -18t148 -59t104 -115t37 -177v-356q0 -34 0.5 -47t5 -34.5t13.5 -28.5t27 -13t46 -4l2 -160 q-48 -11 -90.5 -14t-84.5 3t-71.5 23.5t-48 53t-18.5 86.5q-41 -86 -138 -128t-204 -42q-143 0 -248.5 85.5t-109.5 223.5zM184 1262q117 294 377 163q81 -36 116 -37q58 1 83 64l139 -66q-37 -131 -138 -182t-220 8q-35 20 -59.5 30t-55.5 15t-56 -11t-42 -52 q-19 8 -68.5 33t-75.5 35zM346 309q4 -51 43 -78.5t92 -27.5q80 0 148.5 39.5t75.5 111.5v52q-83 57 -205 57q-72 -5 -116.5 -45t-37.5 -109z" />
<glyph unicode="&#xe4;" d="M66 291q-5 117 46.5 199t137.5 119.5t199 37.5q163 0 262 -63v67q0 35 -16.5 61t-41.5 41t-59.5 24.5t-65 12.5t-63.5 3q-178 0 -285 -60l-37 205q157 74 371 74q101 0 182 -18t148 -59t104 -115t37 -177v-356q0 -34 0.5 -47t5 -34.5t13.5 -28.5t27 -13t46 -4l2 -160 q-48 -11 -90.5 -14t-84.5 3t-71.5 23.5t-48 53t-18.5 86.5q-41 -86 -138 -128t-204 -42q-143 0 -248.5 85.5t-109.5 223.5zM141 1311q0 66 47 106.5t115 40.5q69 0 116.5 -40.5t47.5 -106.5t-47.5 -107t-116.5 -41q-68 0 -115 41t-47 107zM346 309q4 -51 43 -78.5t92 -27.5 q80 0 148.5 39.5t75.5 111.5v52q-83 57 -205 57q-72 -5 -116.5 -45t-37.5 -109zM614 1311q0 66 46.5 106.5t115.5 40.5t115.5 -40.5t46.5 -106.5t-46.5 -107t-115.5 -41t-115.5 41t-46.5 107z" />
<glyph unicode="&#xe5;" d="M66 291q-5 117 46.5 199t137.5 119.5t199 37.5q163 0 262 -63v67q0 35 -16.5 61t-41.5 41t-59.5 24.5t-65 12.5t-63.5 3q-178 0 -285 -60l-37 205q157 74 371 74q101 0 182 -18t148 -59t104 -115t37 -177v-356q0 -34 0.5 -47t5 -34.5t13.5 -28.5t27 -13t46 -4l2 -160 q-48 -11 -90.5 -14t-84.5 3t-71.5 23.5t-48 53t-18.5 86.5q-41 -86 -138 -128t-204 -42q-143 0 -248.5 85.5t-109.5 223.5zM303 1329q0 68 37.5 118t93.5 72.5t122 22.5t122 -22.5t93.5 -72.5t37.5 -118q0 -69 -37.5 -119t-93.5 -73t-122 -23t-122 23t-93.5 73t-37.5 119z M346 309q4 -51 43 -78.5t92 -27.5q80 0 148.5 39.5t75.5 111.5v52q-83 57 -205 57q-72 -5 -116.5 -45t-37.5 -109zM457 1329q0 -39 31.5 -61t68.5 -22t68.5 22t31.5 61q0 32 -20.5 53.5t-50 26.5t-59 0t-50 -26.5t-20.5 -53.5z" />
<glyph unicode="&#xe6;" horiz-adv-x="1650" d="M63 287q-4 149 76 238t217 110q55 9 113 6q142 -11 229 -63v55q0 44 -24.5 77t-64 50t-79.5 25t-81 8q-151 0 -273 -64l-35 201q149 78 361 78q121 0 212.5 -43.5t121.5 -137.5q41 87 130.5 134t192.5 47q84 0 153.5 -21.5t117.5 -60t81 -92t47.5 -117.5t13 -136 t-19.5 -149h-618q6 -116 69 -175.5t175 -61.5q82 -4 175.5 14.5t157.5 48.5l35 -197q-199 -86 -370 -86q-255 0 -369 189q-151 -184 -391 -184q-91 0 -169.5 35.5t-129.5 107t-54 164.5zM342 307q4 -53 41.5 -80.5t91.5 -27.5q48 0 96 16t85.5 51.5t45.5 81.5l-6 53 q-102 67 -202 58q-70 -2 -114 -43.5t-38 -108.5zM940 621h373q4 76 -44.5 120.5t-125.5 44.5q-74 5 -130 -39.5t-73 -125.5z" />
<glyph unicode="&#xe7;" horiz-adv-x="1159" d="M76 498q0 116 39.5 212t105 158.5t150.5 100.5t175 46.5t180 -11.5t164 -66.5t128 -125.5t72 -181h-273q-20 53 -62.5 87t-92.5 44t-104 -2t-98 -43.5t-72 -88.5t-28 -130q0 -74 28.5 -132t72.5 -90.5t98.5 -44t105.5 0.5t93.5 50t62.5 97h273q-24 -156 -126.5 -256 t-244.5 -129l-21 -84q49 -4 85.5 -28t52.5 -58.5t20 -74.5t-12 -75q-24 -62 -84 -98.5t-131.5 -43t-146.5 9t-130 50.5l17 154q47 -37 136.5 -41t108.5 43q15 49 -38.5 74.5t-112.5 25.5l39 140q-88 13 -164.5 52t-136.5 101.5t-94.5 154.5t-34.5 202z" />
<glyph unicode="&#xe8;" d="M76 506q2 125 46 223.5t117 159t163.5 92t191.5 31.5q133 0 231 -43t151.5 -120t70 -183t-14.5 -232h-670q7 -108 78.5 -161.5t184.5 -61.5q86 -4 131 2q141 16 235 59l33 -209q-187 -88 -383 -88q-252 -5 -408.5 139t-156.5 392zM340 1372v23l246 90l143 -299v-27h-219z M365 618h434q4 90 -55.5 132.5t-149.5 42.5q-85 0 -148.5 -46t-80.5 -129z" />
<glyph unicode="&#xe9;" d="M76 506q2 125 46 223.5t117 159t163.5 92t191.5 31.5q133 0 231 -43t151.5 -120t70 -183t-14.5 -232h-670q7 -108 78.5 -161.5t184.5 -61.5q86 -4 131 2q141 16 235 59l33 -209q-187 -88 -383 -88q-252 -5 -408.5 139t-156.5 392zM365 618h434q4 90 -55.5 132.5 t-149.5 42.5q-85 0 -148.5 -46t-80.5 -129zM444 1161v25l144 297l243 -90v-23l-169 -209h-218z" />
<glyph unicode="&#xea;" d="M76 506q2 125 46 223.5t117 159t163.5 92t191.5 31.5q133 0 231 -43t151.5 -120t70 -183t-14.5 -232h-670q7 -108 78.5 -161.5t184.5 -61.5q86 -4 131 2q141 16 235 59l33 -209q-187 -88 -383 -88q-252 -5 -408.5 139t-156.5 392zM182 1157v27l264 274h261l264 -276v-25 h-248l-145 146l-146 -146h-250zM365 618h434q4 90 -55.5 132.5t-149.5 42.5q-85 0 -148.5 -46t-80.5 -129z" />
<glyph unicode="&#xeb;" d="M76 506q2 125 46 223.5t117 159t163.5 92t191.5 31.5q133 0 231 -43t151.5 -120t70 -183t-14.5 -232h-670q7 -108 78.5 -161.5t184.5 -61.5q86 -4 131 2q141 16 235 59l33 -209q-187 -88 -383 -88q-252 -5 -408.5 139t-156.5 392zM190 1300q0 62 43.5 100t106.5 38 t107.5 -38.5t44.5 -99.5q0 -60 -44.5 -97.5t-107.5 -37.5t-106.5 37.5t-43.5 97.5zM365 618h434q4 90 -55.5 132.5t-149.5 42.5q-85 0 -148.5 -46t-80.5 -129zM694 1300q0 62 43 100t107 38t106.5 -38t42.5 -100q0 -60 -42.5 -97.5t-106.5 -37.5t-107 37.5t-43 97.5z" />
<glyph unicode="&#xec;" horiz-adv-x="555" d="M-2 1362v24l254 93l147 -308v-26h-225zM135 0v987h285v-987h-285z" />
<glyph unicode="&#xed;" horiz-adv-x="555" d="M127 1153v25l147 307l250 -92v-25l-174 -215h-223zM135 0v987h285v-987h-285z" />
<glyph unicode="&#xee;" horiz-adv-x="555" d="M-86 1130v29l246 316h243l244 -318v-27h-229l-137 166l-134 -166h-233zM135 0v987h285v-987h-285z" />
<glyph unicode="&#xef;" horiz-adv-x="555" d="M-119 1311q0 66 47 106.5t115 40.5q69 0 116.5 -40.5t47.5 -106.5t-47.5 -107t-116.5 -41q-68 0 -115 41t-47 107zM135 0v987h285v-987h-285zM330 1311q0 66 46.5 106.5t115.5 40.5t115 -40.5t46 -106.5t-46 -107t-115 -41t-115.5 41t-46.5 107z" />
<glyph unicode="&#xf0;" horiz-adv-x="1200" d="M76 489q0 115 43.5 207.5t116.5 150.5t162.5 90t187.5 34q42 0 89 -11.5t73 -33.5q-39 83 -148 188l-111 -76l-73 107l106 72q-86 111 -190 198v15h233q65 -45 119 -99l113 76l73 -102l-94 -70q82 -90 145.5 -183t115 -200t72.5 -224t5 -231q-13 -86 -51 -158t-91.5 -122 t-121 -84t-140.5 -47.5t-148.5 -9t-146 27t-132.5 65.5t-108 102t-72.5 141t-26.5 177zM360 489q0 -84 35.5 -146t88 -89.5t114.5 -27.5t114.5 27.5t88 89.5t35.5 146q0 79 -35.5 137.5t-88 84.5t-114.5 25.5t-114.5 -26.5t-88 -84t-35.5 -137z" />
<glyph unicode="&#xf1;" horiz-adv-x="1257" d="M72 811v178q360 63 360 -133q38 79 127.5 116.5t188.5 37.5q102 0 178 -33.5t121.5 -94t67.5 -138.5t22 -173v-571h-289v571q4 97 -50.5 154t-135.5 57q-86 0 -147.5 -58.5t-61.5 -158.5v-565h-287v682q0 37 -1 52t-5 34.5t-14.5 26t-28 11.5t-45.5 5zM244 1247 q120 297 385 166q23 -11 36 -16.5t35.5 -13.5t38.5 -7.5t34 5t32 19.5t24 40q50 -25 142 -66q-40 -135 -142.5 -185.5t-222.5 9.5q-27 14 -39.5 20t-38 15.5t-40.5 9t-35 -4t-35.5 -19t-28.5 -41.5q-89 47 -145 69z" />
<glyph unicode="&#xf2;" horiz-adv-x="1193" d="M74 498q0 125 45 226t118.5 163t167.5 95.5t192 33.5t192 -33.5t167.5 -95.5t118.5 -163t45 -226t-45 -226.5t-118.5 -163.5t-167.5 -96t-192 -34t-192 34t-167.5 96t-118.5 163.5t-45 226.5zM315 1370v23l265 90l155 -299v-25h-235zM358 498q0 -65 20.5 -117t54 -84.5 t76.5 -49.5t88 -17t88 17.5t76.5 49.5t54 84.5t20.5 116.5q0 85 -35.5 147t-88.5 90t-115 28t-115 -28t-88.5 -90t-35.5 -147z" />
<glyph unicode="&#xf3;" horiz-adv-x="1193" d="M74 498q0 125 45 226t118.5 163t167.5 95.5t192 33.5t192 -33.5t167.5 -95.5t118.5 -163t45 -226t-45 -226.5t-118.5 -163.5t-167.5 -96t-192 -34t-192 34t-167.5 96t-118.5 163.5t-45 226.5zM358 498q0 -65 20.5 -117t54 -84.5t76.5 -49.5t88 -17t88 17.5t76.5 49.5 t54 84.5t20.5 116.5q0 85 -35.5 147t-88.5 90t-115 28t-115 -28t-88.5 -90t-35.5 -147zM440 1165v25l154 297l262 -90v-23l-182 -209h-234z" />
<glyph unicode="&#xf4;" horiz-adv-x="1193" d="M74 498q0 125 45 226t118.5 163t167.5 95.5t192 33.5t192 -33.5t167.5 -95.5t118.5 -163t45 -226t-45 -226.5t-118.5 -163.5t-167.5 -96t-192 -34t-192 34t-167.5 96t-118.5 163.5t-45 226.5zM193 1155v27l268 291h262l266 -293v-25h-250l-147 154l-146 -154h-253z M358 498q0 -65 20.5 -117t54 -84.5t76.5 -49.5t88 -17t88 17.5t76.5 49.5t54 84.5t20.5 116.5q0 85 -35.5 147t-88.5 90t-115 28t-115 -28t-88.5 -90t-35.5 -147z" />
<glyph unicode="&#xf5;" horiz-adv-x="1193" d="M74 498q0 125 45 226t118.5 163t167.5 95.5t192 33.5t192 -33.5t167.5 -95.5t118.5 -163t45 -226t-45 -226.5t-118.5 -163.5t-167.5 -96t-192 -34t-192 34t-167.5 96t-118.5 163.5t-45 226.5zM227 1264q120 297 385 166q28 -13 44 -20t43 -14t45 -3.5t37.5 19t31.5 44.5 q36 -18 141 -65q-40 -135 -142 -186t-222 9q-27 14 -39.5 20t-38 15.5t-40.5 9t-35 -4t-35.5 -19t-28.5 -41.5q-93 50 -146 70zM358 498q0 -65 20.5 -117t54 -84.5t76.5 -49.5t88 -17t88 17.5t76.5 49.5t54 84.5t20.5 116.5q0 85 -35.5 147t-88.5 90t-115 28t-115 -28 t-88.5 -90t-35.5 -147z" />
<glyph unicode="&#xf6;" horiz-adv-x="1193" d="M74 498q0 125 45 226t118.5 163t167.5 95.5t192 33.5t192 -33.5t167.5 -95.5t118.5 -163t45 -226t-45 -226.5t-118.5 -163.5t-167.5 -96t-192 -34t-192 34t-167.5 96t-118.5 163.5t-45 226.5zM205 1307q0 62 43 99.5t106 37.5q64 0 108 -38t44 -99q0 -60 -44.5 -98 t-107.5 -38t-106 38t-43 98zM358 498q0 -65 20.5 -117t54 -84.5t76.5 -49.5t88 -17t88 17.5t76.5 49.5t54 84.5t20.5 116.5q0 85 -35.5 147t-88.5 90t-115 28t-115 -28t-88.5 -90t-35.5 -147zM709 1307q0 62 42.5 99.5t106.5 37.5t107 -37.5t43 -99.5q0 -60 -43 -98 t-107 -38t-106.5 37.5t-42.5 98.5z" />
<glyph unicode="&#xf7;" horiz-adv-x="1103" d="M104 610v246h895v-246h-895zM385 342q0 70 48.5 114t119.5 44q73 0 121.5 -43.5t48.5 -114.5t-48 -113.5t-122 -42.5q-71 0 -119.5 43t-48.5 113zM385 1130q0 70 48.5 114t119.5 44q73 0 121.5 -43.5t48.5 -114.5t-48 -113t-122 -42q-71 0 -119.5 42.5t-48.5 112.5z" />
<glyph unicode="&#xf8;" horiz-adv-x="1196" d="M76 498q0 86 21.5 161t59 131t89 100t112 71t126 40.5t132.5 11.5t132 -18l59 119h223l-102 -205q90 -66 142 -170t52 -241q0 -84 -21 -158t-58 -130.5t-87 -101t-109 -72.5t-123.5 -43t-131 -13.5t-129.5 18.5l-55 -113h-224l99 193q-96 64 -151.5 170.5t-55.5 249.5z M350 498q0 -111 68 -176l225 446q-52 10 -103.5 -2.5t-94 -45t-69 -90.5t-26.5 -132zM563 225q51 -9 101.5 5t92 46.5t67.5 90.5t26 131q0 99 -62 168z" />
<glyph unicode="&#xf9;" horiz-adv-x="1239" d="M123 422v565h289v-565q-4 -101 44 -156t126 -55q87 -2 144.5 58.5t57.5 158.5v559h287v-690q0 -76 15 -99.5t77 -19.5l2 -178q-60 -14 -116 -18t-114.5 5.5t-94 49t-35.5 106.5q-38 -80 -125.5 -118.5t-190.5 -38.5q-83 0 -147 22t-105 60t-67 94.5t-36.5 119.5 t-10.5 140zM328 1376v25l247 90l148 -303v-25h-223z" />
<glyph unicode="&#xfa;" horiz-adv-x="1239" d="M123 422v565h289v-565q-4 -101 44 -156t126 -55q87 -2 144.5 58.5t57.5 158.5v559h287v-690q0 -76 15 -99.5t77 -19.5l2 -178q-60 -14 -116 -18t-114.5 5.5t-94 49t-35.5 106.5q-38 -80 -125.5 -118.5t-190.5 -38.5q-83 0 -147 22t-105 60t-67 94.5t-36.5 119.5 t-10.5 140zM461 1163v27l145 299l246 -90v-23l-172 -213h-219z" />
<glyph unicode="&#xfb;" horiz-adv-x="1239" d="M123 422v565h289v-565q-4 -101 44 -156t126 -55q87 -2 144.5 58.5t57.5 158.5v559h287v-690q0 -76 15 -99.5t77 -19.5l2 -178q-60 -14 -116 -18t-114.5 5.5t-94 49t-35.5 106.5q-38 -80 -125.5 -118.5t-190.5 -38.5q-83 0 -147 22t-105 60t-67 94.5t-36.5 119.5 t-10.5 140zM180 1147v27l279 288h274l279 -291v-24h-260l-156 151l-152 -151h-264z" />
<glyph unicode="&#xfc;" horiz-adv-x="1239" d="M123 422v565h289v-565q-4 -101 44 -156t126 -55q87 -2 144.5 58.5t57.5 158.5v559h287v-690q0 -76 15 -99.5t77 -19.5l2 -178q-60 -14 -116 -18t-114.5 5.5t-94 49t-35.5 106.5q-38 -80 -125.5 -118.5t-190.5 -38.5q-83 0 -147 22t-105 60t-67 94.5t-36.5 119.5 t-10.5 140zM166 1298q0 64 46.5 104t111.5 40q69 0 114 -39.5t45 -104.5t-45 -104t-114 -39q-65 0 -111.5 39.5t-46.5 103.5zM698 1298q0 65 45 104.5t113 39.5t113 -39.5t45 -104.5t-45 -104t-113 -39t-113 39t-45 104z" />
<glyph unicode="&#xfd;" horiz-adv-x="1144" d="M14 954v33h301l134 -334l129 -364h6l112 362l119 336h291v-33l-418 -1050q-41 -105 -77.5 -175t-88.5 -128t-112.5 -81.5t-144 -19.5t-189.5 43l30 199q79 -38 138 -28.5t98 53.5t68 129l36 102zM410 1143v26l153 320l262 -96v-25l-182 -225h-233z" />
<glyph unicode="&#xfe;" horiz-adv-x="1198" d="M133 -506v1979h285v-515q112 50 219.5 56t193.5 -30t151.5 -102.5t101.5 -165t36 -214.5q0 -95 -25.5 -179t-71 -148.5t-111 -109t-142 -63.5t-167.5 -9t-185 52v-551h-285zM412 291q74 -44 150 -52t135 18.5t96.5 90t37.5 154.5t-37.5 154.5t-96.5 90t-135 18.5 t-150 -52v-422z" />
<glyph unicode="&#xff;" horiz-adv-x="1144" d="M14 954v33h301l134 -334l129 -364h6l112 362l119 336h291v-33l-418 -1050q-41 -105 -77.5 -175t-88.5 -128t-112.5 -81.5t-144 -19.5t-189.5 43l30 199q79 -38 138 -28.5t98 53.5t68 129l36 102zM129 1311q0 66 47 106.5t115 40.5q69 0 116.5 -40.5t47.5 -106.5 t-47.5 -107t-116.5 -41q-68 0 -115 41t-47 107zM674 1311q0 66 46.5 106.5t115.5 40.5t115 -40.5t46 -106.5t-46 -107t-115 -41t-115.5 41t-46.5 107z" />
<glyph unicode="&#x100;" horiz-adv-x="1433" d="M-12 0v41l659 1405h141l656 -1405v-41h-318l-112 238h-596l-111 -238h-319zM387 1542v219h655v-219h-655zM518 496h397l-198 473z" />
<glyph unicode="&#x101;" d="M66 291q-5 117 46.5 199t137.5 119.5t199 37.5q163 0 262 -63v67q0 35 -16.5 61t-41.5 41t-59.5 24.5t-65 12.5t-63.5 3q-178 0 -285 -60l-37 205q157 74 371 74q101 0 182 -18t148 -59t104 -115t37 -177v-356q0 -34 0.5 -47t5 -34.5t13.5 -28.5t27 -13t46 -4l2 -160 q-48 -11 -90.5 -14t-84.5 3t-71.5 23.5t-48 53t-18.5 86.5q-41 -86 -138 -128t-204 -42q-143 0 -248.5 85.5t-109.5 223.5zM215 1174v219h655v-219h-655zM346 309q4 -51 43 -78.5t92 -27.5q80 0 148.5 39.5t75.5 111.5v52q-83 57 -205 57q-72 -5 -116.5 -45t-37.5 -109z" />
<glyph unicode="&#x102;" horiz-adv-x="1433" d="M-12 0v41l659 1405h141l656 -1405v-41h-318l-112 238h-596l-111 -238h-319zM303 1903h246q0 -36 18 -64t47.5 -42.5t64.5 -21t70 0.5t64.5 21.5t47.5 42.5t18 63h241q0 -76 -28 -139.5t-75 -104t-108.5 -69t-129 -34.5t-135.5 0.5t-129.5 35t-108.5 69.5t-75 104t-28 138 zM518 496h397l-198 473z" />
<glyph unicode="&#x103;" d="M66 291q-5 117 46.5 199t137.5 119.5t199 37.5q163 0 262 -63v67q0 35 -16.5 61t-41.5 41t-59.5 24.5t-65 12.5t-63.5 3q-178 0 -285 -60l-37 205q157 74 371 74q101 0 182 -18t148 -59t104 -115t37 -177v-356q0 -34 0.5 -47t5 -34.5t13.5 -28.5t27 -13t46 -4l2 -160 q-48 -11 -90.5 -14t-84.5 3t-71.5 23.5t-48 53t-18.5 86.5q-41 -86 -138 -128t-204 -42q-143 0 -248.5 85.5t-109.5 223.5zM164 1468h225q0 -46 31 -77.5t75.5 -39t88.5 0t75 39t31 77.5h221q0 -80 -32 -145t-84.5 -104t-119.5 -60.5t-137.5 -21t-137.5 22.5t-119.5 61.5 t-84.5 103.5t-32 143zM346 309q4 -51 43 -78.5t92 -27.5q80 0 148.5 39.5t75.5 111.5v52q-83 57 -205 57q-72 -5 -116.5 -45t-37.5 -109z" />
<glyph unicode="&#x104;" horiz-adv-x="1435" d="M-10 0v41q172 372 659 1405h142l655 -1405v-41q-46 10 -96 -6t-83.5 -48.5t-47.5 -75t12 -85.5q19 -35 51 -47.5t68.5 -4.5t67 21.5t59.5 32.5l39 -180q-55 -36 -128.5 -56t-148 -19.5t-138.5 36.5t-91 106q-70 179 114 332l-108 232h-596l-111 -238h-319zM520 496h398 l-199 448z" />
<glyph unicode="&#x105;" horiz-adv-x="1132" d="M66 291q-5 117 46.5 199t137.5 119.5t199 37.5q159 0 258 -63v63q0 43 -23 73.5t-62 45.5t-77 21t-80 6q-178 0 -285 -60l-37 205q157 74 371 74q79 0 146.5 -11t128.5 -38.5t103.5 -69t67.5 -106.5t25 -148v-352q0 -34 0.5 -47t5 -34.5t13.5 -28.5t27 -13t46 -4l2 -160 q-49 5 -96 -24t-64.5 -72.5t3.5 -89.5q20 -35 64 -38t81 11t72 35l35 -160q-51 -32 -118 -49t-134 -14.5t-121.5 40.5t-73.5 109q-24 73 12 143.5t107 110.5q-38 17 -57 53t-25 97q-41 -86 -137 -128t-203 -42q-143 0 -248.5 85.5t-109.5 223.5zM346 309q4 -51 43 -78.5 t92 -27.5q80 0 148.5 39.5t75.5 111.5v52q-83 57 -205 57q-72 -5 -116.5 -45t-37.5 -109z" />
<glyph unicode="&#x106;" horiz-adv-x="1558" d="M86 715q0 173 61.5 315.5t164 233t233.5 138.5t274 46q112 0 217 -30.5t197 -91t158 -160.5t90 -228h-297q-91 233 -365 233q-190 0 -307 -126t-117 -330q0 -123 51.5 -225.5t148.5 -164t222 -61.5q138 0 237.5 65.5t135.5 192.5h295q-22 -137 -87 -242.5t-157.5 -168 t-199 -94t-222.5 -31.5q-114 0 -221 29.5t-200 90.5t-162.5 146.5t-109.5 204.5t-40 258zM659 1583v27l168 325l287 -98v-25l-201 -229h-254z" />
<glyph unicode="&#x107;" horiz-adv-x="1155" d="M74 498q0 116 39.5 212t105 158.5t150.5 100.5t175 46.5t179.5 -11.5t164 -66.5t128 -125.5t71.5 -181h-272q-20 53 -62.5 87t-92.5 44t-104 -2t-98 -43.5t-72 -88.5t-28 -130q0 -74 28.5 -132t72.5 -90.5t98.5 -44t105.5 0.5t93.5 50t62.5 97h273q-16 -103 -69.5 -184 t-127.5 -129t-164.5 -70t-181.5 -15t-176.5 44.5t-152 99.5t-106.5 159t-40 214zM424 1182v24l162 291l272 -88v-23l-190 -204h-244z" />
<glyph unicode="&#x108;" horiz-adv-x="1558" d="M86 715q0 173 61.5 315.5t164 233t233.5 138.5t274 46q112 0 217 -30.5t197 -91t158 -160.5t90 -228h-297q-91 233 -365 233q-190 0 -307 -126t-117 -330q0 -123 51.5 -225.5t148.5 -164t222 -61.5q138 0 237.5 65.5t135.5 192.5h295q-22 -137 -87 -242.5t-157.5 -168 t-199 -94t-222.5 -31.5q-114 0 -221 29.5t-200 90.5t-162.5 146.5t-109.5 204.5t-40 258zM385 1550v29l293 303h287l290 -305v-27h-272l-162 160l-159 -160h-277z" />
<glyph unicode="&#x109;" horiz-adv-x="1155" d="M74 498q0 116 39.5 212t105 158.5t150.5 100.5t175 46.5t179.5 -11.5t164 -66.5t128 -125.5t71.5 -181h-272q-20 53 -62.5 87t-92.5 44t-104 -2t-98 -43.5t-72 -88.5t-28 -130q0 -74 28.5 -132t72.5 -90.5t98.5 -44t105.5 0.5t93.5 50t62.5 97h273q-16 -103 -69.5 -184 t-127.5 -129t-164.5 -70t-181.5 -15t-176.5 44.5t-152 99.5t-106.5 159t-40 214zM186 1143v26l269 289h262l266 -291v-24h-250l-147 151l-146 -151h-254z" />
<glyph unicode="&#x10a;" horiz-adv-x="1558" d="M86 715q0 173 61.5 315.5t164 233t233.5 138.5t274 46q112 0 217 -30.5t197 -91t158 -160.5t90 -228h-297q-91 233 -365 233q-190 0 -307 -126t-117 -330q0 -123 51.5 -225.5t148.5 -164t222 -61.5q138 0 237.5 65.5t135.5 192.5h295q-22 -137 -87 -242.5t-157.5 -168 t-199 -94t-222.5 -31.5q-114 0 -221 29.5t-200 90.5t-162.5 146.5t-109.5 204.5t-40 258zM616 1722q0 74 49 119t123 45q75 0 126 -45.5t51 -118.5q0 -72 -50.5 -115.5t-126.5 -43.5q-74 0 -123 43.5t-49 115.5z" />
<glyph unicode="&#x10b;" horiz-adv-x="1155" d="M74 498q0 116 39.5 212t105 158.5t150.5 100.5t175 46.5t179.5 -11.5t164 -66.5t128 -125.5t71.5 -181h-272q-20 53 -62.5 87t-92.5 44t-104 -2t-98 -43.5t-72 -88.5t-28 -130q0 -74 28.5 -132t72.5 -90.5t98.5 -44t105.5 0.5t93.5 50t62.5 97h273q-16 -103 -69.5 -184 t-127.5 -129t-164.5 -70t-181.5 -15t-176.5 44.5t-152 99.5t-106.5 159t-40 214zM446 1313q0 62 44.5 100.5t109.5 38.5q67 0 112.5 -38.5t45.5 -100.5t-45.5 -100.5t-112.5 -38.5q-65 0 -109.5 38.5t-44.5 100.5z" />
<glyph unicode="&#x10c;" horiz-adv-x="1558" d="M86 715q0 173 61.5 315.5t164 233t233.5 138.5t274 46q112 0 217 -30.5t197 -91t158 -160.5t90 -228h-297q-91 233 -365 233q-190 0 -307 -126t-117 -330q0 -123 51.5 -225.5t148.5 -164t222 -61.5q138 0 237.5 65.5t135.5 192.5h295q-22 -137 -87 -242.5t-157.5 -168 t-199 -94t-222.5 -31.5q-114 0 -221 29.5t-200 90.5t-162.5 146.5t-109.5 204.5t-40 258zM389 1860v26h275l153 -157l152 157h278v-26l-289 -297h-282z" />
<glyph unicode="&#x10d;" horiz-adv-x="1155" d="M74 498q0 116 39.5 212t105 158.5t150.5 100.5t175 46.5t179.5 -11.5t164 -66.5t128 -125.5t71.5 -181h-272q-20 53 -62.5 87t-92.5 44t-104 -2t-98 -43.5t-72 -88.5t-28 -130q0 -74 28.5 -132t72.5 -90.5t98.5 -44t105.5 0.5t93.5 50t62.5 97h273q-16 -103 -69.5 -184 t-127.5 -129t-164.5 -70t-181.5 -15t-176.5 44.5t-152 99.5t-106.5 159t-40 214zM160 1425v27h270l152 -156l147 156h272v-27l-282 -292h-279z" />
<glyph unicode="&#x10e;" horiz-adv-x="1490" d="M168 0v1432h532q133 0 248 -39t197.5 -106.5t141 -157.5t87.5 -194t29 -214q2 -111 -26 -216t-86.5 -196.5t-141 -160.5t-198.5 -108.5t-251 -39.5h-532zM193 1851v25h264l151 -152l148 152h268v-25l-279 -288h-276zM473 276h223q96 0 174 37t127 99t75 141t26 166 q0 117 -45 214.5t-138.5 159.5t-218.5 62h-223v-879z" />
<glyph unicode="&#x10f;" horiz-adv-x="1236" d="M76 494q0 114 39 213t108 165t156 102.5t190.5 31t204.5 -55.5v547h287v-1190q0 -9 -0.5 -30t0 -28.5t1.5 -23.5t3.5 -21.5t6.5 -16t11 -14t16.5 -8t23 -5.5t30.5 0l2 -162q-59 -14 -111.5 -16t-102 9.5t-80 49t-32.5 98.5v27q-40 -91 -119 -140t-178 -51 q-109 -2 -197 39.5t-143.5 114.5t-85.5 166.5t-30 198.5zM360 494q0 -115 54.5 -190t163.5 -75q91 0 147.5 66t56.5 160v254q-76 44 -152.5 51t-135.5 -20t-96.5 -91.5t-37.5 -154.5zM1139 1333q0 71 47.5 114.5t120.5 43.5q56 0 99 -29t60 -78q9 -24 9 -53q-3 -36 -15 -63 l-84 -258h-168l49 174q-53 14 -85.5 53.5t-32.5 95.5z" />
<glyph unicode="&#x110;" horiz-adv-x="1509" d="M31 586v239h155v607h533q166 0 301.5 -59.5t221.5 -159.5t132.5 -226.5t46.5 -265.5q2 -111 -25.5 -216t-86 -196.5t-141 -160.5t-198.5 -108.5t-251 -39.5h-533v586h-155zM492 276h223q127 0 220 64t137 162.5t44 216.5q0 117 -45 214.5t-138 159.5t-218 62h-223v-330 h229v-239h-229v-310z" />
<glyph unicode="&#x111;" horiz-adv-x="1232" d="M76 492q0 114 39 213t108 165t156 102.5t190.5 31t204.5 -55.5v207h-194v176h194v164h287v-164h153v-176h-153v-852q0 -9 -0.5 -29t0 -27.5t1.5 -23t3.5 -21t6.5 -16t11 -14t16.5 -8.5t23 -6t30.5 0l2 -160q-58 -14 -110.5 -16t-102.5 8.5t-80.5 48t-32.5 98.5v27 q-41 -90 -120 -139.5t-177 -49.5q-109 -2 -197 39t-143.5 113t-85.5 165.5t-30 199.5zM360 492q0 -73 21.5 -131t72 -96t124.5 -38q91 0 147.5 66t56.5 160v247q-76 44 -152.5 51.5t-135.5 -19t-96.5 -89t-37.5 -151.5z" />
<glyph unicode="&#x112;" horiz-adv-x="1171" d="M166 0v1434h878v-269h-569v-291h533v-268h-533v-327h586v-279h-895zM299 1571v219h655v-219h-655z" />
<glyph unicode="&#x113;" d="M76 506q2 125 46 223.5t117 159t163.5 92t191.5 31.5q133 0 231 -43t151.5 -120t70 -183t-14.5 -232h-670q7 -108 78.5 -161.5t184.5 -61.5q86 -4 131 2q141 16 235 59l33 -209q-187 -88 -383 -88q-252 -5 -408.5 139t-156.5 392zM262 1155v219h656v-219h-656zM365 618 h434q4 90 -55.5 132.5t-149.5 42.5q-85 0 -148.5 -46t-80.5 -129z" />
<glyph unicode="&#x114;" horiz-adv-x="1171" d="M166 0v1434h878v-269h-569v-291h533v-268h-533v-327h586v-279h-895zM203 1896h233q0 -47 32.5 -79.5t79 -39.5t93 0.5t79 39.5t32.5 79h229q0 -82 -33.5 -148.5t-88 -107t-124.5 -62.5t-143 -21.5t-143 22.5t-124.5 63t-88 107t-33.5 147z" />
<glyph unicode="&#x115;" d="M76 506q2 125 46 223.5t117 159t163.5 92t191.5 31.5q133 0 231 -43t151.5 -120t70 -183t-14.5 -232h-670q7 -108 78.5 -161.5t184.5 -61.5q86 -4 131 2q141 16 235 59l33 -209q-187 -88 -383 -88q-252 -5 -408.5 139t-156.5 392zM215 1448h221q0 -55 46 -85.5 t101.5 -30.5t101.5 31t46 85h217q0 -76 -31.5 -137.5t-83 -99.5t-117.5 -58t-134.5 -19.5t-134.5 21t-117.5 58.5t-83 99t-31.5 136zM365 618h434q4 90 -55.5 132.5t-149.5 42.5q-85 0 -148.5 -46t-80.5 -129z" />
<glyph unicode="&#x116;" horiz-adv-x="1171" d="M166 0v1434h878v-269h-569v-291h533v-268h-533v-327h586v-279h-895zM453 1716q0 70 48.5 114t119.5 44q73 0 121.5 -43.5t48.5 -114.5t-48 -113t-122 -42q-71 0 -119.5 42.5t-48.5 112.5z" />
<glyph unicode="&#x117;" d="M76 506q2 125 46 223.5t117 159t163.5 92t191.5 31.5q133 0 231 -43t151.5 -120t70 -183t-14.5 -232h-670q7 -108 78.5 -161.5t184.5 -61.5q86 -4 131 2q141 16 235 59l33 -209q-187 -88 -383 -88q-252 -5 -408.5 139t-156.5 392zM365 618h434q4 90 -55.5 132.5 t-149.5 42.5q-85 0 -148.5 -46t-80.5 -129zM412 1298q0 65 48 105.5t118 40.5q73 0 121.5 -40.5t48.5 -105.5q0 -66 -48 -105.5t-122 -39.5q-71 0 -118.5 39.5t-47.5 105.5z" />
<glyph unicode="&#x118;" horiz-adv-x="1163" d="M166 0v1434h870v-269h-561v-291h524v-268h-524v-327h578v-279h-195q-61 -37 -88 -102t0 -117q17 -35 51.5 -46.5t75.5 -2.5t75.5 23.5t65.5 33.5l39 -180q-58 -39 -136 -61t-157.5 -22t-144 43.5t-86.5 129.5q-25 83 7 164t104 137h-498z" />
<glyph unicode="&#x119;" horiz-adv-x="1130" d="M76 506q2 125 46 223.5t117 159t163.5 92t191.5 31.5q133 0 231 -43t151.5 -120t70 -183t-14.5 -232h-670q7 -118 88.5 -172.5t206.5 -54.5q82 0 177 19.5t157 45.5l33 -209q-62 -31 -141 -53q-59 -36 -87.5 -92t-2.5 -106q22 -42 71.5 -46.5t94 12.5t81.5 42l35 -168 q-54 -35 -125.5 -52.5t-142.5 -12.5t-130.5 46.5t-82.5 116.5q-38 117 72 227q-76 -3 -140 9q-206 30 -328 166t-122 354zM365 608h428q11 88 -50 136.5t-149 48.5t-152 -48.5t-77 -136.5z" />
<glyph unicode="&#x11a;" horiz-adv-x="1171" d="M166 0v1434h878v-269h-569v-291h533v-268h-533v-327h586v-279h-895zM188 1847v27h271l151 -156l148 156h272v-27l-282 -293h-279z" />
<glyph unicode="&#x11b;" d="M76 506q2 125 46 223.5t117 159t163.5 92t191.5 31.5q133 0 231 -43t151.5 -120t70 -183t-14.5 -232h-670q7 -108 78.5 -161.5t184.5 -61.5q86 -4 131 2q141 16 235 59l33 -209q-187 -88 -383 -88q-252 -5 -408.5 139t-156.5 392zM186 1430v24h260l148 -149l141 149h264 v-24l-272 -285h-268zM365 618h434q4 90 -55.5 132.5t-149.5 42.5q-85 0 -148.5 -46t-80.5 -129z" />
<glyph unicode="&#x11c;" horiz-adv-x="1576" d="M86 717q0 172 61 314t163.5 232.5t233 139.5t273.5 49q110 0 211 -27.5t190 -82.5t154.5 -147.5t95.5 -213.5h-301q-53 102 -138.5 148.5t-211.5 46.5q-195 0 -307.5 -130t-112.5 -329q0 -205 114.5 -331t305.5 -126q78 0 138.5 13t113 43.5t90.5 85t60 133.5h-392v258 h672q14 -243 -43 -402q-53 -140 -153.5 -233.5t-222 -134.5t-263.5 -41q-114 0 -221.5 30.5t-200 92t-161.5 148t-108.5 206t-39.5 258.5zM354 1561v28l293 303h287l291 -305v-26h-273l-161 159l-160 -159h-277z" />
<glyph unicode="&#x11d;" horiz-adv-x="1187" d="M78 479q0 110 29.5 198t80.5 147.5t122.5 99t153.5 56.5t175 15q206 0 420 -90v-954q0 -112 -29.5 -202t-81.5 -149t-122 -97t-152 -50t-171 -4.5t-179.5 35.5t-176.5 74l37 221q51 -28 105.5 -50t113.5 -36.5t113 -18t103 9.5t85 42t57 84t21 131v82 q-112 -53 -219 -62.5t-194 24t-153 99.5t-102 168.5t-36 226.5zM209 1128v29l274 303h269l272 -305v-27h-254l-152 160l-149 -160h-260zM362 481q-2 -96 33.5 -162t94.5 -92.5t135 -19t153 50.5v481q-83 21 -168 21q-239 0 -248 -279z" />
<glyph unicode="&#x11e;" horiz-adv-x="1576" d="M86 717q0 172 61 314t163.5 232.5t233 139.5t273.5 49q110 0 211 -27.5t190 -82.5t154.5 -147.5t95.5 -213.5h-301q-53 102 -138.5 148.5t-211.5 46.5q-195 0 -307.5 -130t-112.5 -329q0 -205 114.5 -331t305.5 -126q78 0 138.5 13t113 43.5t90.5 85t60 133.5h-392v258 h672q14 -243 -43 -402q-53 -140 -153.5 -233.5t-222 -134.5t-263.5 -41q-114 0 -221.5 30.5t-200 92t-161.5 148t-108.5 206t-39.5 258.5zM375 1919h252q0 -50 35 -84t84.5 -42t99 0t84.5 42t35 84h247q0 -87 -36 -157t-95 -113t-134 -66t-153.5 -23t-153.5 23.5t-134 67 t-95 113t-36 155.5z" />
<glyph unicode="&#x11f;" horiz-adv-x="1187" d="M78 479q0 110 29.5 198t80.5 147.5t122.5 99t153.5 56.5t175 15q206 0 420 -90v-954q0 -112 -29.5 -202t-81.5 -149t-122 -97t-152 -50t-171 -4.5t-179.5 35.5t-176.5 74l37 221q51 -28 105.5 -50t113.5 -36.5t113 -18t103 9.5t85 42t57 84t21 131v82 q-112 -53 -219 -62.5t-194 24t-153 99.5t-102 168.5t-36 226.5zM225 1450h232q0 -48 32 -80.5t78.5 -40t92.5 0.5t78 40.5t32 79.5h229q0 -82 -33.5 -148.5t-87.5 -107t-123.5 -62.5t-142.5 -21.5t-142.5 22.5t-123.5 63t-87.5 107t-33.5 147zM362 481q-2 -96 33.5 -162 t94.5 -92.5t135 -19t153 50.5v481q-83 21 -168 21q-239 0 -248 -279z" />
<glyph unicode="&#x120;" horiz-adv-x="1576" d="M86 717q0 172 61 314t163.5 232.5t233 139.5t273.5 49q110 0 211 -27.5t190 -82.5t154.5 -147.5t95.5 -213.5h-301q-53 102 -138.5 148.5t-211.5 46.5q-195 0 -307.5 -130t-112.5 -329q0 -205 114.5 -331t305.5 -126q78 0 138.5 13t113 43.5t90.5 85t60 133.5h-392v258 h672q14 -243 -43 -402q-53 -140 -153.5 -233.5t-222 -134.5t-263.5 -41q-114 0 -221.5 30.5t-200 92t-161.5 148t-108.5 206t-39.5 258.5zM600 1729q0 68 49.5 110.5t122.5 42.5q75 0 125.5 -42.5t50.5 -110.5t-50.5 -109t-125.5 -41q-74 0 -123 41t-49 109z" />
<glyph unicode="&#x121;" horiz-adv-x="1187" d="M78 479q0 110 29.5 198t80.5 147.5t122.5 99t153.5 56.5t175 15q206 0 420 -90v-954q0 -112 -29.5 -202t-81.5 -149t-122 -97t-152 -50t-171 -4.5t-179.5 35.5t-176.5 74l37 221q51 -28 105.5 -50t113.5 -36.5t113 -18t103 9.5t85 42t57 84t21 131v82 q-112 -53 -219 -62.5t-194 24t-153 99.5t-102 168.5t-36 226.5zM362 481q-2 -96 33.5 -162t94.5 -92.5t135 -19t153 50.5v481q-83 21 -168 21q-239 0 -248 -279zM481 1303q0 66 45.5 107.5t112.5 41.5q69 0 114.5 -41.5t45.5 -107.5t-45.5 -107t-114.5 -41q-67 0 -112.5 41 t-45.5 107z" />
<glyph unicode="&#x122;" horiz-adv-x="1576" d="M86 717q0 172 61 314t163.5 232.5t233 139.5t273.5 49q110 0 211 -27.5t190 -82.5t154.5 -147.5t95.5 -213.5h-301q-53 102 -138.5 148.5t-211.5 46.5q-195 0 -307.5 -130t-112.5 -329q0 -205 114.5 -331t305.5 -126q78 0 138.5 13t113 43.5t90.5 85t60 133.5h-392v258 h672q14 -243 -43 -402q-53 -140 -153.5 -233.5t-222 -134.5t-263.5 -41q-114 0 -221.5 30.5t-200 92t-161.5 148t-108.5 206t-39.5 258.5zM692 -272q0 70 46.5 111.5t117.5 41.5q55 0 98 -28.5t60 -75.5q8 -19 8 -51q0 -38 -14 -66l-82 -227h-166l49 145q-117 40 -117 150z " />
<glyph unicode="&#x123;" horiz-adv-x="1187" d="M78 479q0 110 29.5 198t80.5 147.5t122.5 99t153.5 56.5t175 15q206 0 420 -90v-954q0 -112 -29.5 -202t-81.5 -149t-122 -97t-152 -50t-171 -4.5t-179.5 35.5t-176.5 74l37 221q51 -28 105.5 -50t113.5 -36.5t113 -18t103 9.5t85 42t57 84t21 131v82 q-112 -53 -219 -62.5t-194 24t-153 99.5t-102 168.5t-36 226.5zM362 481q-2 -96 33.5 -162t94.5 -92.5t135 -19t153 50.5v481q-83 21 -168 21q-239 0 -248 -279zM469 1276q4 35 14 53l78 215h164l-47 -145q51 -12 82 -45.5t31 -81.5q0 -60 -45.5 -95.5t-114.5 -35.5 q-55 0 -96 23.5t-58 64.5q-8 19 -8 47z" />
<glyph unicode="&#x124;" horiz-adv-x="1492" d="M166 0v1434h305v-547h549v547h307v-1434h-307v606h-549v-606h-305zM301 1575v29l293 303h287l290 -305v-27h-272l-162 160l-159 -160h-277z" />
<glyph unicode="&#x125;" horiz-adv-x="1224" d="M133 0v1495h289v-614q92 129 293 129q202 0 295.5 -118t93.5 -321v-571h-289v571q4 100 -47.5 155.5t-134.5 55.5q-89 2 -150 -57.5t-61 -159.5v-565h-289zM211 1577v29l283 299h276l281 -301v-27h-263l-157 158l-154 -158h-266z" />
<glyph unicode="&#x126;" horiz-adv-x="1515" d="M53 1061v194h123v179h305v-179h549v179h307v-179h127v-194h-127v-1061h-307v573h-549v-573h-305v1061h-123zM481 854h549v207h-549v-207z" />
<glyph unicode="&#x127;" horiz-adv-x="1224" d="M10 1163v180h123v152h287v-152h168v-180h-168v-295q55 76 126.5 109t168.5 33q103 0 179 -32.5t121.5 -92.5t67 -138t21.5 -176v-571h-289v571q1 101 -50 156t-134 55q-89 0 -150 -58.5t-61 -158.5v-565h-287v1163h-123z" />
<glyph unicode="&#x128;" horiz-adv-x="897" d="M66 1642q61 153 161 199.5t244 -22.5q25 -14 45 -23t47 -15.5t48 -3.5t41 20t32 48q27 -13 75 -34.5t75 -34.5q-42 -142 -149.5 -196.5t-235.5 9.5q-28 15 -42.5 22t-41 17t-43.5 10t-37.5 -4t-36.5 -21t-29 -44zM92 0v244h203v952h-186v238h679v-238h-186v-952h203v-244 h-713z" />
<glyph unicode="&#x129;" horiz-adv-x="555" d="M-72 1260q115 311 355 172q25 -14 40.5 -22.5t40 -15.5t41.5 -3.5t35 20t29 47.5q31 -16 131 -69q-38 -138 -131.5 -192t-204.5 9q-25 15 -37.5 21.5t-35.5 17t-37.5 10.5t-32.5 -4t-32.5 -21t-25.5 -44zM135 0v987h285v-987h-285z" />
<glyph unicode="&#x12a;" horiz-adv-x="897" d="M92 0v244h203v952h-186v238h679v-238h-186v-952h203v-244h-713zM121 1573v219h655v-219h-655z" />
<glyph unicode="&#x12b;" horiz-adv-x="555" d="M2 1161v225h545v-225h-545zM135 0v987h285v-987h-285z" />
<glyph unicode="&#x12c;" horiz-adv-x="897" d="M39 1898h237q0 -49 33 -82.5t80 -41t94 0.5t80 41.5t33 81.5h233q0 -86 -34 -155t-89.5 -111.5t-126.5 -65.5t-145 -22.5t-145 23.5t-126.5 65.5t-89.5 111.5t-34 154zM92 0v244h203v952h-186v238h679v-238h-186v-952h203v-244h-713z" />
<glyph unicode="&#x12d;" horiz-adv-x="555" d="M-76 1452h207q0 -47 28.5 -79.5t69.5 -39.5t81.5 0.5t69 39.5t28.5 79h204q0 -81 -29.5 -146t-78 -104.5t-110.5 -61t-126 -21t-126 22t-110.5 61.5t-78 104.5t-29.5 144.5zM135 0v987h285v-987h-285z" />
<glyph unicode="&#x12e;" horiz-adv-x="901" d="M94 0v250h203v936h-186v248h680v-248h-187v-936h203v-250h-242q-58 -39 -85.5 -100.5t1.5 -118.5q19 -35 54 -46.5t75.5 -2t74 23.5t65.5 33l38 -180q-46 -30 -108.5 -50.5t-131 -25t-129 7.5t-107 52.5t-62.5 105.5q-20 74 17.5 160t105.5 141h-279z" />
<glyph unicode="&#x12f;" horiz-adv-x="557" d="M33 -279q-20 71 12 154t90 129v971h287v-975h-103q-53 -41 -75.5 -97.5t2.5 -113.5q19 -34 54 -45.5t75 -3t75 23t64 33.5l39 -182q-43 -30 -103.5 -48.5t-126.5 -20t-125 13t-104.5 56.5t-60.5 105zM113 1272q0 45 18.5 80t47.5 53t65 26.5t71.5 0t64.5 -26.5t47.5 -53 t18.5 -80t-18.5 -80.5t-47.5 -53.5t-65 -26.5t-71.5 0t-64.5 26.5t-47.5 53.5t-18.5 80.5z" />
<glyph unicode="&#x130;" horiz-adv-x="897" d="M92 0v244h203v952h-186v238h679v-238h-186v-952h203v-244h-713zM250 1731q0 71 52.5 115t129.5 44q79 0 131.5 -44t52.5 -115t-52.5 -114.5t-131.5 -43.5q-77 0 -129.5 44t-52.5 114z" />
<glyph unicode="&#x131;" horiz-adv-x="555" d="M135 0v987h285v-987h-285z" />
<glyph unicode="&#x132;" horiz-adv-x="2187" d="M92 0v244h203v952h-186v238h679v-238h-186v-952h203v-244h-713zM950 475v174h285v-168q0 -112 68.5 -170.5t181.5 -58.5q111 0 176 59.5t65 169.5v688h-256v265h564v-959q0 -151 -76 -265t-199.5 -172t-273.5 -58t-270.5 58t-192.5 172t-72 265z" />
<glyph unicode="&#x133;" horiz-adv-x="1107" d="M109 1272q0 45 18.5 80.5t48 53.5t65 26.5t71.5 0t65.5 -26.5t48 -53.5t18.5 -80.5t-18.5 -81t-48 -54.5t-65 -27t-71.5 0t-65.5 27t-48 54.5t-18.5 81zM133 0v975h287v-975h-287zM481 -516l8 213q119 -17 160 25.5t41 164.5v1096h283l-2 -1100q0 -133 -34 -222 t-97.5 -133t-154 -55.5t-204.5 11.5zM662 1272q0 52 25 90.5t62 56t80.5 17.5t80.5 -17.5t62 -56t25 -90.5q0 -53 -25 -91.5t-62 -56t-80.5 -17.5t-80.5 17.5t-62 56t-25 91.5z" />
<glyph unicode="&#x134;" horiz-adv-x="1290" d="M53 475v174h285v-168q0 -112 68.5 -170.5t181.5 -58.5q111 0 176 59.5t65 169.5v688h-256v265h564v-959q0 -151 -76 -265t-199.5 -172t-273.5 -58t-270.5 58t-192.5 172t-72 265zM432 1573v29l277 307h270l272 -310v-26h-256l-151 162l-152 -162h-260z" />
<glyph unicode="&#x135;" horiz-adv-x="552" d="M-98 1112v29l248 323h243l246 -325v-27h-229l-138 170l-137 -170h-233zM-74 -516l8 213q119 -17 160 25.5t41 164.5v1096h283l-2 -1100q0 -133 -34 -222t-97.5 -133t-154 -55.5t-204.5 11.5z" />
<glyph unicode="&#x136;" horiz-adv-x="1439" d="M166 0v1434h305v-592h29h32t29.5 0.5t31 1t28 1.5t29 3t24.5 5t25 6.5t20 8.5q52 28 80 97t63 215q92 335 490 252v-209q-88 8 -136 -22t-71 -111q-35 -135 -76.5 -227t-103.5 -154l438 -664v-45h-346l-361 590q-59 -15 -225 -15v-575h-305zM614 -242q0 70 46.5 112 t117.5 42q55 0 98 -28.5t60 -76.5q8 -19 8 -51q0 -37 -14 -65l-82 -228h-166l49 146q-117 40 -117 149z" />
<glyph unicode="&#x137;" horiz-adv-x="1146" d="M133 2v1495h285v-872h69q82 0 139.5 27.5t88.5 79.5t44 114t13 143h270q5 -173 -46.5 -294t-188.5 -193l283 -471v-29h-289l-236 410q-41 -13 -82 -13h-65v-397h-285zM436 -258q0 66 44 105.5t112 39.5q53 0 91 -26.5t56 -71.5q9 -21 9 -49q0 -25 -13 -62l-78 -215h-157 l47 138q-111 41 -111 141z" />
<glyph unicode="&#x138;" horiz-adv-x="1138" d="M127 0v987h285v-379h69q81 0 136.5 28.5t85 83t41.5 119t12 150.5h276q2 -84 -6.5 -153t-32.5 -136.5t-72.5 -122t-119.5 -92.5l278 -456v-29h-311l-219 395q-37 -12 -137 -12v-383h-285z" />
<glyph unicode="&#x139;" horiz-adv-x="1103" d="M166 0v1434h307v-1160h598v-274h-905zM172 1561v26l154 320l262 -97v-24l-182 -225h-234z" />
<glyph unicode="&#x13a;" horiz-adv-x="632" d="M125 375v1124h283v-1124q0 -111 45 -144.5t151 -15.5l10 -215q-114 -23 -205 -14.5t-154 48.5t-96.5 125.5t-33.5 215.5zM141 1595v25l144 295l241 -88v-23l-168 -209h-217z" />
<glyph unicode="&#x13b;" horiz-adv-x="1103" d="M166 0v1434h307v-1160h598v-274h-905zM469 -266q0 70 46.5 111.5t117.5 41.5q55 0 98 -28.5t60 -75.5q8 -19 8 -51q0 -36 -15 -66l-82 -227h-165l49 145q-117 40 -117 150z" />
<glyph unicode="&#x13c;" horiz-adv-x="632" d="M125 375v1124h283v-1124q0 -111 45 -144.5t151 -15.5l10 -215q-114 -23 -205 -14.5t-154 48.5t-96.5 125.5t-33.5 215.5zM225 -279q0 66 45.5 107t112.5 41q54 0 94.5 -26.5t57.5 -73.5q8 -19 8 -50q0 -36 -15 -63l-77 -219h-160l47 139q-113 39 -113 145z" />
<glyph unicode="&#x13d;" horiz-adv-x="1110" d="M166 0v1434h307v-1160h598v-274h-905zM686 1284q0 68 45.5 110t114.5 42q54 0 95 -28t58 -75q0 -2 3.5 -21t3.5 -30q-2 -27 -13 -59l-80 -248h-161l47 166q-51 14 -82 51.5t-31 91.5z" />
<glyph unicode="&#x13e;" horiz-adv-x="632" d="M125 375v1124h283v-1124q0 -111 45 -144.5t151 -15.5l10 -215q-114 -23 -205 -14.5t-154 48.5t-96.5 125.5t-33.5 215.5zM496 1346q0 67 44.5 108t112.5 41q54 0 96 -28t56 -72q8 -21 8 -52q-3 -31 -12 -59l-80 -244h-160l47 164q-51 14 -81.5 51.5t-30.5 90.5z" />
<glyph unicode="&#x13f;" horiz-adv-x="1105" d="M166 0v1434h307v-1160h598v-274h-905zM655 776q0 71 45.5 114.5t112.5 43.5q69 0 113.5 -43.5t44.5 -114.5t-44.5 -114.5t-113.5 -43.5q-67 0 -112.5 43.5t-45.5 114.5z" />
<glyph unicode="&#x140;" horiz-adv-x="839" d="M125 375v1124h283v-1124q0 -111 45 -144.5t151 -15.5l10 -215q-114 -23 -205 -14.5t-154 48.5t-96.5 125.5t-33.5 215.5zM535 772q0 71 43 113.5t110 42.5q65 0 108.5 -43t43.5 -113t-43.5 -113t-108.5 -43q-67 0 -110 42.5t-43 113.5z" />
<glyph unicode="&#x141;" horiz-adv-x="1116" d="M41 487v246l139 39v662h307v-578l205 57v-245l-205 -58v-336h566v-274h-873v526z" />
<glyph unicode="&#x142;" horiz-adv-x="694" d="M35 485v246l143 41v725h283v-647l170 47v-246l-170 -47v-221q0 -116 45.5 -156.5t150.5 -23.5l11 -217q-119 -23 -210.5 -17t-153.5 44t-94 123t-32 220v170z" />
<glyph unicode="&#x143;" horiz-adv-x="1540" d="M166 0v1440h96l805 -819v813h307v-1438h-92l-811 823v-819h-305zM541 1528v26l161 324l279 -98v-25l-193 -227h-247z" />
<glyph unicode="&#x144;" horiz-adv-x="1257" d="M72 811v178q360 63 360 -133q38 79 127.5 116.5t188.5 37.5q102 0 178 -33.5t121.5 -94t67.5 -138.5t22 -173v-571h-289v571q4 97 -50.5 154t-135.5 57q-86 0 -147.5 -58.5t-61.5 -158.5v-565h-287v682q0 37 -1 52t-5 34.5t-14.5 26t-28 11.5t-45.5 5zM461 1178v24 l157 291l269 -88v-23l-187 -204h-239z" />
<glyph unicode="&#x145;" horiz-adv-x="1540" d="M166 0v1440h96l805 -819v813h307v-1438h-92l-811 823v-819h-305zM676 -252q0 70 46.5 112t117.5 42q55 0 97.5 -28.5t59.5 -76.5q9 -21 9 -51q0 -35 -15 -65l-82 -228h-166l50 146q-117 40 -117 149z" />
<glyph unicode="&#x146;" horiz-adv-x="1257" d="M72 811v178q360 63 360 -133q38 79 127.5 116.5t188.5 37.5q102 0 178 -33.5t121.5 -94t67.5 -138.5t22 -173v-571h-289v571q4 97 -50.5 154t-135.5 57q-86 0 -147.5 -58.5t-61.5 -158.5v-565h-287v682q0 37 -1 52t-5 34.5t-14.5 26t-28 11.5t-45.5 5zM510 -256 q0 66 44.5 106.5t111.5 40.5q54 0 94 -26.5t57 -73.5q8 -19 8 -49q0 -36 -14 -61l-78 -218h-160l48 140q-50 14 -80.5 51t-30.5 90z" />
<glyph unicode="&#x147;" horiz-adv-x="1540" d="M166 0v1440h96l805 -819v813h307v-1438h-92l-811 823v-819h-305zM285 1835v27h278l158 -160l153 160h283v-27l-293 -303h-289z" />
<glyph unicode="&#x148;" horiz-adv-x="1257" d="M72 811v178q360 63 360 -133q38 79 127.5 116.5t188.5 37.5q102 0 178 -33.5t121.5 -94t67.5 -138.5t22 -173v-571h-289v571q4 97 -50.5 154t-135.5 57q-86 0 -147.5 -58.5t-61.5 -158.5v-565h-287v682q0 37 -1 52t-5 34.5t-14.5 26t-28 11.5t-45.5 5zM156 1452v27h278 l158 -160l153 160h283v-27l-293 -303h-289z" />
<glyph unicode="&#x149;" horiz-adv-x="1257" d="M72 811v178q360 63 360 -133q38 79 127.5 116.5t188.5 37.5q102 0 178 -33.5t121.5 -94t67.5 -138.5t22 -173v-571h-289v571q4 97 -50.5 154t-135.5 57q-86 0 -147.5 -58.5t-61.5 -158.5v-565h-287v682q0 37 -1 52t-5 34.5t-14.5 26t-28 11.5t-45.5 5z" />
<glyph unicode="&#x14a;" horiz-adv-x="1540" d="M166 0v1440h96l805 -836v830h307v-1430q0 -254 -114 -345t-347 -48l9 207q117 -17 156.5 25t39.5 163v152l-647 704v-862h-305z" />
<glyph unicode="&#x14b;" horiz-adv-x="1251" d="M70 831v158q57 14 116 17t118 -6.5t97.5 -46t40.5 -97.5v-20q40 83 124 128.5t179 45.5q100 0 176 -33.5t121 -94t66.5 -139t19.5 -172.5v-591q0 -253 -125.5 -344t-361.5 -48q5 161 8 193q116 -16 156.5 32t40.5 171v587q4 97 -51 154t-136 57q-86 0 -147 -58.5 t-61 -158.5v-565h-287v692q0 82 -4 98q-11 38 -62 41q-12 1 -28 0z" />
<glyph unicode="&#x14c;" horiz-adv-x="1636" d="M86 717q0 175 61 318t164 233.5t234 139t276 48.5q113 0 219.5 -30t199 -92t161.5 -148.5t109 -207.5t40 -261q0 -161 -54 -299.5t-150 -235.5t-233 -152t-298 -55q-145 0 -275.5 49t-232 140t-161.5 234t-60 319zM395 717q0 -114 34 -203.5t92.5 -145t134.5 -84 t163 -28.5q85 0 160.5 28.5t135.5 84t95 145t35 203.5q0 111 -34.5 199.5t-94 144t-135 84.5t-160.5 29q-86 0 -162 -29.5t-135.5 -85t-94 -144t-34.5 -198.5zM473 1583v219h655v-219h-655z" />
<glyph unicode="&#x14d;" horiz-adv-x="1193" d="M74 498q0 125 45 226t118.5 163t167.5 95.5t192 33.5t192 -33.5t167.5 -95.5t118.5 -163t45 -226t-45 -226.5t-118.5 -163.5t-167.5 -96t-192 -34t-192 34t-167.5 96t-118.5 163.5t-45 226.5zM262 1169v220h656v-220h-656zM358 498q0 -65 20.5 -117t54 -84.5t76.5 -49.5 t88 -17t88 17.5t76.5 49.5t54 84.5t20.5 116.5q0 85 -35.5 147t-88.5 90t-115 28t-115 -28t-88.5 -90t-35.5 -147z" />
<glyph unicode="&#x14e;" horiz-adv-x="1636" d="M86 717q0 175 61 318t164 233.5t234 139t276 48.5q113 0 219.5 -30t199 -92t161.5 -148.5t109 -207.5t40 -261q0 -161 -54 -299.5t-150 -235.5t-233 -152t-298 -55q-145 0 -275.5 49t-232 140t-161.5 234t-60 319zM395 717q0 -114 34 -203.5t92.5 -145t134.5 -84 t163 -28.5q85 0 160.5 28.5t135.5 84t95 145t35 203.5q0 111 -34.5 199.5t-94 144t-135 84.5t-160.5 29q-86 0 -162 -29.5t-135.5 -85t-94 -144t-34.5 -198.5zM403 1927h252q0 -50 35 -84t84.5 -42t99 0t84.5 42t35 84h248q0 -87 -36 -157t-95 -113t-134 -66t-154 -23 t-154 23.5t-134 67t-95 113t-36 155.5z" />
<glyph unicode="&#x14f;" horiz-adv-x="1193" d="M74 498q0 125 45 226t118.5 163t167.5 95.5t192 33.5t192 -33.5t167.5 -95.5t118.5 -163t45 -226t-45 -226.5t-118.5 -163.5t-167.5 -96t-192 -34t-192 34t-167.5 96t-118.5 163.5t-45 226.5zM207 1468h237q0 -59 49.5 -92t109.5 -33t109.5 33.5t49.5 91.5h233 q0 -82 -34 -148.5t-89.5 -106.5t-126 -62t-144.5 -21.5t-144.5 23t-126 63t-89.5 106t-34 146.5zM358 498q0 -65 20.5 -117t54 -84.5t76.5 -49.5t88 -17t88 17.5t76.5 49.5t54 84.5t20.5 116.5q0 85 -35.5 147t-88.5 90t-115 28t-115 -28t-88.5 -90t-35.5 -147z" />
<glyph unicode="&#x150;" horiz-adv-x="1636" d="M86 717q0 175 61 318t164 233.5t234 139t276 48.5q113 0 219.5 -30t199 -92t161.5 -148.5t109 -207.5t40 -261q0 -161 -54 -299.5t-150 -235.5t-233 -152t-298 -55q-145 0 -275.5 49t-232 140t-161.5 234t-60 319zM395 717q0 -114 34 -203.5t92.5 -145t134.5 -84 t163 -28.5q85 0 160.5 28.5t135.5 84t95 145t35 203.5q0 111 -34.5 199.5t-94 144t-135 84.5t-160.5 29q-86 0 -162 -29.5t-135.5 -85t-94 -144t-34.5 -198.5zM440 1563v24l115 307l256 -57v-22l-145 -252h-226zM883 1563v24l112 285l254 -70v-24l-143 -215h-223z" />
<glyph unicode="&#x151;" horiz-adv-x="1193" d="M74 498q0 125 45 226t118.5 163t167.5 95.5t192 33.5t192 -33.5t167.5 -95.5t118.5 -163t45 -226t-45 -226.5t-118.5 -163.5t-167.5 -96t-192 -34t-192 34t-167.5 96t-118.5 163.5t-45 226.5zM240 1151v25l114 307l256 -58v-22l-145 -252h-225zM358 498q0 -65 20.5 -117 t54 -84.5t76.5 -49.5t88 -17t88 17.5t76.5 49.5t54 84.5t20.5 116.5q0 85 -35.5 147t-88.5 90t-115 28t-115 -28t-88.5 -90t-35.5 -147zM682 1151v25l113 284l254 -69v-25l-144 -215h-223z" />
<glyph unicode="&#x152;" horiz-adv-x="1892" d="M88 713q0 177 58.5 320t159 234.5t232.5 139t281 45.5q107 0 201 -22h743v-259h-530v-307h496v-241h-496v-369h551v-254h-772q-112 -25 -211 -25q-148 0 -276.5 48.5t-226.5 140t-154 233t-56 316.5zM383 713q0 -226 123 -359t321 -133q75 0 148 23v930q-66 21 -150 24 q-201 0 -321.5 -126t-120.5 -359z" />
<glyph unicode="&#x153;" horiz-adv-x="1761" d="M76 494q0 131 47 236t122 167t170 91t189 19t182 -61.5t146 -138.5q50 97 142 149t206 52q100 0 178.5 -31t125 -85.5t73.5 -128t25 -158t-21 -175.5h-602q7 -108 69.5 -163t169.5 -60q73 -7 164 13.5t156 51.5l39 -211q-185 -82 -363 -79q-129 2 -226 56t-146 167 q-33 -71 -88.5 -121.5t-120.5 -75.5t-138.5 -28.5t-144 15.5t-135 61.5t-113 103t-77.5 147t-29 187.5zM358 494q0 -64 19.5 -116t51 -83.5t71.5 -49t82.5 -17.5t82.5 17.5t71.5 49t51 83.5t19.5 116t-19.5 116t-51 83.5t-71.5 49t-82.5 17.5t-82.5 -17.5t-71.5 -49 t-51 -83.5t-19.5 -116zM1063 618h371q11 83 -43 128t-134 45q-72 0 -124.5 -46.5t-69.5 -126.5z" />
<glyph unicode="&#x154;" horiz-adv-x="1415" d="M168 2v1434h612q119 0 216.5 -41t160 -110t96 -157t33.5 -184q0 -138 -67 -250.5t-189 -171.5l324 -477v-43h-328l-295 473h-256v-473h-307zM471 727h307q95 0 154 64.5t57 158.5q0 93 -57.5 155t-153.5 62h-307v-440zM498 1561v26l172 318l293 -97v-24l-205 -223h-260z " />
<glyph unicode="&#x155;" horiz-adv-x="948" d="M72 817v176q59 14 117 16t115 -9t94.5 -49t43.5 -101q30 81 106 124.5t171 43.5q122 3 211 -64l-64 -239q-85 56 -184 53q-99 0 -165 -61.5t-66 -171.5v-535h-281v696q0 71 -18 101t-80 20zM324 1157v25l147 307l250 -92v-25l-174 -215h-223z" />
<glyph unicode="&#x156;" horiz-adv-x="1413" d="M166 2v1434h612q119 0 216.5 -41t160 -110t96 -157t33.5 -184q0 -138 -67 -250.5t-189 -171.5l324 -477v-43h-328l-295 473h-256v-473h-307zM469 727h307q95 0 154 64.5t57 158.5q0 93 -57.5 155t-153.5 62h-307v-440zM580 -256q0 70 46 112t117 42q55 0 98 -28.5 t60 -76.5q8 -19 8 -51q0 -38 -14 -66l-82 -227h-166l49 145q-116 39 -116 150z" />
<glyph unicode="&#x157;" horiz-adv-x="948" d="M72 817v176q59 14 117 16t115 -9t94.5 -49t43.5 -101q30 81 106 124.5t171 43.5q122 3 211 -64l-64 -239q-85 56 -184 53q-99 0 -165 -61.5t-66 -171.5v-535h-281v696q0 71 -18 101t-80 20zM170 -260q0 66 45 106.5t113 40.5q54 0 94 -26.5t57 -73.5q8 -19 8 -49 q0 -39 -14 -64l-78 -219h-159l47 139q-113 39 -113 146z" />
<glyph unicode="&#x158;" horiz-adv-x="1415" d="M168 2v1434h612q119 0 216.5 -41t160 -110t96 -157t33.5 -184q0 -138 -67 -250.5t-189 -171.5l324 -477v-43h-328l-295 473h-256v-473h-307zM244 1874v27h278l158 -160l154 160h282v-27l-293 -303h-288zM471 727h307q95 0 154 64.5t57 158.5q0 93 -57.5 155t-153.5 62 h-307v-440z" />
<glyph unicode="&#x159;" horiz-adv-x="948" d="M72 817v176q59 14 117 16t115 -9t94.5 -49t43.5 -101q30 81 106 124.5t171 43.5q122 3 211 -64l-64 -239q-85 56 -184 53q-99 0 -165 -61.5t-66 -171.5v-535h-281v696q0 71 -18 101t-80 20zM78 1427v25h260l147 -152l146 152h264v-25l-274 -286h-271z" />
<glyph unicode="&#x15a;" horiz-adv-x="1327" d="M86 424h293q3 -62 47 -105.5t106.5 -62t135.5 -18.5q274 0 274 180q0 34 -11 61.5t-26.5 46t-43.5 32.5t-50.5 21.5t-60.5 13.5t-60 8t-61 5q-523 46 -523 408q0 92 29.5 168t80 127.5t120.5 87t149 51.5t166 16q84 0 160 -14t148 -46.5t124 -81.5t83.5 -124t31.5 -168 h-287q-8 56 -47.5 94.5t-93.5 55t-119 16.5q-98 0 -170.5 -48t-72.5 -128q0 -37 14.5 -65t38 -45.5t61 -30.5t73.5 -19.5t87 -11.5q102 -9 176.5 -22.5t151.5 -44t125.5 -75t79 -117.5t30.5 -171t-33 -175.5t-87.5 -127t-130.5 -82.5t-155 -47.5t-169 -16.5q-111 0 -213 28 t-186 81.5t-134.5 143t-50.5 202.5zM506 1589v27l166 317l282 -96v-25l-196 -223h-252z" />
<glyph unicode="&#x15b;" horiz-adv-x="1048" d="M72 301h286q1 -58 48.5 -88.5t113.5 -28.5q72 0 120.5 26t49.5 87q0 23 -9 40t-19.5 26t-34 16t-36 9.5t-42.5 6.5q-177 24 -247 46q-181 56 -206 196q-4 24 -4 51q0 160 117 243t307 83q121 0 218 -34.5t156 -107.5t54 -174h-270q-1 51 -44 76t-110 25 q-64 0 -107.5 -27.5t-43.5 -75.5q0 -26 12 -44t36 -27t43 -12.5t50 -6.5q179 -22 242 -39q169 -45 210 -164q16 -47 15 -106q-2 -85 -40 -149.5t-101.5 -101.5t-140 -55t-163.5 -18q-91 0 -166 15t-142.5 50t-107.5 102t-44 161zM365 1161v25l147 303l248 -90v-25l-172 -213 h-223z" />
<glyph unicode="&#x15c;" horiz-adv-x="1327" d="M86 424h293q3 -62 47 -105.5t106.5 -62t135.5 -18.5q274 0 274 180q0 34 -11 61.5t-26.5 46t-43.5 32.5t-50.5 21.5t-60.5 13.5t-60 8t-61 5q-523 46 -523 408q0 92 29.5 168t80 127.5t120.5 87t149 51.5t166 16q84 0 160 -14t148 -46.5t124 -81.5t83.5 -124t31.5 -168 h-287q-8 56 -47.5 94.5t-93.5 55t-119 16.5q-98 0 -170.5 -48t-72.5 -128q0 -37 14.5 -65t38 -45.5t61 -30.5t73.5 -19.5t87 -11.5q102 -9 176.5 -22.5t151.5 -44t125.5 -75t79 -117.5t30.5 -171t-33 -175.5t-87.5 -127t-130.5 -82.5t-155 -47.5t-169 -16.5q-111 0 -213 28 t-186 81.5t-134.5 143t-50.5 202.5zM236 1567v28l292 303h287l291 -305v-26h-272l-162 159l-160 -159h-276z" />
<glyph unicode="&#x15d;" horiz-adv-x="1048" d="M72 301h286q1 -58 48.5 -88.5t113.5 -28.5q72 0 120.5 26t49.5 87q0 23 -9 40t-19.5 26t-34 16t-36 9.5t-42.5 6.5q-177 24 -247 46q-181 56 -206 196q-4 24 -4 51q0 160 117 243t307 83q121 0 218 -34.5t156 -107.5t54 -174h-270q-1 51 -44 76t-110 25 q-64 0 -107.5 -27.5t-43.5 -75.5q0 -26 12 -44t36 -27t43 -12.5t50 -6.5q179 -22 242 -39q169 -45 210 -164q16 -47 15 -106q-2 -85 -40 -149.5t-101.5 -101.5t-140 -55t-163.5 -18q-91 0 -166 15t-142.5 50t-107.5 102t-44 161zM135 1143v28l264 283h256l263 -285v-26h-246 l-144 149l-143 -149h-250z" />
<glyph unicode="&#x15e;" horiz-adv-x="1325" d="M86 424h293q3 -62 47 -105.5t106.5 -62t135.5 -18.5q67 0 127.5 19t103.5 61.5t43 99.5q0 34 -11 61.5t-26.5 46t-43.5 32.5t-50.5 21.5t-60.5 13.5t-60 8t-61 5q-523 46 -523 406q0 88 30 162.5t81.5 127t121 89.5t148.5 55t164 18q103 0 199 -28t174.5 -81.5 t126 -140.5t47.5 -196h-287q-3 59 -42.5 100t-94.5 57.5t-119 16.5q-44 0 -85 -8.5t-79 -27.5t-60.5 -54.5t-22.5 -83.5q0 -44 20.5 -75.5t61.5 -50t85 -28t107 -16.5q102 -9 176.5 -22.5t151.5 -44t125.5 -75t79 -117.5t30.5 -171q0 -92 -36.5 -169t-99.5 -129.5 t-141 -86.5t-167 -49l-29 -121q98 -11 136 -78.5t12 -155.5q-21 -66 -79.5 -103.5t-129.5 -43t-145.5 10.5t-131.5 52l17 158q28 -22 78 -33t96 -1t57 44q11 35 -14 58.5t-58.5 31t-66.5 7.5l43 165q-99 9 -186.5 41t-159 85.5t-113 137t-41.5 185.5z" />
<glyph unicode="&#x15f;" horiz-adv-x="1052" d="M74 301h286q1 -58 48.5 -88.5t113.5 -28.5q72 0 120.5 26t49.5 87q0 23 -9 40t-19.5 26t-34 16t-36 9.5t-42.5 6.5q-177 24 -247 46q-181 56 -206 196q-4 24 -4 51q0 160 117 243t307 83q121 0 218 -34.5t156 -107.5t54 -174h-270q-1 51 -44 76t-110 25 q-64 0 -107.5 -27.5t-43.5 -75.5q0 -26 12 -44t36 -27t43 -12.5t50 -6.5q179 -22 242 -39q169 -45 210 -164q16 -47 15 -106q-2 -71 -29 -128t-73.5 -94t-103.5 -59.5t-126 -33.5l-20 -80q90 -10 124.5 -70t8.5 -137q-17 -59 -69.5 -93t-117 -39.5t-131 9t-116.5 45.5 l14 141q41 -32 114.5 -32.5t92.5 43.5q11 30 -11 51t-52 28t-60 7l31 122q-373 31 -381 324z" />
<glyph unicode="&#x160;" horiz-adv-x="1327" d="M86 424h293q3 -62 47 -105.5t106.5 -62t135.5 -18.5q274 0 274 180q0 34 -11 61.5t-26.5 46t-43.5 32.5t-50.5 21.5t-60.5 13.5t-60 8t-61 5q-523 46 -523 408q0 92 29.5 168t80 127.5t120.5 87t149 51.5t166 16q84 0 160 -14t148 -46.5t124 -81.5t83.5 -124t31.5 -168 h-287q-8 56 -47.5 94.5t-93.5 55t-119 16.5q-98 0 -170.5 -48t-72.5 -128q0 -37 14.5 -65t38 -45.5t61 -30.5t73.5 -19.5t87 -11.5q102 -9 176.5 -22.5t151.5 -44t125.5 -75t79 -117.5t30.5 -171t-33 -175.5t-87.5 -127t-130.5 -82.5t-155 -47.5t-169 -16.5q-111 0 -213 28 t-186 81.5t-134.5 143t-50.5 202.5zM231 1890v27h279l158 -160l153 160h283v-27l-293 -303h-289z" />
<glyph unicode="&#x161;" horiz-adv-x="1048" d="M72 301h286q1 -58 48.5 -88.5t113.5 -28.5q72 0 120.5 26t49.5 87q0 23 -9 40t-19.5 26t-34 16t-36 9.5t-42.5 6.5q-177 24 -247 46q-181 56 -206 196q-4 24 -4 51q0 160 117 243t307 83q121 0 218 -34.5t156 -107.5t54 -174h-270q-1 51 -44 76t-110 25 q-64 0 -107.5 -27.5t-43.5 -75.5q0 -26 12 -44t36 -27t43 -12.5t50 -6.5q179 -22 242 -39q169 -45 210 -164q16 -47 15 -106q-2 -85 -40 -149.5t-101.5 -101.5t-140 -55t-163.5 -18q-91 0 -166 15t-142.5 50t-107.5 102t-44 161zM135 1421v25h254l141 -146l140 146h256v-25 l-264 -272h-263z" />
<glyph unicode="&#x162;" d="M41 1163v271h1046v-271h-372v-1163h-47l-27 -113q98 -11 134.5 -77t10.5 -156q-21 -66 -79 -103.5t-128.5 -43t-144.5 10.5t-131 52l16 158q45 -37 127 -38t103 48q8 27 -3.5 47t-35.5 30t-49 14.5t-49 4.5l43 166h-37v1163h-377z" />
<glyph unicode="&#x163;" horiz-adv-x="923" d="M43 801v184h186l31 307h250v-307h321v-203h-321v-387q0 -74 30 -120.5t80 -61.5t109 -10t123 28l27 -217q-119 -31 -217 -37l-23 -90q98 -11 134.5 -77t10.5 -156q-21 -66 -79 -103.5t-128.5 -43t-144.5 10.5t-131 52l16 158q45 -37 127 -38t103 48q8 27 -3.5 47 t-35.5 30t-49 14.5t-49 4.5l43 168q-224 76 -224 387v393z" />
<glyph unicode="&#x164;" horiz-adv-x="1134" d="M37 1167v267h1061v-267h-381v-1167h-297v1167h-383zM129 1860v26h279l157 -160l154 160h282v-26l-292 -304h-289z" />
<glyph unicode="&#x165;" horiz-adv-x="991" d="M43 788v197h207l31 307h229v-307h217v-215h-217v-383q0 -74 28.5 -119t77.5 -58.5t106 -7.5t122 29l26 -217q-106 -29 -197.5 -37t-174.5 9.5t-141.5 62.5t-93 129.5t-34.5 202.5v389zM748 1159q0 68 44 109t113 41q54 0 93.5 -27t56.5 -74q8 -21 8 -49q-3 -37 -14 -61 l-78 -242h-158l45 164q-49 12 -79.5 49t-30.5 90z" />
<glyph unicode="&#x166;" horiz-adv-x="1134" d="M43 1163v271h1047v-271h-373v-405h184v-228h-184v-530h-297v530h-195v228h195v405h-377z" />
<glyph unicode="&#x167;" horiz-adv-x="925" d="M47 801v184h186l31 307h250v-307h322v-203h-322v-182h182v-194h-182v-27q0 -59 20 -99.5t53 -58.5t78 -22t92 4.5t99 27.5l27 -217q-106 -29 -198.5 -38t-177 7.5t-144 60.5t-95 127.5t-35.5 201.5v33h-147v194h147v182q-41 5 -186 19z" />
<glyph unicode="&#x168;" horiz-adv-x="1447" d="M154 477v957h307v-951q0 -110 76.5 -170.5t189.5 -60.5q112 0 188 60.5t76 170.5v951h303v-957q0 -117 -46 -212.5t-124.5 -156.5t-180 -93.5t-216.5 -32.5t-217.5 32.5t-182.5 93.5t-126.5 156.5t-46.5 212.5zM338 1651q61 153 161 199t244 -23q25 -14 45 -23t47 -15.5 t48 -3.5t41 20t32 48q28 -13 75.5 -35t74.5 -34q-42 -142 -149.5 -196.5t-235.5 9.5q-28 15 -42.5 21.5t-40.5 17t-43 10.5t-37.5 -4t-36.5 -21t-29 -44z" />
<glyph unicode="&#x169;" horiz-adv-x="1239" d="M123 422v565h289v-565q-4 -101 44 -156t126 -55q87 -2 144.5 58.5t57.5 158.5v559h287v-690q0 -76 15 -99.5t77 -19.5l2 -178q-60 -14 -116 -18t-114.5 5.5t-94 49t-35.5 106.5q-38 -80 -125.5 -118.5t-190.5 -38.5q-83 0 -147 22t-105 60t-67 94.5t-36.5 119.5 t-10.5 140zM233 1257q58 149 156 193t238 -23q161 -90 207 27l143 -68q-24 -89 -82.5 -145.5t-133 -66t-157.5 31.5q-80 38 -106 44q-77 15 -117 -64q-25 13 -79.5 38.5t-68.5 32.5z" />
<glyph unicode="&#x16a;" horiz-adv-x="1447" d="M154 477v957h307v-951q0 -110 76.5 -170.5t189.5 -60.5q112 0 188 60.5t76 170.5v951h303v-957q0 -117 -46 -212.5t-124.5 -156.5t-180 -93.5t-216.5 -32.5t-217.5 32.5t-182.5 93.5t-126.5 156.5t-46.5 212.5zM393 1575v219h656v-219h-656z" />
<glyph unicode="&#x16b;" horiz-adv-x="1239" d="M123 422v565h289v-565q-4 -101 44 -156t126 -55q87 -2 144.5 58.5t57.5 158.5v559h287v-690q0 -76 15 -99.5t77 -19.5l2 -178q-60 -14 -116 -18t-114.5 5.5t-94 49t-35.5 106.5q-38 -80 -125.5 -118.5t-190.5 -38.5q-83 0 -147 22t-105 60t-67 94.5t-36.5 119.5 t-10.5 140zM268 1171v220h656v-220h-656z" />
<glyph unicode="&#x16c;" horiz-adv-x="1447" d="M154 477v957h307v-951q0 -110 76.5 -170.5t189.5 -60.5q112 0 188 60.5t76 170.5v951h303v-957q0 -117 -46 -212.5t-124.5 -156.5t-180 -93.5t-216.5 -32.5t-217.5 32.5t-182.5 93.5t-126.5 156.5t-46.5 212.5zM309 1925h252q0 -50 35 -84t84.5 -42t99 0t84.5 42t35 84 h248q0 -87 -36 -157t-95 -113t-134 -66t-154 -23t-154 23.5t-134 67t-95 113t-36 155.5z" />
<glyph unicode="&#x16d;" horiz-adv-x="1239" d="M123 422v565h289v-565q-4 -101 44 -156t126 -55q87 -2 144.5 58.5t57.5 158.5v559h287v-690q0 -76 15 -99.5t77 -19.5l2 -178q-60 -14 -116 -18t-114.5 5.5t-94 49t-35.5 106.5q-38 -80 -125.5 -118.5t-190.5 -38.5q-83 0 -147 22t-105 60t-67 94.5t-36.5 119.5 t-10.5 140zM199 1454h235q0 -34 17.5 -60.5t45 -40t61 -20t67 0t61 20t45 40t17.5 60.5h231q0 -81 -33.5 -146.5t-88.5 -105.5t-125 -61.5t-143 -21t-143 22.5t-125 62t-88.5 105t-33.5 145z" />
<glyph unicode="&#x16e;" horiz-adv-x="1447" d="M154 477v957h307v-951q0 -110 76.5 -170.5t189.5 -60.5q112 0 188 60.5t76 170.5v951h303v-957q0 -117 -46 -212.5t-124.5 -156.5t-180 -93.5t-216.5 -32.5t-217.5 32.5t-182.5 93.5t-126.5 156.5t-46.5 212.5zM463 1749q0 66 28.5 118t74.5 79t101.5 39.5t111 0 t101.5 -39.5t74.5 -79t28.5 -118t-28.5 -118t-74.5 -79t-101.5 -39.5t-111 0t-101.5 39.5t-74.5 79t-28.5 118zM621 1749q0 -44 32 -68.5t71 -24.5t71 24.5t32 68.5t-32 69.5t-71 25.5t-71 -25.5t-32 -69.5z" />
<glyph unicode="&#x16f;" horiz-adv-x="1239" d="M123 422v565h289v-565q-4 -101 44 -156t126 -55q87 -2 144.5 58.5t57.5 158.5v559h287v-690q0 -76 15 -99.5t77 -19.5l2 -178q-60 -14 -116 -18t-114.5 5.5t-94 49t-35.5 106.5q-38 -80 -125.5 -118.5t-190.5 -38.5q-83 0 -147 22t-105 60t-67 94.5t-36.5 119.5 t-10.5 140zM344 1315q0 54 22 97.5t57.5 70t81 41t93.5 14.5t93.5 -14.5t81 -41t57.5 -70t22 -97.5t-22 -98.5t-57.5 -71.5t-81 -41.5t-93.5 -14.5t-93.5 14.5t-81 41.5t-57.5 71.5t-22 98.5zM498 1315q0 -41 31.5 -64t69.5 -23t69.5 23t31.5 64t-31.5 64t-69.5 23 t-69.5 -23t-31.5 -64z" />
<glyph unicode="&#x170;" horiz-adv-x="1447" d="M154 477v957h307v-951q0 -110 76.5 -170.5t189.5 -60.5q112 0 188 60.5t76 170.5v951h303v-957q0 -117 -46 -212.5t-124.5 -156.5t-180 -93.5t-216.5 -32.5t-217.5 32.5t-182.5 93.5t-126.5 156.5t-46.5 212.5zM381 1591v25l115 307l256 -57v-23l-146 -252h-225z M823 1591v25l113 285l254 -70v-25l-143 -215h-224z" />
<glyph unicode="&#x171;" horiz-adv-x="1239" d="M123 422v565h289v-565q-4 -101 44 -156t126 -55q87 -2 144.5 58.5t57.5 158.5v559h287v-690q0 -76 15 -99.5t77 -19.5l2 -178q-60 -14 -116 -18t-114.5 5.5t-94 49t-35.5 106.5q-38 -80 -125.5 -118.5t-190.5 -38.5q-83 0 -147 22t-105 60t-67 94.5t-36.5 119.5 t-10.5 140zM274 1174v24l109 289l242 -53v-21l-138 -239h-213zM692 1174v24l107 268l239 -65v-23l-135 -204h-211z" />
<glyph unicode="&#x172;" horiz-adv-x="1449" d="M154 477v957h307v-951q0 -111 75.5 -171t190.5 -60q112 0 188 60.5t76 170.5v951h303v-957q0 -154 -75 -264.5t-205 -173.5q-51 -42 -72 -95.5t4 -107.5q19 -35 54 -47t74.5 -3.5t74 23t63.5 33.5l41 -180q-60 -38 -138 -60t-156.5 -21.5t-143.5 43t-88 126.5 q-34 121 47 236q-28 -4 -47 -4q-115 0 -217.5 32.5t-182.5 93.5t-126.5 156.5t-46.5 212.5z" />
<glyph unicode="&#x173;" horiz-adv-x="1236" d="M123 442v545h289v-545q-5 -110 39.5 -170.5t130.5 -60.5q87 -2 144.5 58.5t57.5 158.5v559h287v-670q0 -10 -0.5 -32t0 -30t1.5 -25t3.5 -23t6.5 -17t11 -15t16.5 -9t23 -6t30.5 0l2 -160q-107 -18 -159 -20q-29 -25 -48 -56t-24.5 -66.5t12.5 -66.5q22 -42 71.5 -46.5 t94.5 12.5t82 42l37 -170q-43 -28 -98 -46.5t-115 -22t-113.5 9.5t-95.5 53.5t-59 104.5q-26 80 6.5 152t103.5 126q-67 40 -67 135v23q-40 -84 -124 -131t-180 -47q-87 0 -152 23.5t-105.5 63.5t-65 99.5t-34 124t-9.5 145.5z" />
<glyph unicode="&#x174;" horiz-adv-x="1986" d="M29 1389v45h321l146 -439l129 -475h6l299 889h125l309 -889h6l121 477l143 437h322v-45l-494 -1401h-182l-285 774h-6l-276 -774h-189zM557 1556v29l293 303h287l290 -305v-27h-272l-162 160l-159 -160h-277z" />
<glyph unicode="&#x175;" horiz-adv-x="1574" d="M25 954v33h305l104 -289l76 -225h4l221 492h109l223 -492h6l74 225l96 289h309v-33l-409 -968h-109l-123 241l-123 260l-118 -268l-113 -233h-127zM373 1151v27l276 286h273l274 -288v-25h-258l-154 152l-149 -152h-262z" />
<glyph unicode="&#x176;" horiz-adv-x="1300" d="M4 1389v45h330l178 -306l135 -274h10l142 285l172 295h325v-45l-491 -816v-573h-307v573zM207 1569v28l293 304h286l291 -306v-26h-272l-162 160l-160 -160h-276z" />
<glyph unicode="&#x177;" horiz-adv-x="1144" d="M14 954v33h301l134 -334l129 -364h6l112 362l119 336h291v-33l-418 -1050q-41 -105 -77.5 -175t-88.5 -128t-112.5 -81.5t-144 -19.5t-189.5 43l30 199q79 -38 138 -28.5t98 53.5t68 129l36 102zM137 1147v29l293 303h287l291 -305v-27h-273l-162 160l-159 -160h-277z " />
<glyph unicode="&#x178;" horiz-adv-x="1300" d="M4 1389v45h330l178 -306l135 -274h10l142 285l172 295h325v-45l-491 -816v-573h-307v573zM217 1710q0 66 47 107t115 41q69 0 116.5 -41t47.5 -107t-47.5 -106.5t-116.5 -40.5q-68 0 -115 40.5t-47 106.5zM762 1710q0 66 46.5 107t115.5 41t115 -41t46 -107t-46 -106.5 t-115 -40.5t-115.5 40.5t-46.5 106.5z" />
<glyph unicode="&#x179;" horiz-adv-x="1239" d="M45 0v43l657 1122h-600v269h1057v-45l-649 -1115h655v-274h-1120zM498 1595v27l153 320l262 -97v-24l-182 -226h-233z" />
<glyph unicode="&#x17a;" horiz-adv-x="980" d="M59 0v33l437 717h-406v237h813v-33l-430 -706h430v-248h-844zM360 1153v27l146 299l246 -90v-23l-172 -213h-220z" />
<glyph unicode="&#x17b;" horiz-adv-x="1239" d="M45 0v43l657 1122h-600v269h1057v-45l-649 -1115h655v-274h-1120zM465 1716q0 70 48.5 114t119.5 44q73 0 121.5 -43.5t48.5 -114.5t-48 -113t-122 -42q-71 0 -119.5 42.5t-48.5 112.5z" />
<glyph unicode="&#x17c;" horiz-adv-x="980" d="M59 0v33l437 717h-406v237h813v-33l-430 -706h430v-248h-844zM346 1284q0 68 46 110t114 42q70 0 117 -42t47 -110q0 -66 -46.5 -106.5t-117.5 -40.5q-68 0 -114 40.5t-46 106.5z" />
<glyph unicode="&#x17d;" horiz-adv-x="1239" d="M45 0v43l657 1122h-600v269h1057v-45l-649 -1115h655v-274h-1120zM213 1880v27h279l157 -160l154 160h282v-27l-292 -303h-289z" />
<glyph unicode="&#x17e;" horiz-adv-x="980" d="M59 0v33l437 717h-406v237h813v-33l-430 -706h430v-248h-844zM129 1427v23h238l133 -137l131 137h239v-23l-247 -258h-246z" />
<glyph unicode="&#x17f;" horiz-adv-x="700" d="M43 784v203h188v117q0 117 34.5 201t93 128.5t139.5 61.5t170.5 8t189.5 -39l-29 -213q-47 18 -90 26t-85 4.5t-73 -22t-50 -59.5t-19 -102v-1098h-287v784h-182z" />
<glyph unicode="&#x192;" horiz-adv-x="1142" d="M74 -422l26 213q59 -22 114 -28.5t104.5 4.5t79.5 55t30 119v655h-297v205h297q0 27 -1 98t-1 109t4 91.5t12 90.5q16 88 59 150t102.5 93.5t137 41.5t159.5 0t173 -37l-29 -213q-61 22 -116 28.5t-105 -5.5t-80 -57.5t-30 -121.5v-268h307v-205h-307q0 -110 -1 -330.5 t-1 -331.5q0 -117 -35.5 -200t-95.5 -127t-143 -61t-173 -7.5t-190 39.5z" />
<glyph unicode="&#x1fa;" horiz-adv-x="1439" d="M-8 0v41l600 1278q-133 58 -133 186q0 51 22.5 92t59 66.5t83.5 39t96 13.5t96 -13.5t83.5 -39t59 -66.5t22.5 -92q0 -66 -36 -112.5t-95 -71.5l598 -1280v-41h-318l-112 238h-596l-111 -238h-319zM522 496h398l-195 442h-10zM596 1759v21l168 245l256 -53v-18l-197 -195 h-227zM618 1503q0 -38 32.5 -59t71 -21t71 21t32.5 59q0 39 -32.5 61t-71 22t-71 -22t-32.5 -61z" />
<glyph unicode="&#x1fb;" d="M66 291q-5 117 46.5 199t137.5 119.5t199 37.5q163 0 262 -63v67q0 35 -16.5 61t-41.5 41t-59.5 24.5t-65 12.5t-63.5 3q-178 0 -285 -60l-37 205q157 74 371 74q101 0 182 -18t148 -59t104 -115t37 -177v-356q0 -34 0.5 -47t5 -34.5t13.5 -28.5t27 -13t46 -4l2 -160 q-48 -11 -90.5 -14t-84.5 3t-71.5 23.5t-48 53t-18.5 86.5q-41 -86 -138 -128t-204 -42q-143 0 -248.5 85.5t-109.5 223.5zM289 1309q0 60 29 107t75.5 71t103 35.5t113 0t103 -35.5t75.5 -71t29 -107t-29 -107t-75.5 -71t-103 -35.5t-113 0t-103 35.5t-75.5 71t-29 107z M346 309q4 -51 43 -78.5t92 -27.5q80 0 148.5 39.5t75.5 111.5v52q-83 57 -205 57q-72 -5 -116.5 -45t-37.5 -109zM424 1583v21l166 245l284 -73v-19l-196 -174h-254zM449 1309q0 -32 21.5 -53.5t52.5 -26.5t62 0t52.5 26.5t21.5 53.5q0 41 -33 64t-72 23t-72 -23t-33 -64z " />
<glyph unicode="&#x1fc;" horiz-adv-x="1687" d="M-10 0v45l667 1385h902v-263h-498v-297h465v-254h-465v-354h520v-262h-782v346h-359l-155 -346h-295zM535 596h264l12 571h-4zM868 1567v26l154 320l262 -96v-25l-182 -225h-234z" />
<glyph unicode="&#x1fd;" horiz-adv-x="1650" d="M63 287q-4 149 76 238t217 110q55 9 113 6q142 -11 229 -63v55q0 44 -24.5 77t-64 50t-79.5 25t-81 8q-151 0 -273 -64l-35 201q149 78 361 78q121 0 212.5 -43.5t121.5 -137.5q41 87 130.5 134t192.5 47q84 0 153.5 -21.5t117.5 -60t81 -92t47.5 -117.5t13 -136 t-19.5 -149h-618q6 -116 69 -175.5t175 -61.5q82 -4 175.5 14.5t157.5 48.5l35 -197q-199 -86 -370 -86q-255 0 -369 189q-151 -184 -391 -184q-91 0 -169.5 35.5t-129.5 107t-54 164.5zM342 307q4 -53 41.5 -80.5t91.5 -27.5q48 0 96 16t85.5 51.5t45.5 81.5l-6 53 q-102 67 -202 58q-70 -2 -114 -43.5t-38 -108.5zM719 1153v25l147 303l248 -90v-25l-172 -213h-223zM940 621h373q4 76 -44.5 120.5t-125.5 44.5q-74 5 -130 -39.5t-73 -125.5z" />
<glyph unicode="&#x1fe;" horiz-adv-x="1630" d="M86 717q0 175 61 318t163.5 233.5t233 139t273.5 48.5q147 0 270 -49l82 141h289v-28l-147 -246q233 -206 233 -557q0 -175 -61 -318.5t-163.5 -234.5t-233 -140t-273.5 -49q-134 0 -250 45l-86 -143l-143 -1q-144 0 -144 1v31l144 239q-116 97 -182 241t-66 329z M393 717q0 -192 115 -307l436 733q-64 22 -127 22q-84 0 -160.5 -30t-135 -85.5t-93.5 -142t-35 -190.5zM682 1616v26l154 320l262 -96v-25l-183 -225h-233zM707 287q52 -21 112 -21q83 0 159 31t134 87t92.5 142.5t34.5 190.5q0 179 -104 291z" />
<glyph unicode="&#x1ff;" horiz-adv-x="1196" d="M76 498q0 86 21.5 161t59 131t89 100t112 71t126 40.5t132.5 11.5t132 -18l59 119h223l-102 -205q90 -66 142 -170t52 -241q0 -84 -21 -158t-58 -130.5t-87 -101t-109 -72.5t-123.5 -43t-131 -13.5t-129.5 18.5l-55 -113h-224l99 193q-96 64 -151.5 170.5t-55.5 249.5z M350 498q0 -111 68 -176l225 446q-52 10 -103.5 -2.5t-94 -45t-69 -90.5t-26.5 -132zM467 1180v24l145 303l246 -92v-22l-172 -213h-219zM563 225q51 -9 101.5 5t92 46.5t67.5 90.5t26 131q0 99 -62 168z" />
<glyph unicode="&#x218;" horiz-adv-x="1327" d="M86 424h293q3 -62 47 -105.5t106.5 -62t135.5 -18.5q274 0 274 180q0 34 -11 61.5t-26.5 46t-43.5 32.5t-50.5 21.5t-60.5 13.5t-60 8t-61 5q-523 46 -523 408q0 92 29.5 168t80 127.5t120.5 87t149 51.5t166 16q84 0 160 -14t148 -46.5t124 -81.5t83.5 -124t31.5 -168 h-287q-8 56 -47.5 94.5t-93.5 55t-119 16.5q-98 0 -170.5 -48t-72.5 -128q0 -37 14.5 -65t38 -45.5t61 -30.5t73.5 -19.5t87 -11.5q102 -9 176.5 -22.5t151.5 -44t125.5 -75t79 -117.5t30.5 -171t-33 -175.5t-87.5 -127t-130.5 -82.5t-155 -47.5t-169 -16.5q-111 0 -213 28 t-186 81.5t-134.5 143t-50.5 202.5zM545 -272q0 70 46.5 111.5t117.5 41.5q55 0 97.5 -28t59.5 -76q8 -19 8 -51q0 -38 -14 -66l-82 -227h-166l50 145q-117 40 -117 150z" />
<glyph unicode="&#x219;" horiz-adv-x="1048" d="M72 301h286q1 -58 48.5 -88.5t113.5 -28.5q72 0 120.5 26t49.5 87q0 23 -9 40t-19.5 26t-34 16t-36 9.5t-42.5 6.5q-177 24 -247 46q-181 56 -206 196q-4 24 -4 51q0 160 117 243t307 83q121 0 218 -34.5t156 -107.5t54 -174h-270q-1 51 -44 76t-110 25 q-64 0 -107.5 -27.5t-43.5 -75.5q0 -26 12 -44t36 -27t43 -12.5t50 -6.5q179 -22 242 -39q169 -45 210 -164q16 -47 15 -106q-2 -85 -40 -149.5t-101.5 -101.5t-140 -55t-163.5 -18q-91 0 -166 15t-142.5 50t-107.5 102t-44 161zM399 -287q0 65 44.5 105.5t111.5 40.5 q53 0 92.5 -27t57.5 -72q8 -19 8 -49q0 -29 -15 -63l-77 -215h-158l47 137q-111 41 -111 143z" />
<glyph unicode="&#x21a;" horiz-adv-x="1134" d="M37 1167v267h1061v-267h-381v-1167h-297v1167h-383zM420 -252q0 70 46.5 112t117.5 42q55 0 97.5 -28.5t59.5 -76.5q9 -21 9 -51q0 -35 -15 -65l-82 -228h-166l50 146q-117 40 -117 149z" />
<glyph unicode="&#x21b;" horiz-adv-x="921" d="M43 788v197h207l31 307h229v-307h321v-215h-321v-383q0 -74 28.5 -119t77.5 -58.5t106 -7.5t122 29l26 -217q-106 -29 -197.5 -37t-174.5 9.5t-141.5 62.5t-93 129.5t-34.5 202.5v389zM406 -285q0 64 43 103t108 39q54 0 92.5 -26t52.5 -71q9 -24 9 -47q0 -26 -15 -61 l-73 -211h-154l45 133q-108 39 -108 141z" />
<glyph unicode="&#x2c6;" horiz-adv-x="1011" d="M94 1106v29l293 303h287l291 -305v-27h-273l-162 160l-159 -160h-277z" />
<glyph unicode="&#x2c7;" horiz-adv-x="1087" d="M104 1409v27h279l158 -160l153 160h283v-27l-293 -303h-289z" />
<glyph unicode="&#x2d8;" horiz-adv-x="1083" d="M117 1436h252q0 -50 35 -84t84.5 -42t99 0t84.5 42t35 84h247q0 -87 -36 -157t-95 -113t-134 -66t-153.5 -23t-153.5 23.5t-134 67t-95 113t-36 155.5z" />
<glyph unicode="&#x2d9;" horiz-adv-x="657" d="M131 1298q0 70 48.5 114t119.5 44q73 0 121.5 -43.5t48.5 -114.5t-48 -113t-122 -42q-71 0 -119.5 42.5t-48.5 112.5z" />
<glyph unicode="&#x2da;" horiz-adv-x="776" d="M123 1251q0 66 28.5 118t74.5 79t101.5 39.5t111 0t101.5 -39.5t74.5 -79t28.5 -118t-28.5 -118t-74.5 -79t-101.5 -39.5t-111 0t-101.5 39.5t-74.5 79t-28.5 118zM281 1251q0 -44 32 -68.5t71 -24.5t71 24.5t32 68.5t-32 69.5t-71 25.5t-71 -25.5t-32 -69.5z" />
<glyph unicode="&#x2db;" horiz-adv-x="745" d="M133 -285q-51 167 125 303h205q-71 -36 -110 -105.5t-7 -129.5q19 -34 54 -45.5t75 -3t75 23t64 33.5l39 -182q-47 -30 -106 -50t-124 -24t-122.5 10t-103 57.5t-64.5 112.5z" />
<glyph unicode="&#x2dc;" horiz-adv-x="960" d="M94 1247q61 152 161.5 198.5t244.5 -22.5q25 -14 45.5 -23t47 -15.5t47.5 -3t41 20.5t32 48q28 -12 75 -34.5t74 -35.5q-42 -142 -149.5 -196t-235.5 10q-28 15 -42.5 21.5t-40.5 17t-43 10.5t-37.5 -4t-36.5 -21t-29 -44z" />
<glyph unicode="&#x2dd;" horiz-adv-x="1060" d="M139 1128v25l115 307l256 -57v-23l-145 -252h-226zM582 1128v25l112 285l254 -70v-25l-143 -215h-223z" />
<glyph unicode="&#x401;" horiz-adv-x="1171" d="M166 0v1434h878v-269h-569v-291h533v-268h-533v-327h586v-279h-895zM172 1706q0 66 47 106.5t115 40.5q69 0 116.5 -40.5t47.5 -106.5t-47.5 -106.5t-116.5 -40.5q-68 0 -115 40.5t-47 106.5zM717 1706q0 66 46.5 106.5t115.5 40.5t115 -40.5t46 -106.5t-46 -106.5 t-115 -40.5t-115.5 40.5t-46.5 106.5z" />
<glyph unicode="&#x402;" horiz-adv-x="1550" d="M39 1167v267h1126v-267h-458v-368q59 84 154.5 121t197.5 34q81 -2 156 -35t132.5 -89.5t91.5 -140t34 -181.5v-328q0 -132 -34 -221t-97.5 -133t-155 -55.5t-205.5 12.5l10 211q49 -8 83.5 -2.5t56 15t34 35t17 57.5t4.5 83v326q0 98 -63.5 153.5t-157.5 57.5 q-96 2 -175 -68.5t-83 -163.5v-487h-297v1167h-371z" />
<glyph unicode="&#x403;" horiz-adv-x="1069" d="M166 0v1434h872v-269h-567v-1165h-305zM467 1565v26l186 328l258 -94v-27l-215 -233h-229z" />
<glyph unicode="&#x404;" horiz-adv-x="1556" d="M86 717q0 139 38.5 258.5t106.5 206.5t159 148.5t197 92t220 29.5q90 0 175.5 -19t166.5 -60t145.5 -100.5t112 -145.5t66.5 -189h-297q-45 118 -141 178t-228 60q-159 2 -269 -85.5t-130 -240.5h524v-262h-520q28 -151 139.5 -240.5t267.5 -89.5q136 0 236.5 67 t136.5 193h297q-18 -110 -64.5 -200t-111.5 -151t-146.5 -103t-168.5 -61t-179 -19q-114 0 -221 30t-200 91t-162.5 147t-109.5 206t-40 259z" />
<glyph unicode="&#x405;" horiz-adv-x="1327" d="M86 424h293q3 -62 47 -105.5t106.5 -62t135.5 -18.5q274 0 274 180q0 34 -11 61.5t-26.5 46t-43.5 32.5t-50.5 21.5t-60.5 13.5t-60 8t-61 5q-523 46 -523 408q0 92 29.5 168t80 127.5t120.5 87t149 51.5t166 16q84 0 160 -14t148 -46.5t124 -81.5t83.5 -124t31.5 -168 h-287q-8 56 -47.5 94.5t-93.5 55t-119 16.5q-98 0 -170.5 -48t-72.5 -128q0 -37 14.5 -65t38 -45.5t61 -30.5t73.5 -19.5t87 -11.5q102 -9 176.5 -22.5t151.5 -44t125.5 -75t79 -117.5t30.5 -171t-33 -175.5t-87.5 -127t-130.5 -82.5t-155 -47.5t-169 -16.5q-111 0 -213 28 t-186 81.5t-134.5 143t-50.5 202.5z" />
<glyph unicode="&#x406;" horiz-adv-x="897" d="M92 0v244h203v952h-186v238h679v-238h-186v-952h203v-244h-713z" />
<glyph unicode="&#x407;" horiz-adv-x="897" d="M25 1712q0 66 46.5 107t114.5 41q69 0 116.5 -41t47.5 -107t-47.5 -106.5t-116.5 -40.5q-68 0 -114.5 40.5t-46.5 106.5zM92 0v244h203v952h-186v238h679v-238h-186v-952h203v-244h-713zM569 1712q0 66 46.5 107t115.5 41t115.5 -41t46.5 -107t-46.5 -106.5t-115.5 -40.5 t-115.5 40.5t-46.5 106.5z" />
<glyph unicode="&#x408;" horiz-adv-x="1290" d="M53 475v174h285v-168q0 -112 68.5 -170.5t181.5 -58.5q111 0 176 59.5t65 169.5v688h-256v265h564v-959q0 -151 -76 -265t-199.5 -172t-273.5 -58t-270.5 58t-192.5 172t-72 265z" />
<glyph unicode="&#x409;" horiz-adv-x="2041" d="M31 6l6 221q31 -4 56.5 -3.5t46 3.5t36 11.5t27.5 18.5t21 27t15.5 33t11.5 41t8 47.5t7 55.5l103 973h868v-449h250q124 0 222.5 -43.5t158.5 -116.5t91.5 -164t31.5 -192q0 -210 -140 -339.5t-368 -129.5h-537v1159h-309q-14 -134 -36 -380t-30 -330q-9 -87 -22 -151.5 t-33 -117.5t-50 -87.5t-69.5 -58.5t-93.5 -33t-120 -8t-152 13zM1237 270q31 0 101.5 -1t93.5 -1q71 0 130.5 20.5t99.5 67t40 111.5q0 76 -21 126t-64 76t-94.5 36t-125.5 10h-160v-445z" />
<glyph unicode="&#x40a;" horiz-adv-x="2041" d="M166 0v1434h305v-508h465v508h299v-498h248q240 0 375 -130t135 -335q-2 -209 -137.5 -340t-376.5 -131h-543v645h-465v-645h-305zM1235 270q121 -3 244 0q109 3 166.5 67.5t48.5 158.5q-9 76 -66.5 122t-148.5 46h-244v-394z" />
<glyph unicode="&#x40b;" horiz-adv-x="1554" d="M39 1167v267h1126v-267h-458v-379q39 86 139 131.5t209 45.5q136 0 232 -62t141 -163.5t45 -231.5v-508h-287v508q0 98 -63.5 153.5t-157.5 57.5q-96 2 -175 -69.5t-83 -164.5v-485h-297v1167h-371z" />
<glyph unicode="&#x40c;" horiz-adv-x="1439" d="M166 0v1434h307v-592q62 0 93.5 0.5t80.5 7.5t74 20q51 28 79.5 98t63.5 212q87 330 488 252v-209q-87 8 -135.5 -22.5t-69.5 -110.5q-40 -140 -80.5 -230t-101.5 -151q39 -58 196 -296.5t244 -367.5v-45h-348l-361 590q-55 -15 -223 -15v-575h-307zM592 1565v26l186 328 l256 -94v-27l-213 -233h-229z" />
<glyph unicode="&#x40e;" horiz-adv-x="1306" d="M14 1395v39h338l326 -633h10l291 633h326v-31l-541 -1094q-42 -92 -83 -156t-96.5 -112t-120.5 -66t-151 -9.5t-192 48.5l41 238q105 -47 176 -22.5t121 130.5l61 129zM307 1872l207 18q15 -129 154 -129t161 129q79 -5 205 -18q-9 -160 -103 -252t-261 -92 q-163 0 -259 92.5t-104 251.5z" />
<glyph unicode="&#x40f;" horiz-adv-x="1492" d="M166 0v1434h307v-1155h549v1155h305v-1434h-428v-276h-295v276h-438z" />
<glyph unicode="&#x410;" horiz-adv-x="1433" d="M-12 0v41l659 1405h141l656 -1405v-41h-318l-112 238h-596l-111 -238h-319zM518 496h397l-198 473z" />
<glyph unicode="&#x411;" horiz-adv-x="1355" d="M166 0v1434h1003v-269h-702v-264h311q125 0 223 -33.5t159.5 -93.5t93.5 -139.5t32 -173.5q0 -96 -32.5 -178.5t-94 -146t-160 -100t-221.5 -36.5h-612zM467 268h309q100 0 155.5 56t55.5 135t-55.5 132.5t-155.5 53.5h-309v-377z" />
<glyph unicode="&#x412;" horiz-adv-x="1376" d="M168 0v1432h608q201 0 326 -113.5t125 -310.5q0 -79 -38.5 -151.5t-105.5 -113.5q99 -41 152 -124.5t53 -194.5q0 -192 -121 -308t-333 -116h-666zM473 266h340q77 0 122 42.5t50 115.5q3 93 -63 141q-41 29 -123 29h-326v-328zM473 844h281q78 0 124.5 40.5t47.5 112.5 q2 78 -45 125t-127 47h-281v-325z" />
<glyph unicode="&#x413;" horiz-adv-x="1071" d="M166 0v1434h872v-277h-567v-1157h-305z" />
<glyph unicode="&#x414;" horiz-adv-x="1531" d="M41 -203v463h49q87 1 119 45.5t45 155.5l113 973h933v-1174h154v-463h-274v203h-850v-203h-289zM461 254h538v915h-366l-76 -720q-5 -55 -29.5 -111t-66.5 -84z" />
<glyph unicode="&#x415;" horiz-adv-x="1171" d="M166 0v1434h878v-269h-569v-291h533v-268h-533v-327h586v-279h-895z" />
<glyph unicode="&#x416;" horiz-adv-x="2105" d="M39 0v45q121 184 440 664q-60 59 -98 151t-74 236q-43 153 -217 127v207q417 89 490 -252q14 -66 27 -113t46.5 -105.5t77.5 -82.5q34 -21 71 -27t99 -6v590h303v-590q62 0 100.5 6t71.5 27q33 19 59 53t44.5 83.5t27.5 80.5t21 84q70 341 487 252v-207q-85 12 -139 -17 t-78 -110q-39 -148 -75 -238t-95 -149q72 -111 218.5 -332t219.5 -332v-45h-346q-182 296 -360 588q-84 -19 -156 -19v-569h-303v569q-72 0 -156 19q-179 -292 -360 -588h-346z" />
<glyph unicode="&#x417;" horiz-adv-x="1216" d="M63 453h277q0 -104 68.5 -166t171.5 -62q111 0 177 58.5t66 150.5q0 88 -68 146.5t-175 58.5h-107v246h105q82 0 136 48t54 118q0 78 -55 123t-133 45q-77 0 -134 -36t-57 -102h-270q-4 96 32.5 170.5t102 119.5t148.5 68t178 23q217 0 346 -115t129 -290 q0 -86 -44.5 -160t-119.5 -119q120 -55 181 -143.5t61 -218.5q0 -200 -147 -322.5t-406 -122.5q-238 0 -377.5 122t-139.5 360z" />
<glyph unicode="&#x418;" horiz-adv-x="1540" d="M166 -4v1438h307v-813l805 819h96v-1440h-305v819l-811 -823h-92z" />
<glyph unicode="&#x419;" horiz-adv-x="1540" d="M166 -4h92l811 823v-819h305v1440h-96l-805 -819v813h-307v-1438zM469 1872l207 18q15 -129 153 -129q140 0 162 129q79 -5 205 -18q-9 -160 -103.5 -252t-261.5 -92q-163 0 -258.5 92t-103.5 252z" />
<glyph unicode="&#x41a;" horiz-adv-x="1439" d="M166 0v1434h305v-592h29h32t29.5 0.5t31 1t28 1.5t29 3t24.5 5t25 6.5t20 8.5q52 28 80 97t63 215q92 335 490 252v-209q-88 8 -136 -22t-71 -111q-35 -135 -76.5 -227t-103.5 -154l438 -664v-45h-346l-361 590q-59 -15 -225 -15v-575h-305z" />
<glyph unicode="&#x41b;" horiz-adv-x="1499" d="M31 6l6 221q65 -7 105.5 0t65 32.5t36 62t18.5 100.5l107 1012h964v-1434h-305v1159h-391l-70 -747q-11 -114 -33 -190.5t-62 -129t-99.5 -74t-144.5 -26.5t-197 14z" />
<glyph unicode="&#x41c;" horiz-adv-x="1705" d="M166 0v1438h113l575 -682l576 682h110v-1438h-307v776l-361 -450h-38l-361 450v-776h-307z" />
<glyph unicode="&#x41d;" horiz-adv-x="1492" d="M166 0v1434h305v-547h549v547h307v-1434h-307v606h-549v-606h-305z" />
<glyph unicode="&#x41e;" horiz-adv-x="1636" d="M86 717q0 175 61 318t164 233.5t234 139t276 48.5q113 0 219.5 -30t199 -92t161.5 -148.5t109 -207.5t40 -261q0 -161 -54 -299.5t-150 -235.5t-233 -152t-298 -55q-145 0 -275.5 49t-232 140t-161.5 234t-60 319zM395 717q0 -114 34 -203.5t92.5 -145t134.5 -84 t163 -28.5q85 0 160.5 28.5t135.5 84t95 145t35 203.5q0 111 -34.5 199.5t-94 144t-135 84.5t-160.5 29q-86 0 -162 -29.5t-135.5 -85t-94 -144t-34.5 -198.5z" />
<glyph unicode="&#x41f;" horiz-adv-x="1492" d="M166 0v1434h1161v-1434h-307v1155h-547v-1155h-307z" />
<glyph unicode="&#x420;" horiz-adv-x="1341" d="M168 2v1434h612q121 0 220 -43.5t161 -117t95.5 -166.5t33.5 -196q0 -101 -34 -191.5t-97 -160.5t-161.5 -111.5t-217.5 -41.5h-305v-406h-307zM469 670h311q96 0 156.5 73.5t60.5 178.5q0 103 -59.5 174t-157.5 71h-311v-497z" />
<glyph unicode="&#x421;" horiz-adv-x="1558" d="M86 715q0 173 61.5 315.5t164 233t233.5 138.5t274 46q112 0 217 -30.5t197 -91t158 -160.5t90 -228h-297q-91 233 -365 233q-190 0 -307 -126t-117 -330q0 -123 51.5 -225.5t148.5 -164t222 -61.5q138 0 237.5 65.5t135.5 192.5h295q-22 -137 -87 -242.5t-157.5 -168 t-199 -94t-222.5 -31.5q-114 0 -221 29.5t-200 90.5t-162.5 146.5t-109.5 204.5t-40 258z" />
<glyph unicode="&#x422;" horiz-adv-x="1134" d="M37 1167v267h1061v-267h-381v-1167h-297v1167h-383z" />
<glyph unicode="&#x423;" horiz-adv-x="1302" d="M12 1395v39h338l326 -633h10l291 633h326v-31l-541 -1094q-42 -93 -83 -157.5t-96.5 -114.5t-120.5 -69.5t-151 -12.5t-192 47l41 250q105 -47 176 -22.5t121 130.5l61 129z" />
<glyph unicode="&#x424;" horiz-adv-x="1861" d="M102 719q0 142 54.5 253t150 179.5t216.5 105t263 41.5v140h287v-140q116 -4 216 -25.5t187.5 -66.5t149 -110.5t96.5 -161.5t35 -215t-36 -215t-98.5 -161.5t-150.5 -110t-187.5 -65.5t-213.5 -24v-147h-283v147q-143 4 -264.5 40t-217 104.5t-150 179t-54.5 252.5z M410 719q0 -300 381 -316v629q-381 -8 -381 -313zM1069 403q381 16 381 316q0 305 -381 313v-629z" />
<glyph unicode="&#x425;" horiz-adv-x="1374" d="M20 0v43l484 715l-434 631v45h333l150 -236l131 -258h8l139 270l142 224h332v-45l-433 -631l482 -715v-43h-322l-186 276l-154 269h-10l-158 -277l-178 -268h-326z" />
<glyph unicode="&#x426;" horiz-adv-x="1542" d="M166 0v1434h307v-1155h516v1155h309v-1174h172v-444h-272v184h-1032z" />
<glyph unicode="&#x427;" horiz-adv-x="1325" d="M70 1214v218h309v-218q0 -82 7 -143t21.5 -110.5t40.5 -82.5t61.5 -55t86.5 -30.5t113.5 -7.5t144.5 12v635h303v-1432h-303v512q-202 -25 -350 -0.5t-244.5 108t-143 230t-46.5 364.5z" />
<glyph unicode="&#x428;" horiz-adv-x="2117" d="M166 0v1434h305v-1155h432v1155h307v-1155h435v1155h307v-1434h-1786z" />
<glyph unicode="&#x429;" horiz-adv-x="2187" d="M166 0v1434h309v-1155h426v1155h305v-1155h430v1155h306v-1174h174v-444h-271v184h-1679z" />
<glyph unicode="&#x42a;" horiz-adv-x="1443" d="M41 1176v258h534v-449h308q120 0 218.5 -40.5t161 -109t96.5 -156t34 -183.5q0 -97 -34 -185.5t-96.5 -158t-161 -111t-218.5 -41.5h-609v1176h-233zM575 270q32 0 95 -1t115 -1t96 2q99 0 158 65.5t59 160.5q-2 92 -61.5 155.5t-155.5 63.5h-306v-445z" />
<glyph unicode="&#x42b;" horiz-adv-x="1959" d="M166 0v1434h299v-35v-414h307q130 0 234.5 -48t166.5 -127t89.5 -177.5t15.5 -202.5q-11 -88 -49.5 -165t-101 -136.5t-154 -94t-201.5 -34.5h-606zM465 270q42 0 127.5 -1t128.5 -1q244 0 264 197q9 101 -50 175.5t-163 74.5h-31h-276v-445zM1489 0v1434h305v-1434h-305 z" />
<glyph unicode="&#x42c;" horiz-adv-x="1331" d="M166 0v1434h299v-449h307q120 0 218.5 -40.5t161 -109t96.5 -156t34 -183.5q0 -97 -34 -185.5t-96.5 -158t-161 -111t-218.5 -41.5h-606zM465 270q33 0 95.5 -1t114.5 -1t97 2q98 0 157.5 66t57.5 160q-2 93 -60 156t-155 63h-307v-445z" />
<glyph unicode="&#x42d;" horiz-adv-x="1556" d="M66 518h296q36 -125 137.5 -192.5t237.5 -67.5q157 0 268.5 89.5t137.5 240.5h-518v254h524q-22 154 -132.5 245t-268.5 89q-132 0 -228 -60t-141 -178h-297q20 103 67.5 189t112.5 145.5t145.5 100.5t166 60t174.5 19q114 1 220 -29.5t197 -92t159 -148.5t107 -206.5 t39 -258.5t-40 -259t-109.5 -206t-162.5 -147t-200 -91t-221 -30q-92 0 -178.5 19t-168.5 61t-147 103t-112 151t-65 200z" />
<glyph unicode="&#x42e;" horiz-adv-x="2224" d="M166 0v1434h307v-555h219q34 184 142.5 317.5t257 198t319.5 63.5q143 -1 273 -50.5t231.5 -140.5t162 -233.5t60.5 -316.5q0 -142 -40 -263.5t-109 -209.5t-162 -150.5t-200.5 -93t-221.5 -29.5q-132 2 -252.5 44t-218.5 120t-164 198t-84 267h-213v-600h-307zM983 717 q0 -107 34.5 -194.5t93.5 -143.5t135.5 -86.5t162.5 -30.5q84 0 160 30.5t134.5 86.5t93 143.5t34.5 194.5q0 105 -35 191.5t-94 141.5t-135.5 85t-161.5 30q-178 0 -300 -120.5t-122 -327.5z" />
<glyph unicode="&#x42f;" horiz-adv-x="1413" d="M63 0v45l322 477q-120 61 -187 172.5t-69 249.5q0 96 33.5 183.5t96 156.5t160.5 109.5t218 40.5h610v-1434h-307v475h-256l-295 -475h-326zM426 950q0 -95 57.5 -159t153.5 -64h307v440h-307q-96 0 -153.5 -62t-57.5 -155z" />
<glyph unicode="&#x430;" horiz-adv-x="1134" d="M66 291q-5 117 46.5 199t137.5 119.5t199 37.5q163 0 262 -63v67q0 35 -16.5 61t-41.5 41t-59.5 24.5t-65 12.5t-63.5 3q-178 0 -285 -60l-37 205q157 74 371 74q101 0 182 -18t148 -59t104 -115t37 -177v-356q0 -34 0.5 -47t5 -34.5t13.5 -28.5t27 -13t46 -4l2 -160 q-48 -11 -90.5 -14t-84.5 3t-71.5 23.5t-48 53t-18.5 86.5q-41 -86 -138 -128t-204 -42q-143 0 -248.5 85.5t-109.5 223.5zM346 309q4 -51 43 -78.5t92 -27.5q80 0 148.5 39.5t75.5 111.5v52q-83 57 -205 57q-72 -5 -116.5 -45t-37.5 -109z" />
<glyph unicode="&#x431;" horiz-adv-x="1226" d="M96 621q0 95 15.5 187t51.5 172.5t90 149.5t134.5 123.5t181.5 89.5q17 6 30.5 10.5t31.5 12t31.5 15.5t28 18t23 21t15 24t6 28.5t-7.5 32.5h258q84 -229 -201 -354q-37 -16 -91 -38t-81.5 -33.5t-66 -31t-59 -37.5t-44 -45t-37.5 -61.5t-24 -79.5q43 62 125.5 104.5 t165.5 43.5q114 5 208 -35t153 -110.5t90 -162t28 -190.5q-4 -96 -39 -184t-98 -158t-161.5 -111.5t-219.5 -41.5q-120 0 -214.5 33.5t-157 94.5t-99.5 140t-51 176q-15 102 -15 197zM379 479q0 -119 72 -185.5t178 -66.5q107 0 175.5 68t67.5 184q-1 111 -72 180.5 t-177 69.5q-105 0 -175 -71.5t-69 -178.5z" />
<glyph unicode="&#x432;" horiz-adv-x="1099" d="M133 -2v993h393q47 0 83.5 -1.5t85.5 -7.5t85 -17t74 -30.5t62 -47t39.5 -69t15.5 -93.5q0 -71 -34.5 -123t-100.5 -70q85 -26 134.5 -92.5t49.5 -154.5q0 -73 -26.5 -127t-66 -84t-99.5 -48t-114 -23t-122 -5h-459zM410 213h151h34.5t34 2t35.5 5.5t29.5 11t26 18 t15.5 27t7 38.5q0 86 -93 101q-27 4 -93 4h-147v-207zM410 608h133q28 0 42.5 0.5t38 5t35.5 13t21.5 25.5t9.5 42t-9 43.5t-22 28t-34.5 15t-39 6.5t-42.5 1h-133v-180z" />
<glyph unicode="&#x433;" horiz-adv-x="903" d="M133 0v987h723v-250h-444v-737h-279z" />
<glyph unicode="&#x434;" horiz-adv-x="1255" d="M45 221h4h14q30 1 53 7t39 15t28 26t19 31.5t12.5 40.5t8 44.5t7 52t8.5 54.5l77 495h740v-766h131l-10 -434h-248v213h-627v-213h-248zM430 221h356v531h-241l-39 -320l-12 -76q-15 -97 -64 -135z" />
<glyph unicode="&#x435;" horiz-adv-x="1126" d="M74 506q2 125 46 223.5t117 159t163.5 92t191.5 31.5q133 0 231 -43t151.5 -120t70 -183t-14.5 -232h-670q7 -108 78.5 -161.5t184.5 -61.5q86 -4 131 2q141 16 235 59l33 -209q-187 -88 -383 -88q-252 -5 -408.5 139t-156.5 392zM362 618h435q4 90 -55.5 132.5 t-149.5 42.5q-85 0 -149 -46t-81 -129z" />
<glyph unicode="&#x436;" horiz-adv-x="1626" d="M55 0v31l279 471q-70 36 -116 89.5t-66 114.5t-27.5 133.5t0.5 147.5h268q-23 -366 256 -366h27v368h272v-368h29q64 0 112 20t75.5 54.5t45 81t20 99.5t-0.5 111h272q8 -75 1 -147.5t-27.5 -133.5t-67 -114.5t-117.5 -89.5l281 -471v-31h-291l-223 412q-51 -15 -80 -15 h-29v-397h-272v397h-27q-33 0 -80 15l-227 -412h-287z" />
<glyph unicode="&#x437;" horiz-adv-x="1015" d="M70 63l14 228q47 -29 160.5 -59t206.5 -31q188 0 188 110q0 36 -17 58.5t-51 31.5t-59 11t-68 2h-157v196h143q35 0 56.5 2t47 10.5t38 27.5t12.5 50q0 53 -44 73t-118 20q-70 0 -162 -18.5t-147 -47.5l-13 205q67 36 168.5 56.5t204.5 19.5q82 0 152 -14t131 -44t96 -85 t35 -130t-40.5 -129t-113.5 -74q95 -27 152 -92.5t57 -158.5q0 -83 -37.5 -144.5t-102 -96t-142 -51t-166.5 -16.5q-117 0 -231.5 25t-192.5 65z" />
<glyph unicode="&#x438;" horiz-adv-x="1210" d="M133 -2v989h277v-498l581 502h86v-991h-276v510l-594 -512h-74z" />
<glyph unicode="&#x439;" horiz-adv-x="1210" d="M133 -2h74l594 512v-510h276v991h-86l-581 -502v498h-277v-989zM313 1427l176 19q12 -116 152 -119q141 0 160 119q80 -6 172 -19q-9 -146 -95.5 -227.5t-234.5 -81.5q-143 0 -233 81.5t-97 227.5z" />
<glyph unicode="&#x43a;" horiz-adv-x="1150" d="M133 2v985h285v-366h71q82 0 139.5 28t88.5 80t44 115t13 145h270q3 -174 -46.5 -297t-184.5 -196l279 -465v-29h-291l-232 404q-34 -11 -84 -11h-67v-393h-285z" />
<glyph unicode="&#x43b;" horiz-adv-x="1243" d="M41 0l8 207q59 -7 94 -0.5t54.5 32t27 56t13.5 90.5l67 602h805v-987h-281v735h-276l-35 -360q-7 -88 -21 -150.5t-39 -109.5t-59.5 -74t-87 -40.5t-117 -13t-153.5 12.5z" />
<glyph unicode="&#x43c;" horiz-adv-x="1339" d="M133 4v983h86l451 -452l452 452h84v-983h-272v449l-254 -248h-25l-247 248v-449h-275z" />
<glyph unicode="&#x43d;" horiz-adv-x="1212" d="M133 0v987h277v-352h393v352h276v-987h-276v389h-393v-389h-277z" />
<glyph unicode="&#x43e;" horiz-adv-x="1193" d="M74 498q0 124 44 224.5t118 163t165.5 96t190.5 34.5q101 1 194 -32t168.5 -95t120.5 -163.5t45 -227.5q0 -125 -44.5 -226t-118.5 -163.5t-165.5 -95.5t-191.5 -33t-193 33t-168 95.5t-120 163.5t-45 226zM358 498q0 -126 70 -197.5t166 -71.5q98 -2 170 69.5t72 199.5 q0 125 -69.5 195.5t-166.5 70.5q-98 0 -170 -70t-72 -196z" />
<glyph unicode="&#x43f;" horiz-adv-x="1210" d="M133 0v987h944v-987h-284v735h-371v-735h-289z" />
<glyph unicode="&#x440;" horiz-adv-x="1239" d="M82 993q56 12 108 13.5t104 -10.5t83 -52.5t31 -107.5q39 88 124.5 134t186.5 46q139 0 242 -73.5t152.5 -188.5t49.5 -252q0 -115 -39.5 -214.5t-108.5 -166.5t-156.5 -104t-191 -31t-204.5 57v-549h-287v1159q0 9 0.5 30t0 28t-1.5 23.5t-3.5 22t-6.5 16.5t-11 15 t-16.5 9t-23 6t-30.5 0zM455 281q75 -45 151 -51.5t135 22t96 94t37 156.5q0 68 -22.5 126t-73 97t-119.5 39q-93 -1 -147.5 -66.5t-56.5 -158.5v-258z" />
<glyph unicode="&#x441;" horiz-adv-x="1155" d="M74 498q0 125 45.5 226.5t121.5 164t168.5 96t192.5 33.5q115 0 215 -42t174 -131.5t96 -213.5h-272q-25 67 -81.5 102t-125.5 33q-100 -2 -175 -73t-75 -195q0 -126 75 -199.5t175 -73.5q71 0 128.5 39.5t82.5 114.5h273q-15 -96 -62 -173t-114.5 -125.5t-148 -74 t-167.5 -26.5q-100 -1 -192.5 32t-167.5 95t-120.5 163.5t-45.5 227.5z" />
<glyph unicode="&#x442;" horiz-adv-x="954" d="M47 737v250h860v-250h-291v-733h-278v733h-291z" />
<glyph unicode="&#x443;" horiz-adv-x="1144" d="M14 954v33h308l260 -655h6l233 655h285v-33l-418 -1050q-42 -104 -82 -177t-94 -133t-114.5 -84.5t-141.5 -19t-178 50.5l28 201q121 -49 190.5 -11t113.5 165l36 102z" />
<glyph unicode="&#x444;" horiz-adv-x="1718" d="M80 494q0 120 32 219t91 164.5t137 99.5t176 27t203 -56v543h282v-543q105 49 202.5 56t175.5 -27t137 -99.5t90.5 -164.5t31.5 -219q0 -119 -31.5 -217.5t-90.5 -163.5t-137 -98.5t-175.5 -26t-202.5 56.5v-547h-282v547q-105 -49 -203 -56.5t-176 26t-137 98.5 t-91 163.5t-32 217.5zM367 494q0 -89 28.5 -151.5t76.5 -90.5t114.5 -21.5t140.5 50.5v430q-74 43 -140 49t-114.5 -21.5t-77 -91t-28.5 -153.5zM995 281q73 -44 139 -50.5t113.5 21.5t76 90.5t28.5 151.5q0 90 -28 153.5t-76.5 91t-114 21.5t-138.5 -49v-430z" />
<glyph unicode="&#x445;" horiz-adv-x="1077" d="M29 0v33l342 491l-293 432v31h274l88 -129l95 -166h6l92 168l86 127h293v-33l-303 -440l333 -481v-33h-276l-111 160l-110 188h-6l-117 -196l-107 -152h-286z" />
<glyph unicode="&#x446;" horiz-adv-x="1224" d="M133 0v987h275v-735h344v735h274v-766h129l-16 -430h-236v209h-770z" />
<glyph unicode="&#x447;" horiz-adv-x="1132" d="M68 758v229h286v-229q-2 -70 20.5 -121.5t61 -76.5t87 -31.5t100.5 7t98 44.5v407h278v-987h-284v322q-103 -37 -199 -42t-177.5 23.5t-142 86.5t-94.5 152.5t-34 215.5z" />
<glyph unicode="&#x448;" horiz-adv-x="1687" d="M133 0v987h273v-735h299v735h276v-735h299v735h274v-987h-1421z" />
<glyph unicode="&#x449;" horiz-adv-x="1757" d="M133 0v987h277v-735h299v735h274v-735h297v735h276v-766h130l-15 -432h-239v211h-1299z" />
<glyph unicode="&#x44a;" horiz-adv-x="1179" d="M45 754v233h485v-289h164q91 0 167 -19.5t137.5 -59.5t96.5 -109.5t35 -161.5q0 -91 -35.5 -159.5t-98 -108.5t-139 -60t-165.5 -20h-436v754h-211zM530 213h158q76 0 121 36.5t45 98.5q0 63 -44.5 99t-121.5 36h-158v-270z" />
<glyph unicode="&#x44b;" horiz-adv-x="1579" d="M133 0v987h275v-289h163q91 0 167.5 -19.5t138.5 -59.5t97.5 -109.5t35.5 -161.5q0 -90 -36 -159t-98.5 -109t-139 -60t-165.5 -20h-438zM408 213h159q76 0 121 36.5t45 98.5q0 63 -44.5 99t-121.5 36h-159v-270zM1180 0v985h266v-985h-266z" />
<glyph unicode="&#x44c;" horiz-adv-x="1060" d="M133 0v987h275v-289h163q91 0 167.5 -19.5t138.5 -59.5t97.5 -109.5t35.5 -161.5q0 -90 -36 -159t-98.5 -109t-139 -60t-165.5 -20h-438zM408 213h159q76 0 121 36.5t45 98.5q0 63 -44.5 99t-121.5 36h-159v-270z" />
<glyph unicode="&#x44d;" horiz-adv-x="1167" d="M61 379h275q23 -75 87 -115.5t140 -40.5q89 0 154 44t82 126h-318v199h318q-18 84 -79 127t-147 43q-81 -2 -144.5 -36.5t-88.5 -100.5l-272 2q22 125 98 214t180.5 130t226.5 41q104 -1 196 -34t165 -96t115.5 -163t42.5 -225q0 -126 -43.5 -226.5t-117.5 -163.5 t-169 -96t-201 -33q-90 0 -172.5 26t-150.5 75t-115 127t-62 176z" />
<glyph unicode="&#x44e;" horiz-adv-x="1687" d="M133 0v987h277v-352h174q28 122 107.5 210t182 128.5t218.5 40.5q101 0 193 -34t165.5 -97t117.5 -164t44 -225q0 -101 -29.5 -187t-80.5 -146.5t-118 -103t-142.5 -62.5t-154.5 -20q-120 0 -225.5 44t-185 139.5t-103.5 228.5h-163v-387h-277zM848 494q0 -125 72.5 -197 t169.5 -70q95 0 165 70.5t70 196.5q0 125 -70 195.5t-165 70.5q-98 2 -170 -69t-72 -197z" />
<glyph unicode="&#x44f;" horiz-adv-x="1136" d="M61 0v31l234 323q-83 39 -136 119t-53 172q0 140 97.5 240.5t259.5 101.5h541v-987h-289v299h-137l-211 -299h-306zM395 641q0 -53 41.5 -87t110.5 -34h168v250h-168q-70 0 -111 -37t-41 -92z" />
<glyph unicode="&#x451;" d="M76 506q2 125 46 223.5t117 159t163.5 92t191.5 31.5q133 0 231 -43t151.5 -120t70 -183t-14.5 -232h-670q7 -108 78.5 -161.5t184.5 -61.5q86 -4 131 2q141 16 235 59l33 -209q-187 -88 -383 -88q-252 -5 -408.5 139t-156.5 392zM190 1300q0 62 43.5 100t106.5 38 t107.5 -38.5t44.5 -99.5q0 -60 -44.5 -97.5t-107.5 -37.5t-106.5 37.5t-43.5 97.5zM365 618h434q4 90 -55.5 132.5t-149.5 42.5q-85 0 -148.5 -46t-80.5 -129zM694 1300q0 62 43 100t107 38t106.5 -38t42.5 -100q0 -60 -42.5 -97.5t-106.5 -37.5t-107 37.5t-43 97.5z" />
<glyph unicode="&#x452;" horiz-adv-x="1222" d="M-16 1169v193h149v133h289v-133h278v-193h-278v-297q31 69 111.5 107.5t181.5 38.5q86 0 154 -25t111.5 -66.5t72 -99.5t40 -121t11.5 -135v-395q0 -484 -469 -403v215q60 -6 95.5 0.5t55.5 31t26.5 60t6.5 98.5v393q-4 100 -54.5 155.5t-131.5 55.5q-86 0 -148.5 -74.5 t-62.5 -175.5v-532h-289v1169h-149z" />
<glyph unicode="&#x453;" horiz-adv-x="917" d="M133 0v987h737v-250h-458v-737h-279zM367 1139v26l163 326l246 -88v-23l-192 -241h-217z" />
<glyph unicode="&#x454;" horiz-adv-x="1167" d="M76 494q0 124 44 225t118 163t165 95.5t191 34.5q86 0 168 -24t152 -70.5t120 -121.5t66 -169l-273 -2q-25 65 -92 100t-141 37q-86 0 -148.5 -44t-80.5 -128h321v-193h-321q17 -83 77.5 -128.5t147.5 -45.5q77 0 147.5 40.5t93.5 115.5h275q-20 -129 -97 -222.5 t-181 -137.5t-222 -44q-79 0 -155 20.5t-144 63t-119.5 103t-81.5 146t-30 186.5z" />
<glyph unicode="&#x455;" horiz-adv-x="1046" d="M72 301h286q1 -58 48.5 -88.5t113.5 -28.5q72 0 120.5 26t49.5 87q0 23 -9 40t-19.5 26t-34 16t-36 9.5t-42.5 6.5q-177 24 -247 46q-181 56 -206 196q-4 24 -4 51q0 160 117 243t307 83q121 0 218 -34.5t156 -107.5t54 -174h-270q-1 51 -44 76t-110 25 q-64 0 -107.5 -27.5t-43.5 -75.5q0 -26 12 -44t36 -27t43 -12.5t50 -6.5q179 -22 242 -39q169 -45 210 -164q16 -47 15 -106q-2 -85 -40 -149.5t-101.5 -101.5t-140 -55t-163.5 -18q-91 0 -166 15t-142.5 50t-107.5 102t-44 161z" />
<glyph unicode="&#x456;" horiz-adv-x="557" d="M111 1272q0 80 51 123t121 41q66 -2 114.5 -45.5t48.5 -118.5q0 -77 -47.5 -120.5t-113.5 -45.5q-70 -2 -122 42t-52 124zM135 0v975h287v-975h-287z" />
<glyph unicode="&#x457;" horiz-adv-x="555" d="M-119 1311q0 66 47 106.5t115 40.5q69 0 116.5 -40.5t47.5 -106.5t-47.5 -107t-116.5 -41q-68 0 -115 41t-47 107zM135 0v987h285v-987h-285zM330 1311q0 66 46.5 106.5t115.5 40.5t115 -40.5t46 -106.5t-46 -107t-115 -41t-115.5 41t-46.5 107z" />
<glyph unicode="&#x458;" horiz-adv-x="552" d="M-74 -516l8 213q119 -17 160 25.5t41 164.5v1096h283l-2 -1100q0 -133 -34 -222t-97.5 -133t-154 -55.5t-204.5 11.5zM106 1272q0 79 51 122.5t119 41.5q69 -2 117.5 -44.5t48.5 -119.5q0 -75 -46 -119t-111 -47q-72 -3 -125.5 41t-53.5 125z" />
<glyph unicode="&#x459;" horiz-adv-x="1632" d="M43 0l6 207q27 -3 48.5 -3t38.5 2t30 8.5t23 13.5t17 20t12 25t9 31.5t6 37t5 43.5l69 602h731v-289h113q91 0 166 -19.5t135.5 -60t94.5 -109.5t34 -161q0 -91 -34.5 -159.5t-95.5 -109t-136.5 -60t-165.5 -19.5h-385v735h-211l-35 -360q-7 -88 -21 -150.5t-38.5 -109.5 t-59 -74t-86.5 -40.5t-116.5 -13t-153.5 12.5zM1038 213h109q76 0 118 36.5t42 98.5q0 63 -42 99t-118 36h-109v-270z" />
<glyph unicode="&#x45a;" horiz-adv-x="1595" d="M133 0v987h275v-317h321v317h275v-307h110q73 0 134.5 -10.5t117 -35.5t94.5 -63t61.5 -96.5t22.5 -132.5q0 -91 -34.5 -158.5t-95.5 -106.5t-136 -58t-164 -19h-385v424h-321v-424h-275zM1004 213h106q77 0 119.5 34t42.5 95q0 123 -162 123h-106v-252z" />
<glyph unicode="&#x45b;" horiz-adv-x="1226" d="M-12 1169v193h145v133h289v-133h278v-193h-278v-309q73 150 309 150q104 0 179.5 -36.5t116 -100.5t59 -138.5t18.5 -163.5v-571h-285v571q-4 100 -54.5 155.5t-131.5 55.5q-87 0 -149 -68.5t-62 -170.5v-543h-289v1169h-145z" />
<glyph unicode="&#x45c;" horiz-adv-x="1150" d="M133 2v985h285v-366h71q82 0 139.5 28t88.5 80t44 115t13 145h270q3 -174 -46.5 -297t-184.5 -196l279 -465v-29h-291l-232 404q-34 -11 -84 -11h-67v-393h-285zM432 1139v26l162 326l246 -88v-23l-191 -241h-217z" />
<glyph unicode="&#x45e;" horiz-adv-x="1144" d="M14 954v33h308l260 -655h6l233 655h285v-33l-418 -1050q-42 -103 -82 -175t-94 -129t-115 -79.5t-141.5 -15t-177.5 52.5l28 184q121 -49 190.5 -11t113.5 165l36 102zM227 1444l183 18q6 -61 47.5 -92t111.5 -31q151 0 172 123q70 -2 185 -18q-9 -155 -102.5 -239.5 t-250.5 -84.5q-153 0 -246 84.5t-100 239.5z" />
<glyph unicode="&#x45f;" horiz-adv-x="1212" d="M133 0v987h285v-735h373v735h288v-987h-342v-197h-264v197h-340z" />
<glyph unicode="&#x490;" horiz-adv-x="1069" d="M166 0v1434h633v204h239v-473h-567v-1165h-305z" />
<glyph unicode="&#x491;" horiz-adv-x="917" d="M133 0v987h520v189h217v-439h-456v-737h-281z" />
<glyph unicode="&#x1e80;" horiz-adv-x="1986" d="M29 1389v45h321l146 -439l129 -475h6l299 889h125l309 -889h6l121 477l143 437h322v-45l-494 -1401h-182l-285 774h-6l-276 -774h-189zM698 1784v24l263 97l153 -320v-26h-233z" />
<glyph unicode="&#x1e81;" horiz-adv-x="1574" d="M25 954v33h305l104 -289l76 -225h4l221 492h109l223 -492h6l74 225l96 289h309v-33l-409 -968h-109l-123 241l-123 260l-118 -268l-113 -233h-127zM512 1368v25l252 92l147 -307v-25h-223z" />
<glyph unicode="&#x1e82;" horiz-adv-x="1986" d="M29 1389v45h321l146 -439l129 -475h6l299 889h125l309 -889h6l121 477l143 437h322v-45l-494 -1401h-182l-285 774h-6l-276 -774h-189zM864 1552v27l154 319l262 -96v-24l-182 -226h-234z" />
<glyph unicode="&#x1e83;" horiz-adv-x="1574" d="M25 954v33h305l104 -289l76 -225h4l221 492h109l223 -492h6l74 225l96 289h309v-33l-409 -968h-109l-123 241l-123 260l-118 -268l-113 -233h-127zM647 1145v26l148 310l256 -95v-22l-179 -219h-225z" />
<glyph unicode="&#x1e84;" horiz-adv-x="1986" d="M29 1389v45h321l146 -439l129 -475h6l299 889h125l309 -889h6l121 477l143 437h322v-45l-494 -1401h-182l-285 774h-6l-276 -774h-189zM555 1677q0 66 47 107t115 41q69 0 116.5 -41t47.5 -107t-47.5 -106.5t-116.5 -40.5q-68 0 -115 40.5t-47 106.5zM1100 1677 q0 66 46.5 107t115.5 41t115 -41t46 -107t-46 -106.5t-115 -40.5t-115.5 40.5t-46.5 106.5z" />
<glyph unicode="&#x1e85;" horiz-adv-x="1574" d="M25 954v33h305l104 -289l76 -225h4l221 492h109l223 -492h6l74 225l96 289h309v-33l-409 -968h-109l-123 241l-123 260l-118 -268l-113 -233h-127zM354 1311q0 66 47 106.5t115 40.5q69 0 116.5 -40.5t47.5 -106.5t-47.5 -107t-116.5 -41q-68 0 -115 41t-47 107z M899 1311q0 66 46.5 106.5t115.5 40.5t115.5 -40.5t46.5 -106.5t-46.5 -107t-115.5 -41t-115.5 41t-46.5 107z" />
<glyph unicode="&#x1ef2;" horiz-adv-x="1300" d="M4 1389v45h330l178 -306l135 -274h10l142 285l172 295h325v-45l-491 -816v-573h-307v573zM360 1778v24l263 96l153 -319v-27h-233z" />
<glyph unicode="&#x1ef3;" horiz-adv-x="1144" d="M14 954v33h301l134 -334l129 -364h6l112 362l119 336h291v-33l-418 -1050q-41 -105 -77.5 -175t-88.5 -128t-112.5 -81.5t-144 -19.5t-189.5 43l30 199q79 -38 138 -28.5t98 53.5t68 129l36 102zM303 1366v25l252 92l147 -307v-25h-223z" />
<glyph unicode="&#x2000;" horiz-adv-x="1012" />
<glyph unicode="&#x2001;" horiz-adv-x="2025" />
<glyph unicode="&#x2002;" horiz-adv-x="1012" />
<glyph unicode="&#x2003;" horiz-adv-x="2025" />
<glyph unicode="&#x2004;" horiz-adv-x="675" />
<glyph unicode="&#x2005;" horiz-adv-x="506" />
<glyph unicode="&#x2006;" horiz-adv-x="337" />
<glyph unicode="&#x2007;" horiz-adv-x="337" />
<glyph unicode="&#x2008;" horiz-adv-x="253" />
<glyph unicode="&#x2009;" horiz-adv-x="405" />
<glyph unicode="&#x200a;" horiz-adv-x="112" />
<glyph unicode="&#x2010;" horiz-adv-x="964" d="M125 559v246h715v-246h-715z" />
<glyph unicode="&#x2011;" horiz-adv-x="964" d="M125 559v246h715v-246h-715z" />
<glyph unicode="&#x2012;" horiz-adv-x="964" d="M125 559v246h715v-246h-715z" />
<glyph unicode="&#x2013;" horiz-adv-x="1116" d="M125 559v246h866v-246h-866z" />
<glyph unicode="&#x2014;" horiz-adv-x="1296" d="M125 559v246h1046v-246h-1046z" />
<glyph unicode="&#x2018;" horiz-adv-x="534" d="M100 1120q3 36 15 64l82 256h170l-50 -172q53 -14 86 -54t33 -98q0 -71 -47.5 -113t-120.5 -42q-57 0 -99.5 27.5t-59.5 76.5q-9 24 -9 55z" />
<glyph unicode="&#x2019;" horiz-adv-x="536" d="M102 1290q0 71 47.5 114.5t120.5 43.5q56 0 99.5 -29t60.5 -78q8 -21 8 -53q-3 -39 -14 -63l-84 -258h-168l49 174q-53 14 -86 54t-33 95z" />
<glyph unicode="&#x201a;" horiz-adv-x="565" d="M115 123q0 71 47.5 114.5t120.5 43.5q57 0 99.5 -28.5t59.5 -78.5q9 -21 9 -53q0 -23 -15 -66q-15 -44 -41.5 -129t-42.5 -129h-168l49 174q-118 40 -118 152z" />
<glyph unicode="&#x201c;" horiz-adv-x="980" d="M100 1118q0 29 13 66l84 256h170l-52 -174q56 -14 88.5 -53t32.5 -97q0 -71 -48.5 -114.5t-121.5 -43.5q-57 0 -98.5 28.5t-58.5 78.5q-9 21 -9 53zM549 1118q0 38 14 66l82 256h170l-49 -174q53 -14 86 -53t33 -97q0 -71 -47.5 -114.5t-120.5 -43.5q-57 0 -100 28.5 t-60 78.5q-8 19 -8 53z" />
<glyph unicode="&#x201d;" horiz-adv-x="991" d="M102 1290q0 71 47.5 114.5t120.5 43.5q56 0 99.5 -29t60.5 -78q8 -21 8 -53q-3 -39 -14 -63l-84 -258h-168l49 174q-53 14 -86 54t-33 95zM557 1290q0 71 47.5 114.5t120.5 43.5q57 0 100 -28.5t60 -78.5q8 -19 8 -53q0 -38 -14 -63l-82 -258h-170l49 174q-53 14 -86 54 t-33 95z" />
<glyph unicode="&#x201e;" horiz-adv-x="1017" d="M115 123q0 71 48.5 114.5t121.5 43.5q55 0 97.5 -28.5t59.5 -78.5q9 -21 9 -53q0 -16 -13 -66q-20 -56 -84 -256h-170l52 172q-121 39 -121 152zM567 123q0 71 47.5 114.5t120.5 43.5q56 0 99.5 -29t60.5 -78q8 -21 8 -53q-2 -33 -14 -66q-14 -40 -40.5 -125.5 t-43.5 -130.5h-168l49 172q-54 18 -86.5 56.5t-32.5 95.5z" />
<glyph unicode="&#x2020;" horiz-adv-x="972" d="M72 739v242h284v471h260v-471h285v-242h-285v-917h-260v917h-284z" />
<glyph unicode="&#x2021;" horiz-adv-x="1073" d="M106 256v238h297v311h-297v235h297v412h261v-412h303v-235h-303v-311h303v-238h-303v-434h-261v434h-297z" />
<glyph unicode="&#x2022;" horiz-adv-x="921" d="M154 733q0 128 89 208.5t218 80.5q130 0 218.5 -80.5t88.5 -208.5q0 -125 -88.5 -203.5t-218.5 -78.5q-129 0 -218 78.5t-89 203.5z" />
<glyph unicode="&#x2026;" horiz-adv-x="1628" d="M115 125q0 72 48.5 116t121.5 44t121.5 -44t48.5 -116q0 -68 -48.5 -112t-121.5 -44t-121.5 44t-48.5 112zM641 125q0 72 48.5 116t121.5 44t121.5 -44t48.5 -116q0 -68 -48.5 -112t-121.5 -44t-121.5 44t-48.5 112zM1174 125q0 72 49 116t120 44q73 0 121.5 -44 t48.5 -116q0 -68 -48.5 -112t-121.5 -44q-70 0 -119.5 44t-49.5 112z" />
<glyph unicode="&#x202f;" horiz-adv-x="405" />
<glyph unicode="&#x2030;" horiz-adv-x="2736" d="M72 1098q0 88 31.5 160t83.5 116t118 67.5t134.5 23.5t134.5 -23.5t118 -67.5t83.5 -116t31.5 -160t-31.5 -160t-83.5 -116t-118 -67.5t-134.5 -23.5t-134.5 23.5t-118 67.5t-83.5 116t-31.5 160zM301 1098q0 -45 15.5 -80.5t39.5 -53.5t53.5 -26.5t59.5 0t54 26.5 t39.5 53.5t15.5 80.5q0 53 -20.5 92.5t-51.5 57t-66.5 17.5t-66.5 -17.5t-51.5 -57t-20.5 -92.5zM451 0l704 1432h279l-705 -1432h-278zM1079 330q0 88 31.5 159.5t83 115t117.5 67.5t134.5 24t134.5 -24t117.5 -67.5t83 -115t31.5 -159.5t-31.5 -160t-83 -116t-117.5 -67.5 t-134.5 -23.5t-134.5 23.5t-117.5 67.5t-83 116t-31.5 160zM1307 330q0 -46 15.5 -82t40 -54.5t54 -27.5t59 0t54 27.5t40 54.5t15.5 82q0 52 -20.5 90.5t-51.5 56t-67 17.5t-67 -17.5t-51.5 -56t-20.5 -90.5zM1933 330q0 88 31.5 159.5t83 115t117.5 67.5t134.5 24 t134.5 -24t117.5 -67.5t83 -115t31.5 -159.5t-31.5 -160t-83 -116t-117.5 -67.5t-134.5 -23.5t-134.5 23.5t-117.5 67.5t-83 116t-31.5 160zM2161 330q0 -46 15.5 -82t40 -54.5t54 -27.5t59 0t54 27.5t40 54.5t15.5 82q0 52 -20.5 90.5t-51.5 56t-67 17.5t-67 -17.5 t-51.5 -56t-20.5 -90.5z" />
<glyph unicode="&#x2039;" horiz-adv-x="673" d="M90 709l309 499l162 -65l-201 -434l201 -428l-162 -68z" />
<glyph unicode="&#x203a;" horiz-adv-x="673" d="M113 281l200 428l-200 434l161 65l310 -499l-310 -496z" />
<glyph unicode="&#x2044;" horiz-adv-x="1048" d="M-12 -123l782 1616h295l-782 -1616h-295z" />
<glyph unicode="&#x205f;" horiz-adv-x="506" />
<glyph unicode="&#x20ac;" horiz-adv-x="1341" d="M88 508v162h137q-4 72 2 112h-139v158h164q32 123 101 220.5t161 160t201 95t227 32.5q163 0 281 -51l-90 -240q-81 35 -181 35q-131 0 -231 -67.5t-150 -184.5h430l-51 -158h-426q-10 -65 -2 -112h389l-55 -162h-299q44 -121 144.5 -190.5t248.5 -69.5q118 0 217 55 l101 -248q-151 -71 -326 -71q-272 0 -456.5 136t-237.5 388h-160z" />
<glyph unicode="&#x2116;" horiz-adv-x="2748" d="M180 0v1440h96l805 -819v813h308v-1438h-93l-811 823v-819h-305zM1628 498q0 124 44 224.5t118 163t165.5 96t190.5 34.5q80 1 156.5 -19t144 -62.5t118.5 -103t80.5 -146.5t29.5 -187q0 -125 -44.5 -226t-119 -163.5t-166 -95.5t-191.5 -33t-193 33t-168 95.5 t-120 163.5t-45 226zM1913 498q0 -127 69.5 -198t165.5 -71q98 -2 170 69.5t72 199.5q0 125 -69.5 195.5t-166.5 70.5q-98 0 -169.5 -70t-71.5 -196z" />
<glyph unicode="&#x2122;" horiz-adv-x="1583" d="M141 1266v170h527v-170h-168v-402h-191v402h-168zM774 864v572h96l230 -242l231 242h94v-572h-190v244l-131 -139h-8l-131 139v-244h-191z" />
<glyph unicode="&#x2190;" horiz-adv-x="1564" d="M115 686v41l618 567l180 -172l-329 -276l827 12v-303l-823 12l325 -278l-182 -174z" />
<glyph unicode="&#x2191;" horiz-adv-x="1480" d="M145 727l568 619h41l571 -617l-174 -182l-279 325l13 -823h-303l12 828l-277 -330z" />
<glyph unicode="&#x2192;" horiz-adv-x="1579" d="M141 555v303l828 -12l-330 276l180 172l619 -567v-41l-617 -571l-182 174l326 278z" />
<glyph unicode="&#x2193;" horiz-adv-x="1445" d="M131 680l174 182l279 -325l-13 823h303l-12 -828l277 330l172 -180l-568 -619h-41z" />
<glyph unicode="&#x2194;" horiz-adv-x="2025" d="M106 686v41l596 549l177 -168l-320 -266h899l-319 266l176 168l596 -549v-41l-594 -551l-176 168l315 268h-895l316 -268l-177 -168z" />
<glyph unicode="&#x2195;" horiz-adv-x="1421" d="M154 483l165 170l269 -301v789l-269 -301l-165 170l546 571h41l545 -573l-166 -170l-266 307v-797l266 307l166 -170l-545 -573h-41z" />
<glyph unicode="&#x2196;" horiz-adv-x="1505" d="M229 1169l29 29l840 -35l6 -250l-430 37l594 -577l-213 -213l-576 590l33 -426l-250 8z" />
<glyph unicode="&#x2197;" horiz-adv-x="1449" d="M162 373l594 577l-430 -37l6 250l839 35l29 -29l-33 -837l-249 -8l32 426l-575 -590z" />
<glyph unicode="&#x2198;" horiz-adv-x="1505" d="M182 1063l213 213l576 -590l-33 426l250 -8l33 -838l-29 -28l-840 34l-6 250l430 -37z" />
<glyph unicode="&#x2199;" horiz-adv-x="1505" d="M285 266l32 838l250 8l-32 -426l575 590l213 -213l-594 -578l430 37l-6 -250l-840 -34z" />
<glyph unicode="&#x2212;" d="M139 600v246h850v-246h-850z" />
<glyph unicode="&#x25fc;" horiz-adv-x="983" d="M0 0v983h983v-983h-983z" />
<glyph horiz-adv-x="448" />
</font>
</defs>
</svg>
